<svg xmlns="http://www.w3.org/2000/svg" xmlns:xlink="http://www.w3.org/1999/xlink" viewBox="0 0 395.23 236.29"><defs><style>.cls-1{fill:none;}.cls-2{fill:#e6ebf0;}.cls-3{clip-path:url(#clip-path);}.cls-4{fill:#c6d0db;}.cls-5{fill:#aab6c2;}.cls-6,.cls-7,.cls-8,.cls-9{fill:#fff;}.cls-6{opacity:0.35;}.cls-7{opacity:0.5;}.cls-8{opacity:0.6;}.cls-10{fill:#ff822e;}.cls-11{fill:#ff7513;}.cls-12{opacity:0.8;}.cls-13{fill:#191e3f;opacity:0.15;}</style><clipPath id="clip-path" transform="translate(52.31)"><path class="cls-1" d="M183.4,86.65C159.16,79.29,138.26,68.89,114.57,40S27.25,20.05,8.74,63.34,3.56,146.6,25.77,154s31.73,14.64,44,43c9.84,22.78,64.5,33.75,81.44,11.78,31-40.18,31.84-24.48,46.64-54.45S208.3,94.21,183.4,86.65Z"/></clipPath></defs><g id="Слой_2" data-name="Слой 2"><g id="Layer_1" data-name="Layer 1"><path class="cls-2" d="M183.4,86.65C159.16,79.29,138.26,68.89,114.57,40S27.25,20.05,8.74,63.34,3.56,146.6,25.77,154s31.73,14.64,44,43c9.84,22.78,64.5,33.75,81.44,11.78,31-40.18,31.84-24.48,46.64-54.45S208.3,94.21,183.4,86.65Z" transform="translate(52.31)"/><path class="cls-2" d="M168.47,45.08C152,26.46,145.76,20.9,127.56,24.83s11.37,35.52,41.53,51S188.63,67.87,168.47,45.08Z" transform="translate(52.31)"/><rect x="57.87" y="220.78" width="195.21" height="1.44"/><g class="cls-3"><polygon class="cls-4" points="82.08 80.93 82.08 73.17 94.94 73.17 94.94 36.12 98.49 36.12 98.49 73.17 112.34 73.17 112.34 80.93 119.76 80.93 119.76 236.29 66.25 236.29 66.25 80.93 82.08 80.93"/><rect class="cls-5" x="66.25" y="80.93" width="7.42" height="139.76"/><rect class="cls-4" x="93" y="117.94" width="53.51" height="118.36"/><rect class="cls-5" x="93" y="117.94" width="7.42" height="118.36"/><rect class="cls-5" x="131.37" y="122.98" width="7.68" height="3.19"/><rect class="cls-5" x="118.44" y="122.98" width="7.68" height="3.19"/><rect class="cls-5" x="131.37" y="134.58" width="7.68" height="3.19"/><rect class="cls-5" x="118.44" y="134.58" width="7.68" height="3.19"/><rect class="cls-5" x="105.51" y="134.58" width="7.68" height="3.19"/><rect class="cls-5" x="131.37" y="146.18" width="7.68" height="3.19"/><rect class="cls-5" x="105.51" y="146.18" width="7.68" height="3.19"/><rect class="cls-5" x="118.44" y="151.99" width="7.68" height="3.19"/><rect class="cls-5" x="131.37" y="157.79" width="7.68" height="3.19"/><rect class="cls-5" x="118.44" y="163.59" width="7.68" height="3.19"/><rect class="cls-5" x="131.37" y="169.39" width="7.68" height="3.19"/><rect class="cls-5" x="105.51" y="169.39" width="7.68" height="3.19"/><rect class="cls-5" x="131.37" y="180.11" width="7.68" height="3.19"/><rect class="cls-5" x="118.44" y="180.11" width="7.68" height="3.19"/><rect class="cls-5" x="131.37" y="191.72" width="7.68" height="3.19"/><rect class="cls-5" x="118.44" y="191.72" width="7.68" height="3.19"/><rect class="cls-5" x="105.51" y="191.72" width="7.68" height="3.19"/><rect class="cls-5" x="131.37" y="203.32" width="7.68" height="3.19"/><rect class="cls-5" x="105.51" y="203.32" width="7.68" height="3.19"/><rect class="cls-5" x="118.44" y="209.12" width="7.68" height="3.19"/><rect class="cls-5" x="105.51" y="209.12" width="7.68" height="3.19"/><rect class="cls-5" x="131.37" y="214.92" width="7.68" height="3.19"/><rect class="cls-5" x="118.44" y="220.72" width="7.68" height="3.19"/><rect class="cls-5" x="131.37" y="226.52" width="7.68" height="3.19"/><rect class="cls-5" x="105.51" y="226.52" width="7.68" height="3.19"/><rect class="cls-4" x="221.03" y="117.94" width="53.51" height="118.36"/><rect class="cls-5" x="221.03" y="117.94" width="7.42" height="118.36"/><rect class="cls-4" x="145.02" y="61.64" width="71.79" height="174.66"/><rect class="cls-5" x="145.02" y="61.64" width="7.42" height="174.66"/><rect class="cls-5" x="198.04" y="70" width="11.21" height="4.65"/><rect class="cls-5" x="179.16" y="70" width="11.21" height="4.65"/><rect class="cls-5" x="198.04" y="86.95" width="11.21" height="4.65"/><rect class="cls-5" x="179.16" y="86.95" width="11.21" height="4.65"/><rect class="cls-5" x="160.28" y="86.95" width="11.21" height="4.65"/><rect class="cls-5" x="198.04" y="103.89" width="11.21" height="4.65"/><rect class="cls-5" x="160.28" y="103.89" width="11.21" height="4.65"/><rect class="cls-5" x="179.16" y="112.36" width="11.21" height="4.65"/><rect class="cls-5" x="198.04" y="120.84" width="11.21" height="4.65"/><rect class="cls-5" x="179.16" y="129.31" width="11.21" height="4.65"/><rect class="cls-5" x="198.04" y="137.78" width="11.21" height="4.65"/><rect class="cls-5" x="160.28" y="137.78" width="11.21" height="4.65"/><rect class="cls-5" x="198.04" y="153.44" width="11.21" height="4.65"/><rect class="cls-5" x="179.16" y="153.44" width="11.21" height="4.65"/><rect class="cls-5" x="198.04" y="170.38" width="11.21" height="4.65"/><rect class="cls-5" x="179.16" y="170.38" width="11.21" height="4.65"/><rect class="cls-5" x="160.28" y="170.38" width="11.21" height="4.65"/><rect class="cls-5" x="198.04" y="187.32" width="11.21" height="4.65"/><rect class="cls-5" x="160.28" y="187.32" width="11.21" height="4.65"/><rect class="cls-5" x="179.16" y="195.8" width="11.21" height="4.65"/><rect class="cls-5" x="160.28" y="195.8" width="11.21" height="4.65"/><rect class="cls-5" x="198.04" y="204.27" width="11.21" height="4.65"/><rect class="cls-5" x="179.16" y="212.74" width="11.21" height="4.65"/><rect class="cls-5" x="198.04" y="221.21" width="11.21" height="4.65"/><rect class="cls-5" x="160.28" y="221.21" width="11.21" height="4.65"/><rect class="cls-4" x="257.89" y="74.66" width="70.36" height="161.64"/><rect class="cls-5" x="257.89" y="74.66" width="7.27" height="161.64"/><rect class="cls-5" x="309.86" y="82.4" width="10.99" height="4.31"/><rect class="cls-5" x="291.35" y="82.4" width="10.99" height="4.31"/><rect class="cls-5" x="309.86" y="98.08" width="10.99" height="4.31"/><rect class="cls-5" x="291.35" y="98.08" width="10.99" height="4.31"/><rect class="cls-5" x="272.85" y="98.08" width="10.99" height="4.31"/><rect class="cls-5" x="309.86" y="113.76" width="10.99" height="4.31"/><rect class="cls-5" x="272.85" y="113.76" width="10.99" height="4.31"/><rect class="cls-5" x="291.35" y="121.6" width="10.99" height="4.31"/><rect class="cls-5" x="309.86" y="129.44" width="10.99" height="4.31"/><rect class="cls-5" x="291.35" y="137.28" width="10.99" height="4.31"/><rect class="cls-5" x="309.86" y="145.12" width="10.99" height="4.31"/><rect class="cls-5" x="272.85" y="145.12" width="10.99" height="4.31"/><rect class="cls-5" x="309.86" y="159.61" width="10.99" height="4.31"/><rect class="cls-5" x="291.35" y="159.61" width="10.99" height="4.31"/><rect class="cls-5" x="309.86" y="175.29" width="10.99" height="4.31"/><rect class="cls-5" x="291.35" y="175.29" width="10.99" height="4.31"/><rect class="cls-5" x="272.85" y="175.29" width="10.99" height="4.31"/><rect class="cls-5" x="309.86" y="190.97" width="10.99" height="4.31"/><rect class="cls-5" x="272.85" y="190.97" width="10.99" height="4.31"/><rect class="cls-5" x="291.35" y="198.81" width="10.99" height="4.31"/><rect class="cls-5" x="272.85" y="198.81" width="10.99" height="4.31"/><rect class="cls-5" x="309.86" y="206.66" width="10.99" height="4.31"/><rect class="cls-5" x="291.35" y="214.5" width="10.99" height="4.31"/><rect class="cls-5" x="309.86" y="222.33" width="10.99" height="4.31"/><rect class="cls-5" x="272.85" y="222.33" width="10.99" height="4.31"/><rect class="cls-4" x="30.5" y="126.05" width="45.32" height="110.25"/><rect class="cls-5" x="30.5" y="126.05" width="4.68" height="110.25"/><rect class="cls-5" x="63.96" y="131.33" width="7.08" height="2.94"/><rect class="cls-5" x="52.05" y="131.33" width="7.08" height="2.94"/><rect class="cls-5" x="63.96" y="142.02" width="7.08" height="2.94"/><rect class="cls-5" x="52.05" y="142.02" width="7.08" height="2.94"/><rect class="cls-5" x="40.13" y="142.02" width="7.08" height="2.94"/><rect class="cls-5" x="63.96" y="152.72" width="7.08" height="2.94"/><rect class="cls-5" x="40.13" y="152.72" width="7.08" height="2.94"/><rect class="cls-5" x="52.05" y="158.07" width="7.08" height="2.94"/><rect class="cls-5" x="63.96" y="163.41" width="7.08" height="2.94"/><rect class="cls-5" x="52.05" y="168.76" width="7.08" height="2.94"/><rect class="cls-5" x="63.96" y="174.11" width="7.08" height="2.94"/><rect class="cls-5" x="40.13" y="174.11" width="7.08" height="2.94"/><rect class="cls-5" x="63.96" y="183.99" width="7.08" height="2.94"/><rect class="cls-5" x="52.05" y="183.99" width="7.08" height="2.94"/><rect class="cls-5" x="63.96" y="194.69" width="7.08" height="2.94"/><rect class="cls-5" x="52.05" y="194.69" width="7.08" height="2.94"/><rect class="cls-5" x="40.13" y="194.69" width="7.08" height="2.94"/><rect class="cls-5" x="63.96" y="205.38" width="7.08" height="2.94"/><rect class="cls-5" x="40.13" y="205.38" width="7.08" height="2.94"/><rect class="cls-5" x="52.05" y="210.73" width="7.08" height="2.94"/><rect class="cls-5" x="40.13" y="210.73" width="7.08" height="2.94"/><rect class="cls-5" x="63.96" y="216.08" width="7.08" height="2.94"/><rect class="cls-5" x="52.05" y="221.43" width="7.08" height="2.94"/><rect class="cls-5" x="63.96" y="226.77" width="7.08" height="2.94"/><rect class="cls-5" x="40.13" y="226.77" width="7.08" height="2.94"/><rect class="cls-6" x="2.1" y="8.05" width="192.05" height="218.97"/><polygon class="cls-7" points="68.22 223.07 53.31 223.07 133.22 10.56 148.12 10.56 68.22 223.07"/><polygon class="cls-7" points="41.9 223.07 34.45 223.07 114.35 10.56 121.81 10.56 41.9 223.07"/><polygon class="cls-7" points="130.89 223.07 123.44 223.07 191.94 33.37 191.94 48.66 130.89 223.07"/><rect class="cls-6" x="195.16" y="3.72" width="192.05" height="218.97"/><polygon class="cls-7" points="226.93 223.07 212.02 223.07 291.93 10.56 306.83 10.56 226.93 223.07"/><polygon class="cls-7" points="200.61 223.07 193.16 223.07 273.06 10.56 280.51 10.56 200.61 223.07"/><polygon class="cls-8" points="322.96 223.07 315.51 223.07 384.01 33.37 384.01 48.66 322.96 223.07"/><path class="cls-9" d="M342.92,47.55V45H336V5.55H-52.31v5h4.18v1.77H75.73V45h-128v2.51h128v64.3h-128v2.51h128v64.3h-128v2.51h128v41.9H-48.09v1.45h-4.22v5.8H336v-.47h0V181.17h6.9v-2.51H336v-64.3h6.9v-2.51H336V47.55ZM144,114.36h59.82v64.3H144Zm0-2.51V47.55h59.82v64.3ZM144,45V12.33h59.82V45Zm0,136.13h59.82v41.9H144v1.45h0Zm64,41.9v-41.9H267.8v41.9Zm0-44.41v-64.3H267.8v64.3Zm0-66.81V47.55H267.8v64.3ZM208,45V12.33H267.8V45Zm64-32.71h59.82V45H272Zm-192.07,0h59.82V45H79.93Zm0,35.22h59.82v64.3H79.93Zm0,66.81h59.82v64.3H79.93Zm0,66.81h59.82v43.35h0v-1.45H79.93Zm251.89,43.35h0v-1.45H272v-41.9h59.82Zm0-45.86H272v-64.3h59.82Zm0-66.81H272V47.55h59.82Z" transform="translate(52.31)"/></g><path class="cls-9" d="M99.25,209.9c-.5-.62-5.82-.1-5.87.22-.17,1-.42,4.73.09,5.23s5.09,1.53,5.19.58S99.72,210.49,99.25,209.9Z" transform="translate(52.31)"/><path d="M97.62,216.56a10,10,0,0,1-4.32-1c-.66-.65-.27-4.81-.17-5.45,0-.21.26-.28.49-.34,1-.26,5.25-.71,5.82,0h0c.36.45.15,2.15-.36,5.14-.09.49-.15.88-.17,1.06a.6.6,0,0,1-.46.5A2.64,2.64,0,0,1,97.62,216.56Zm-4-6.31c-.21,1.37-.31,4.58,0,4.92s3.69,1.16,4.65.82c.07,0,.13-.07.13-.09,0-.19.09-.59.18-1.1.2-1.19.75-4.36.46-4.75S94.33,209.93,93.6,210.25Z" transform="translate(52.31)"/><path d="M93.09,214.2s-2.46,3.52-.7,6.29c0,0,12.82.6,16.69,0,0,0,.1-4.73-3.21-5.13a62,62,0,0,0-7.06-.35S95.5,216.82,93.09,214.2Z" transform="translate(52.31)"/><path class="cls-9" d="M70.13,209.92c-.49-.62-5.06-.12-5.11.2-.16,1-.42,4.73.09,5.23s4.5,2,4.6,1.09S70.61,210.51,70.13,209.92Z" transform="translate(52.31)"/><path d="M69.15,217a10.14,10.14,0,0,1-4.21-1.45c-.66-.65-.27-4.81-.16-5.45,0-.2.23-.29.54-.37.85-.22,4.44-.65,5,.06h0c.34.42.27,2-.27,6,0,.33-.08.58-.09.72a.53.53,0,0,1-.38.45A1.12,1.12,0,0,1,69.15,217Zm-3.9-6.74c-.21,1.37-.32,4.59,0,4.93s3.37,1.55,4.13,1.29c.06,0,.06,0,.06,0s0-.4.1-.73c.46-3.44.59-5.33.37-5.62S65.89,209.94,65.25,210.24Z" transform="translate(52.31)"/><path d="M93.23,164.32c.61,7.54,0,22.75-.55,30.29,0,.51,0,18,0,18l7.09.68C103.59,201.8,111,176,111,164.51s-1-30.56-5.2-39.62c-4-8.62-19.81,3.28-21.66,5.39-.86,1,.76,9.7,3,15.48C89.71,152.46,92.91,160.27,93.23,164.32Z" transform="translate(52.31)"/><path d="M92.64,212.63l4.38.42c-.4-2.75,0-8.89.15-11.69A82.75,82.75,0,0,1,99.8,187c1.78-7.5,3.49-15.45,1.36-23.08-1.1-3.92-3.5-6.65-5.45-10.11A13.56,13.56,0,0,1,94,146.15c.11-1.46,1-3.31.51-4.77-.61-1.84-6.13-8.08-7.54-7.14-1.7,1.14-.84,5.58-1.53,7.64,2.6,6.7,7.52,18.39,7.84,22.44.61,7.54-.64,22.68-1,30.24A163.71,163.71,0,0,0,92.64,212.63Z" transform="translate(52.31)"/><path d="M64.48,212.63l6.29.68c3.28-10.86,12.06-29.41,13.35-40.8,2-17.69,4.42-36.63,4.53-41.29,0-.75,0-1.15,0-1.15-4.34-5.27-11.68-7.42-15-7.81-1.29-.15-2.23.1-2.64.78a47.48,47.48,0,0,0-3.17,6.2c-5.28,12.52-.84,20.09-.93,36.38,0,.94,0,1.9,0,2.86-.17,6.73,1.65,15-.29,22.06C62.86,204.33,64.48,212.63,64.48,212.63Z" transform="translate(52.31)"/><path d="M64.48,212.63l1.43.14a120,120,0,0,1,.45-12.58,69.88,69.88,0,0,1,4.25-16.68c3.21-8.78,5.37-17.46,4.75-26.91-.34-5.14-2-9.9-2.68-14.95-.46-3.25.22-6.38.74-9.54a30.15,30.15,0,0,0,.47-5.47c0-1.52-6-.3-6,2.2-5.27,12.53-.84,20.49-.93,36.78,0,.94,0,1.9,0,2.86a174.74,174.74,0,0,1-1.49,21.6C62.82,207.43,64.48,212.63,64.48,212.63Z" transform="translate(52.31)"/><path class="cls-9" d="M109.4,100.38l.25.25c.51.48,1.07,1,1.68,1.43l1.42,1c.3.19.61.38.93.55,3,1.76,13.66,5.52,16-.57,1.95-5,9.74-20.73,9.58-25.2-.06-1.48-3.63,1-3.63,1a10.33,10.33,0,0,0-1.7,1.77c-3.47,4-10,14.33-10.87,14-.61-.22-2.35-2.33-4.64-5.16l0,0c-.13-.18-.3-.35-.45-.53s-.47-.59-.73-.9c0,0,0,0-.06-.07-4.65-5.65-10.51-11.1-14.8-12.29S104.65,91,104.65,91a17.64,17.64,0,0,0,.8,3.73C106.12,96.82,107.16,98.23,109.4,100.38Z" transform="translate(52.31)"/><path d="M123.74,106.62a23.55,23.55,0,0,1-10.18-2.79c-.26-.14-.52-.3-.77-.46l-.17-.1c-.5-.35-1-.68-1.43-1a21,21,0,0,1-1.71-1.46l-.25-.24c-2.38-2.28-3.36-3.69-4-5.79a17.38,17.38,0,0,1-.8-3.75c-.59-1.5-5.14-13.21-3.26-15.3a1.17,1.17,0,0,1,1.28-.28c3.85,1.07,9.43,5.7,14.93,12.38l0,0v0c.27.31.51.61.74.9l.15.18c.11.12.22.24.31.36,1.85,2.28,3.9,4.81,4.53,5.11.57-.24,3-3.66,5-6.41s4.12-5.79,5.66-7.55c1.35-1.56,1.65-1.78,1.79-1.84.53-.36,2.75-1.84,3.61-1.42a.66.66,0,0,1,.36.62c.12,3.33-4,12.62-7,19.41-1.09,2.44-2,4.56-2.55,5.89a5.09,5.09,0,0,1-3.2,3A9.26,9.26,0,0,1,123.74,106.62Zm-14.17-6.41.25.24c.48.46,1,.92,1.66,1.42l1.41,1,.16.1c.24.15.49.3.75.44,2.55,1.48,8.9,3.67,12.78,2.31a4.62,4.62,0,0,0,2.9-2.76C130,101.61,131,99.49,132,97c3-6.74,7.12-16,7-19.19,0-.16-.06-.19-.09-.2-.45-.22-2.11.69-3.15,1.41l-.09,0a15.46,15.46,0,0,0-1.57,1.69c-1.52,1.74-3.61,4.68-5.63,7.51-3.88,5.45-4.93,6.8-5.5,6.61s-2-1.85-4.75-5.24l-.05,0c-.08-.11-.18-.22-.28-.34l-.16-.18c-.24-.3-.47-.59-.73-.9l-.08-.09c-5.43-6.6-10.91-11.15-14.66-12.2-.47-.13-.67,0-.78.14-1.43,1.6,1.94,11.24,3.36,14.83l0,.07a17,17,0,0,0,.78,3.67c.63,2,1.58,3.37,3.89,5.59Z" transform="translate(52.31)"/><path class="cls-10" d="M110.93,103c-1.43-1.17-3.49-2.4-5.35-3.64-.71-.47-1.39-.94-2-1.4a10.57,10.57,0,0,1-2-1.93,2.89,2.89,0,0,1-.48-.89,44.6,44.6,0,0,1-.85-5.16c-.79-6.66-.82-15.8,2.34-15.22,5.39,1,11.2,7.34,16.12,12.3C119.47,92.62,117.36,99,110.93,103Z" transform="translate(52.31)"/><path d="M104.62,82.26V98.74A47.73,47.73,0,0,1,99.77,95c-1.46-1.43,2.46-12.75,2.46-12.75Z" transform="translate(52.31)"/><path class="cls-10" d="M64.91,128.4c.17,1.06,4,2.85,9.74,3.63a42.37,42.37,0,0,0,11,0c8.68-1.13,19.8-7.07,20.5-8.13.47-4.36-4.85-15.64-4.58-21.68A67.74,67.74,0,0,1,103,94c1.42-7.12,3.18-14.94,1-18.73-6-3-19.36-3.23-27,.2A8.07,8.07,0,0,0,74,77.58a5.08,5.08,0,0,0-.42.64,18.65,18.65,0,0,0-1.42,3.66,102.42,102.42,0,0,0-3.27,19.37C68.14,110.13,64.68,126.89,64.91,128.4Z" transform="translate(52.31)"/><path d="M74.29,101.85l7.73-.49s-1.48-9.14-2.18-11.66-4.66,2.49-4.66,2.49l-2-1.19Z" transform="translate(52.31)"/><path class="cls-9" d="M95.68,70.71l-.37,2.35s1.42,1.74.56,2.09c-2.93,1.21-5.69-2.23-5.69-2.23l1.09-5.19Z" transform="translate(52.31)"/><path d="M94.56,75.66c-2.46,0-4.47-2.46-4.57-2.58L89.92,73l1.19-5.66L96,70.59,95.57,73c.26.34,1,1.3.8,1.93a.7.7,0,0,1-.41.46A3.8,3.8,0,0,1,94.56,75.66Zm-4.11-2.8c.44.51,2.86,3.08,5.32,2.06a.16.16,0,0,0,.12-.12c.09-.34-.4-1.13-.77-1.58l-.07-.09.37-2.3-4-2.69Z" transform="translate(52.31)"/><path class="cls-9" d="M99.53,61.53a24.47,24.47,0,0,1,0,6.83c-.39,2.42-5.43,4.82-7.92.51s0-9,0-9Z" transform="translate(52.31)"/><path d="M95.37,71.5a4.54,4.54,0,0,1-4-2.51c-2.52-4.38-.05-9.22,0-9.27l.08-.17,8.29,1.78,0,.17a25.34,25.34,0,0,1,0,6.9c-.22,1.37-1.78,2.69-3.55,3A5,5,0,0,1,95.37,71.5ZM91.73,60.11c-.39.87-2,4.94.1,8.64a3.94,3.94,0,0,0,4.3,2.19,3.85,3.85,0,0,0,3.16-2.61,25.25,25.25,0,0,0,0-6.59Z" transform="translate(52.31)"/><path d="M89.6,63.3a2.94,2.94,0,0,1,1.21-2.64.67.67,0,0,1,.88.18h0c1,.22.65,1.42.59,2.12-.1,1.17.18,2.7-.5,3.74a1.48,1.48,0,0,1-2.07.48c-.87-.57-.5-1.42-.61-2.25a1.71,1.71,0,0,1,.16-1.29A1.73,1.73,0,0,1,89.6,63.3Z" transform="translate(52.31)"/><path d="M90.69,61.87c.36,2.6,2.69,1.35,4.36,1.07,1.14-.18,2.46,1.9,5.58.44,1.06-.5,2.1-2.43,1.33-3.73C100.24,56.75,90.08,57.46,90.69,61.87Z" transform="translate(52.31)"/><path d="M64.74,214.2s-2.46,3.52-.7,6.29c0,0,12.82.6,16.69,0,0,0,.1-4.73-3.22-5.13s-7.58-.58-7.58-.58A3.88,3.88,0,0,1,64.74,214.2Z" transform="translate(52.31)"/><path class="cls-9" d="M87.51,106c.84.58,1.69,1.14,2.57,1.68.35.24.7.44,1.06.66a49.62,49.62,0,0,0,9.23,4.51,9.36,9.36,0,0,0,3,.6c6.6-.2,12-12.72,13.1-16.85.36-1.41.52-2.27.52-2.27l-3.28-3.59s-8.77,12-9.85,11.71c-2.29-.57-12.78-8.64-13.06-11.9s-10.48.41-12.26,2.84S81.21,101.67,87.51,106Z" transform="translate(52.31)"/><path d="M103.26,113.67a10.13,10.13,0,0,1-3-.61A50.32,50.32,0,0,1,91,108.52l-.25-.14-.82-.52c-.87-.54-1.74-1.11-2.58-1.69-5-3.43-8.89-7.89-9.4-10.86a2.67,2.67,0,0,1,.37-2.09c1.51-2.07,8.63-4.84,11.48-4A1.46,1.46,0,0,1,91,90.5c.28,3.2,10.76,11.16,12.88,11.69.73-.08,5.46-6,9.59-11.62l.18-.24,3.57,3.89,0,.12s-.18.89-.53,2.29c-1.11,4.3-6.56,16.83-13.33,17ZM88.64,89.54c-3.06,0-8.69,2.3-9.9,4a2.19,2.19,0,0,0-.29,1.72c.49,2.84,4.27,7.18,9.2,10.54h0c.83.57,1.69,1.14,2.56,1.68L91,108l.24.14a49.52,49.52,0,0,0,9.18,4.49,8.85,8.85,0,0,0,2.92.58c6.55-.19,11.93-13,12.86-16.66.28-1.09.44-1.85.5-2.14l-3-3.27c-2.76,3.76-8.82,11.84-9.93,11.56-2.23-.56-13-8.67-13.25-12.12,0-.44-.32-.73-.87-.88A4,4,0,0,0,88.64,89.54Z" transform="translate(52.31)"/><path class="cls-10" d="M93,92.1c-.47-1.34-3.58-9.82-8.9-13.3-2.42-1.58-9.07-3.61-11.28-.71-3.55,4.65.86,15,4.39,22.35C83.14,100.47,88.78,97.22,93,92.1Z" transform="translate(52.31)"/><path class="cls-9" d="M118.09,85.2a7.81,7.81,0,0,0-2.19,2c-.11.07-.19.16-.29.23,0-.12-.06-.25-.11-.37-.34-.73-2-2.38-2.84-2s.34,2.53.46,3.29a7,7,0,0,1,0,2.69,12.15,12.15,0,0,1-1.27,2.28c-.32.53-1,1.32-.76,2a3.28,3.28,0,0,0,1.43,1.47,2.05,2.05,0,0,0,1.86-.18,6.51,6.51,0,0,0,1.42-.91,5.37,5.37,0,0,0,2.13-2.15,3.15,3.15,0,0,0,.22-.63,5.24,5.24,0,0,0,2.12-1.9.63.63,0,0,0-.34-.94,1.36,1.36,0,0,0,.12-.59.91.91,0,0,0-.3-.58,1.92,1.92,0,0,0,0-.62,1.7,1.7,0,0,0-1.08-1.49,11.65,11.65,0,0,1,2.94-.89.68.68,0,0,0,.46-1.06C121.29,83.54,119.14,84.59,118.09,85.2Z" transform="translate(52.31)"/><path d="M113.17,97.28a1.67,1.67,0,0,1-.76-.19,3.51,3.51,0,0,1-1.54-1.62,2.43,2.43,0,0,1,.61-1.92l.17-.28.35-.55a7.6,7.6,0,0,0,.9-1.68,6.9,6.9,0,0,0,0-2.57,6.16,6.16,0,0,0-.29-.86c-.4-1-.89-2.25,0-2.69a1.17,1.17,0,0,1,.92,0A4.87,4.87,0,0,1,115.72,87l0,.05A8,8,0,0,1,118,85h0c2.74-1.6,3.89-1,4.37-.19a1,1,0,0,1,.06.93.85.85,0,0,1-.69.5,11,11,0,0,0-2.42.68,2,2,0,0,1,.76,1.44,1.81,1.81,0,0,1,0,.56,1.12,1.12,0,0,1,.28.64,1.09,1.09,0,0,1-.06.5.86.86,0,0,1,.34.46.81.81,0,0,1-.1.72,5.4,5.4,0,0,1-2.11,1.94,3,3,0,0,1-.21.56A5.73,5.73,0,0,1,116,96a6.66,6.66,0,0,1-1.45.92A3.23,3.23,0,0,1,113.17,97.28Zm-.18-12a.48.48,0,0,0-.22,0c-.45.23,0,1.34.27,2.07a5.23,5.23,0,0,1,.33,1,7.46,7.46,0,0,1,0,2.79,8.44,8.44,0,0,1-1,1.81c-.11.17-.23.35-.34.54s-.12.18-.18.29c-.31.47-.69,1.05-.55,1.51a3.07,3.07,0,0,0,1.3,1.33,1.86,1.86,0,0,0,1.65-.2,6.54,6.54,0,0,0,1.37-.86,5.42,5.42,0,0,0,2.06-2.08,3.24,3.24,0,0,0,.21-.59l0-.1.1,0a5.09,5.09,0,0,0,2-1.81.39.39,0,0,0,.05-.31.44.44,0,0,0-.28-.27l-.24-.1.11-.23a1,1,0,0,0,.1-.47.62.62,0,0,0-.22-.42l-.1-.1,0-.13a1.74,1.74,0,0,0,0-.54,1.45,1.45,0,0,0-.91-1.29l-.57-.21.56-.24a11.73,11.73,0,0,1,3-.91.4.4,0,0,0,.32-.23.48.48,0,0,0,0-.46c-.7-1.16-2.62-.28-3.7.36a7.16,7.16,0,0,0-2.12,2l-.06.05-.15.12-.12.11-.28.21-.11-.33a.83.83,0,0,1,0-.15,1.07,1.07,0,0,0-.07-.19,4.52,4.52,0,0,0-2-1.82A1,1,0,0,0,113,85.32Z" transform="translate(52.31)"/><path class="cls-9" d="M109.75,96.32l3.45-4.65,4,2.08-1,2.83S112.75,100.63,109.75,96.32Z" transform="translate(52.31)"/><path class="cls-5" d="M93.29,66.24a2.76,2.76,0,0,0-2.66-.74l-.45-1.75,3-1.28Z" transform="translate(52.31)"/><path d="M94.16,62.11l7.17.64A2.15,2.15,0,0,1,101,67l-7.18-.65a1.19,1.19,0,0,1-1.08-1.3l.17-1.89A1.2,1.2,0,0,1,94.16,62.11Z" transform="translate(52.31)"/><rect class="cls-5" x="96.8" y="60.35" width="4.3" height="8.71" rx="1.83" transform="translate(77.96 157.46) rotate(-84.87)"/><path class="cls-10" d="M97.3,62.77l3.89.35a.3.3,0,0,1,.26.31.29.29,0,0,1-.31.26l-3.89-.35A.28.28,0,0,1,97,63,.3.3,0,0,1,97.3,62.77Z" transform="translate(52.31)"/><path d="M89.54,63.53l0-.39a2.56,2.56,0,0,1,1.09-.29c.85.06,1.46,1.25,1.37,2.68s-.86,2.53-1.71,2.47c-.07,0-1.21-.46-1.21-.46l.07-.63A3.74,3.74,0,0,1,89,65.33,3.65,3.65,0,0,1,89.54,63.53Z" transform="translate(52.31)"/><path class="cls-5" d="M89.58,63.14c.85.06,1.47,1.09,1.39,2.32s-.83,2.17-1.68,2.11-1.47-1.09-1.39-2.31S88.74,63.09,89.58,63.14Z" transform="translate(52.31)"/><path class="cls-10" d="M89.29,64.16c.36,0,.63.47.59,1s-.35.92-.71.89-.62-.46-.59-1S88.93,64.14,89.29,64.16Z" transform="translate(52.31)"/><path class="cls-10" d="M88.82,64.07l1,.07a.27.27,0,0,1,0,.54l-1-.07a.27.27,0,0,1-.25-.29A.27.27,0,0,1,88.82,64.07Z" transform="translate(52.31)"/><path class="cls-5" d="M37.55,175.24a5.13,5.13,0,0,0,2.92-1,24.85,24.85,0,0,1-.43,5.38c-1.15,1.85-4.34,5.26-4.13,5.25a10.39,10.39,0,0,0,2.56-.6,18.66,18.66,0,0,1-1.95,3.19c-1.54,2.06-3.75,3.71-4.59,6.23a.13.13,0,0,1-.09.11.19.19,0,0,1-.31.14c-4.16-4-4.9-10-5.52-15.38,0-.26-.05-.51-.08-.77a16.71,16.71,0,0,0,3.84,3c.2.11-2.61-4.39-4-6.46a12.19,12.19,0,0,1,.72-3.84,32,32,0,0,1,4.26-7.3l.21-.28a12.28,12.28,0,0,0,1.79,3.25,39.58,39.58,0,0,0-.56-4.87c.41-.5.82-1,1.24-1.5.55-.65,1.24-1.76,2.24-1.61s3.17,4.09,3.45,5.23c.12.48.23,1,.32,1.47,0,.21.09.43.13.65a58.72,58.72,0,0,1,.74,6l-.21.31C39.31,173,37.35,175.24,37.55,175.24Z" transform="translate(52.31)"/><path d="M33.75,173.24c2.06-.31,3.63-1.6,5.14-2.94.22-.2-.06-.58-.29-.38-1.41,1.25-2.88,2.51-4.8,2.83.44-3.05,1-6.1,1.55-9.14.06-.29-.41-.37-.47-.07q-1.18,6-1.94,12.13a20,20,0,0,1-2.72-5.47c-.1-.29-.53-.11-.44.18a20.5,20.5,0,0,0,2.92,5.77.19.19,0,0,0,.17.09q-.16,1.33-.3,2.67a12.64,12.64,0,0,1-2-3.53.24.24,0,0,0-.44.17,13.19,13.19,0,0,0,2.29,3.92l.1.07q-.45,4.4-.68,8.8a.19.19,0,0,0,0,.1c-.06,1.08-.1,2.16-.11,3.23,0,.7-.05,1.4-.06,2.11a.18.18,0,0,0,.07.15,101.94,101.94,0,0,0,2.5,19.67l.45-.1a97.66,97.66,0,0,1-2.48-22.27c0-.79.06-1.58.1-2.37a.24.24,0,0,0,.21,0,7.9,7.9,0,0,0,2.15-2.2c.16-.25-.2-.55-.37-.3a7.4,7.4,0,0,1-2,2c.26-5.06.75-10.12,1.45-15.14Z" transform="translate(52.31)"/><path class="cls-5" d="M17.42,186.86a5.08,5.08,0,0,1-2.77.24,18.16,18.16,0,0,0,1.93,3.9c1.52,1,5.22,2.53,5,2.58a10,10,0,0,1-2.35.39,15,15,0,0,0,2.59,1.76c1.91,1,4.27,1.56,5.71,3.18a.18.18,0,0,0,.12.05.17.17,0,0,0,.29,0c2.39-4.34,1.28-9.1.23-13.37-.05-.2-.1-.4-.16-.6a15,15,0,0,1-2.39,3.51c-.14.15.94-4.15,1.51-6.16a8.72,8.72,0,0,0-1.73-2.65,25,25,0,0,0-5.75-4.09l-.25-.14a9.68,9.68,0,0,1-.58,3,28.37,28.37,0,0,1-.94-3.84c-.49-.24-1-.49-1.49-.72-.66-.31-1.56-.92-2.37-.48s-1.5,4.13-1.41,5.07c0,.4.09.81.15,1.21,0,.18.05.35.08.53A44.69,44.69,0,0,0,14,185a2.61,2.61,0,0,0,.28.17C15.27,185.76,17.59,186.8,17.42,186.86Z" transform="translate(52.31)"/><path d="M31.42,214.58A72.58,72.58,0,0,0,27.83,199a.12.12,0,0,0,0-.14q-.32-.78-.66-1.56c-.32-.8-.66-1.6-1-2.39a.1.1,0,0,0,0-.06c-1-2.16-2-4.29-3.14-6.4a.17.17,0,0,0,.06-.08,10.21,10.21,0,0,0,.81-3.69c0-.25-.41-.24-.42,0a9.79,9.79,0,0,1-.69,3.31c-.34-.63-.68-1.27-1-1.9a.2.2,0,0,0,.12-.13,15.82,15.82,0,0,0,.8-5.29c0-.25-.43-.24-.42,0a15.66,15.66,0,0,1-.73,5q-2.41-4.33-5.18-8.47c-.13-.21-.51,0-.37.21q2.09,3.12,4,6.35a9.35,9.35,0,0,1-4.9-.55.2.2,0,0,0-.13.38,9.72,9.72,0,0,0,5.22.53h0A122,122,0,0,1,25.71,195a6.56,6.56,0,0,1-2.26-.89.21.21,0,0,0-.23.34,6.61,6.61,0,0,0,2.47.94.21.21,0,0,0,.18,0c.27.58.52,1.16.78,1.75A70.22,70.22,0,0,1,31,214.65Z" transform="translate(52.31)"/><path d="M16.45,181.16a10.56,10.56,0,0,1-3.66-1.43c0,.18.05.35.08.53a11.32,11.32,0,0,0,3.45,1.28C16.58,181.59,16.71,181.21,16.45,181.16Z" transform="translate(52.31)"/><path class="cls-5" d="M56.17,184.69c0,1.7-4,2.52-5.19,3-2.76,1-5.44,2-7.48,4.26A90.18,90.18,0,0,0,37,200.44a.51.51,0,0,1-.49.21,9.24,9.24,0,0,1-.57-1.24c-.71-1.76-1.81-5-1.54-6.82a11.37,11.37,0,0,1,1.25-3.65,3.25,3.25,0,0,0,.79,1.54,31.42,31.42,0,0,0,.45-3.4c.18-.23.36-.44.56-.65a12.31,12.31,0,0,1,1.45-1.34l.33-.25a15.13,15.13,0,0,1,1.32-.88l.37-.21a13.48,13.48,0,0,1,1.32-.65,8.92,8.92,0,0,0,.72,2.41,15.42,15.42,0,0,0,.29-2.82c.43-.16.86-.29,1.3-.42a7.21,7.21,0,0,0,.54,1.56,8.49,8.49,0,0,0,.86-1.9,17.05,17.05,0,0,1,4.19-.33l.36,0a10.18,10.18,0,0,1,1.11.12c1.35.21,4.53,1.07,4.59,2.89A.09.09,0,0,1,56.17,184.69Z" transform="translate(52.31)"/><path d="M41.09,189.14c-3.33,3.29-4.36,9.32-4.57,11a7.64,7.64,0,0,0-.69,2.23,48.8,48.8,0,0,0-.21,8.29c0,.9.06,1.8.11,2.69l.46-.08c0-.57-.06-1.14-.08-1.7-.08-2.45-.08-4.89,0-7.34a10.57,10.57,0,0,1,.66-3.7.58.58,0,0,0,.15-.13,90.18,90.18,0,0,1,6.54-8.51c2-2.22,4.72-3.24,7.48-4.26,1.24-.46,5.16-1.28,5.19-3C50.94,185.3,44.92,185.36,41.09,189.14Z" transform="translate(52.31)"/><path d="M41,187.53a10.91,10.91,0,0,1-.07-3.78l-.37.21a11.19,11.19,0,0,0,.1,3.65A.17.17,0,0,0,41,187.53Z" transform="translate(52.31)"/><path d="M39.68,188.21a14.29,14.29,0,0,1-.49-3.37l-.33.25a14.57,14.57,0,0,0,.48,3.2A.18.18,0,0,0,39.68,188.21Z" transform="translate(52.31)"/><path class="cls-9" d="M25.93,220.49a12,12,0,0,1-4.62-7.14,12.36,12.36,0,0,1-.26-2.51,12.26,12.26,0,0,1,.88-4.52H44.11a12.46,12.46,0,0,1,.6,1.91,12,12,0,0,1,.28,2.61,11.69,11.69,0,0,1-.26,2.51,12,12,0,0,1-4.62,7.14Z" transform="translate(52.31)"/><path d="M43.94,206.57a11.25,11.25,0,0,1,.52,1.71,11.61,11.61,0,0,1,.28,2.56,11.61,11.61,0,0,1-4.71,9.4H26a11.7,11.7,0,0,1-4.46-6.94,11.88,11.88,0,0,1-.26-2.46,12.24,12.24,0,0,1,.28-2.56,12,12,0,0,1,.52-1.71Zm.34-.5H21.77a11.45,11.45,0,0,0-.68,2.1,12.34,12.34,0,0,0-.29,2.67,12,12,0,0,0,.27,2.56,12.23,12.23,0,0,0,4.78,7.34H40.19A12.23,12.23,0,0,0,45,213.4a12,12,0,0,0,.27-2.56,12.21,12.21,0,0,0-1-4.77Z" transform="translate(52.31)"/><path d="M45.24,210.84A12,12,0,0,1,45,213.4a12.23,12.23,0,0,1-4.78,7.34H25.85c18.74.93,18.43-14.67,18.43-14.67a12.21,12.21,0,0,1,1,4.77Z" transform="translate(52.31)"/><path class="cls-5" d="M54.81,39.1S8.07,41.06,10,58.19V93.43s.73-15.66,44.78-18.11Z" transform="translate(52.31)"/><polygon class="cls-11" points="73.71 53.93 67.28 68.68 73.74 63.26 73.71 53.93"/><polygon class="cls-11" points="73.77 75.97 67.28 69.21 73.76 70.48 73.77 75.97"/><polygon class="cls-11" points="73.71 53.93 80.22 65.66 73.74 63.26 73.71 53.93"/><polygon class="cls-11" points="73.77 75.97 80.22 66.19 73.76 70.48 73.77 75.97"/><polygon points="67.28 68.68 73.74 63.26 80.22 65.66 73.76 69.84 67.28 68.68"/><path class="cls-11" d="M47.62,58.81a3.17,3.17,0,0,0-2.18-1,4.94,4.94,0,0,0,1.62-1.69,4.23,4.23,0,0,0,.6-2.12,3,3,0,0,0-.46-1.73A3,3,0,0,0,46,51.2a3.56,3.56,0,0,0-1.62-.33c-.22,0-.47,0-.75.05l0-3.14L42,48.11l0,3.08-.3.06-2,.37,0-3.08L38,48.87,38,52l-2.13.41-.41.08-1.92.37V54l1.92-.37-.11,13.29-1.92.36v1.17l1.92-.37.4-.08,2.14-.41,0,2.85,1.72-.33,0-2.85,1-.2,1.22-.25,0,2.86,1.71-.33,0-2.9c.38-.09.67-.16.86-.22a5.5,5.5,0,0,0,2.11-1.14,5.44,5.44,0,0,0,1.36-1.87A5.26,5.26,0,0,0,48.37,61,3.19,3.19,0,0,0,47.62,58.81ZM43,53.62a1.48,1.48,0,0,1,1.18.33A1.44,1.44,0,0,1,44.6,55a2,2,0,0,1-.47,1.31,2.72,2.72,0,0,1-1.28.81c-.3.09-1.06.25-2.28.49L38.5,58l0-3.61,1.8-.34C41.82,53.8,42.72,53.65,43,53.62Zm1.63,9.28a2.46,2.46,0,0,1-1.14.84,13.74,13.74,0,0,1-2.16.51l-2.91.56,0-4.17L41,60.15a10.72,10.72,0,0,1,2.79-.31,1.52,1.52,0,0,1,1,.52,1.81,1.81,0,0,1,.33,1.13A2.27,2.27,0,0,1,44.66,62.9Z" transform="translate(52.31)"/><path class="cls-9" d="M19.69,102.14a17.14,17.14,0,0,1-9.47-8.76V57.67a13.91,13.91,0,0,0,9.47,7.94Z" transform="translate(52.31)"/><path d="M10.47,58.76a14.15,14.15,0,0,0,9,7v36a16.88,16.88,0,0,1-9-8.46V58.76ZM10,56.24V93.43a17.14,17.14,0,0,0,10,9.06V65.41a13.39,13.39,0,0,1-10-9.17Z" transform="translate(52.31)"/><g class="cls-12"><path class="cls-5" d="M199,62s3-17.06-33.64-23.6V102l29,2.1Z" transform="translate(52.31)"/><polygon class="cls-10" points="241.12 68.67 239.63 68.66 239.62 65.75 239.08 65.75 239.09 68.65 237.61 68.64 237.62 70.45 239.1 70.46 239.13 75.84 239.67 75.85 239.64 70.46 241.13 70.47 241.12 68.67"/><polygon class="cls-10" points="226.35 62.89 224.87 62.88 224.85 59.4 224.31 59.4 224.33 62.87 222.85 62.87 222.86 65.29 224.35 65.3 224.36 68.37 224.9 68.37 224.88 65.3 226.37 65.31 226.35 62.89"/><polygon class="cls-10" points="231.26 60.17 229.78 60.16 229.78 59.11 229.24 59.11 229.24 60.16 227.76 60.15 227.83 74.23 229.31 74.24 229.33 77.77 229.87 77.77 229.85 74.24 231.34 74.25 231.26 60.17"/><polygon points="236.21 65.05 234.73 65.04 234.72 62.86 234.18 62.86 234.19 65.04 232.71 65.03 232.75 72.46 234.23 72.47 234.25 77.8 234.79 77.8 234.77 72.47 236.25 72.48 236.21 65.05"/><path class="cls-9" d="M106.9,84.2c73.81-.45,89.27-17.49,91.83-21.35V126.2c-13.06,21.64-87.11,24.22-91.83,24.36Z" transform="translate(52.31)"/><path d="M198.5,63.52v62.62c-12.91,21.2-84.91,24-91.38,24.19V84.42c42.39-.28,65.15-6.23,76.79-11.18,9.16-3.9,13.07-7.76,14.59-9.72ZM199,62s-9.81,21.49-92.28,22v66.81s78.73-1.87,92.28-24.53V62Z" transform="translate(52.31)"/><polygon points="165.43 90.58 163.95 90.58 163.94 89.55 163.41 89.55 163.41 90.57 161.93 90.56 161.95 94.98 163.43 94.99 163.45 99.03 163.99 99.03 163.97 94.99 165.46 95 165.43 90.58"/><polygon points="170.37 93.01 168.88 93 168.88 90.98 168.34 90.98 168.35 93 166.86 92.99 166.92 104.94 168.41 104.94 168.43 109.33 168.97 109.33 168.95 104.95 170.43 104.96 170.37 93.01"/><polygon class="cls-10" points="175.35 104.33 173.87 104.32 173.84 99.37 173.3 99.37 173.33 104.32 171.84 104.31 171.88 110.69 173.36 110.7 173.39 116.57 173.93 116.57 173.9 110.7 175.38 110.71 175.35 104.33"/><polygon points="180.29 108.26 178.81 108.25 178.8 105.94 178.26 105.94 178.27 108.25 176.79 108.24 176.82 115.01 178.3 115.02 178.33 120.89 178.87 120.89 178.84 115.03 180.32 115.03 180.29 108.26"/><polygon points="185.22 110.46 183.74 110.45 183.73 107.38 183.19 107.38 183.2 110.45 181.72 110.44 181.74 115.04 183.23 115.05 183.26 122.4 183.8 122.4 183.77 115.06 185.25 115.06 185.22 110.46"/><polygon class="cls-10" points="190.12 103.94 188.63 103.94 188.62 101.43 188.08 101.43 188.09 103.93 186.61 103.92 186.68 117.66 188.16 117.66 188.19 122.83 188.73 122.84 188.7 117.67 190.18 117.68 190.12 103.94"/><polygon class="cls-10" points="195.04 103.92 193.56 103.91 193.53 98.42 192.99 98.41 193.02 103.91 191.53 103.9 191.56 108.98 193.04 108.99 193.06 111.66 193.59 111.66 193.58 109 195.06 109.01 195.04 103.92"/><polygon class="cls-10" points="199.98 108.58 198.5 108.57 198.48 104.37 197.94 104.37 197.96 108.57 196.48 108.56 196.51 114.5 197.99 114.5 198.01 117.57 198.55 117.58 198.53 114.51 200.01 114.52 199.98 108.58"/><polygon points="204.93 113.7 203.45 113.69 203.42 107.63 202.88 107.63 202.91 113.69 201.43 113.68 201.5 127.3 202.98 127.31 203.02 135.68 203.56 135.68 203.52 127.31 205 127.32 204.93 113.7"/><polygon class="cls-10" points="209.89 120.67 208.41 120.66 208.39 117.19 207.85 117.19 207.87 120.66 206.39 120.65 206.47 136.13 207.95 136.14 207.97 140.25 208.51 140.26 208.49 136.14 209.97 136.15 209.89 120.67"/><polygon points="214.81 118.97 213.32 118.96 213.31 115.49 212.77 115.49 212.78 118.96 211.3 118.95 211.34 125.82 212.82 125.83 212.82 126.77 213.36 126.77 213.36 125.83 214.84 125.84 214.81 118.97"/><polygon points="219.67 107.83 218.19 107.83 218.18 105 217.63 105 217.65 107.82 216.17 107.81 216.23 120.47 217.71 120.48 217.73 124.03 218.27 124.03 218.25 120.48 219.74 120.49 219.67 107.83"/><polygon points="224.59 106.55 223.1 106.54 223.1 105.49 222.56 105.48 222.57 106.53 221.08 106.52 221.11 112.34 222.6 112.35 222.61 115.74 223.15 115.74 223.13 112.35 224.62 112.36 224.59 106.55"/><polygon class="cls-10" points="229.47 97.99 227.99 97.98 227.97 94.92 227.43 94.91 227.45 97.98 225.96 97.97 226.01 107.72 227.5 107.73 227.51 110.96 228.05 110.96 228.03 107.73 229.52 107.74 229.47 97.99"/><polygon class="cls-10" points="234.35 89.88 232.87 89.87 232.85 87.53 232.32 87.53 232.33 89.87 230.84 89.86 230.89 99.57 232.38 99.58 232.42 108.22 232.96 108.22 232.92 99.58 234.4 99.59 234.35 89.88"/><polygon points="239.23 82.06 237.75 82.06 237.74 79.79 237.2 79.79 237.21 82.05 235.73 82.04 235.81 98.88 237.3 98.89 237.32 103.06 237.86 103.06 237.84 98.89 239.32 98.9 239.23 82.06"/><polygon points="244.17 85.44 242.69 85.43 242.67 81.96 242.13 81.96 242.15 85.43 240.67 85.42 240.69 89.33 242.17 89.33 242.19 92.4 242.72 92.41 242.71 89.34 244.19 89.35 244.17 85.44"/><polygon class="cls-10" points="249.11 87.85 247.63 87.84 247.61 84.36 247.07 84.36 247.09 87.83 245.6 87.83 245.65 96.63 247.13 96.64 247.14 98.33 247.68 98.34 247.67 96.64 249.15 96.65 249.11 87.85"/></g><path class="cls-9" d="M92.13,41A1.18,1.18,0,0,1,91,39.85V1.74A1.55,1.55,0,0,1,92.51.19h52.31a1.54,1.54,0,0,1,1.55,1.55V39.85A1.17,1.17,0,0,1,145.2,41Z" transform="translate(52.31)"/><path d="M144.82.37a1.38,1.38,0,0,1,1.37,1.37V39.85a1,1,0,0,1-1,1H92.13a1,1,0,0,1-1-1V1.74A1.37,1.37,0,0,1,92.51.37Zm0-.37H92.51a1.74,1.74,0,0,0-1.74,1.74V39.85a1.36,1.36,0,0,0,1.36,1.36H145.2a1.36,1.36,0,0,0,1.36-1.36V1.74A1.74,1.74,0,0,0,144.82,0Z" transform="translate(52.31)"/><path d="M146.56,6H90.76V1.74A1.74,1.74,0,0,1,92.51,0h52.31a1.74,1.74,0,0,1,1.74,1.74Z" transform="translate(52.31)"/><path class="cls-5" d="M100.36,3a.92.92,0,1,1,.92.92A.92.92,0,0,1,100.36,3Z" transform="translate(52.31)"/><path class="cls-10" d="M96.82,3a.92.92,0,1,1,.92.92A.92.92,0,0,1,96.82,3Z" transform="translate(52.31)"/><path class="cls-9" d="M94.19,3.84A.84.84,0,1,1,95,3,.85.85,0,0,1,94.19,3.84Z" transform="translate(52.31)"/><path d="M94.19,2.25a.75.75,0,0,1,0,1.5.75.75,0,0,1,0-1.5Zm0-.17a.92.92,0,1,0,.92.92.92.92,0,0,0-.92-.92Z" transform="translate(52.31)"/><polygon class="cls-9" points="195.59 3.31 194.93 3.97 194.6 3.63 195.25 2.98 194.6 2.33 194.93 1.99 195.59 2.64 196.24 1.99 196.57 2.33 195.92 2.98 196.57 3.63 196.24 3.97 195.59 3.31"/><path d="M142.62,2.11l.54.53.12.12.12-.12.53-.53.22.22-.54.53-.12.12.12.12.54.53-.22.22-.53-.54-.12-.11-.12.11-.54.54-.21-.22.53-.53.12-.12-.12-.12-.53-.53.21-.22Zm1.31-.24-.65.65-.66-.65-.45.46.65.65-.65.65.45.45.66-.65.65.65.45-.45L143.73,3l.65-.65-.45-.46Z" transform="translate(52.31)"/><path d="M110,14V14L104.13,14l3-5,.27.14A5.61,5.61,0,0,1,110,14Z" transform="translate(52.31)"/><path class="cls-10" d="M95.54,15.41a2.81,2.81,0,0,0,0,.29,5.4,5.4,0,0,0,.14,1.06,5.88,5.88,0,0,0,.66,1.62c.11.18.22.35.34.51l0,.06a5.21,5.21,0,0,0,3.56,2,8.42,8.42,0,0,0,2.08,0l.12,0a5.21,5.21,0,0,0,4.38-4.39.59.59,0,0,1,0-.13,5.88,5.88,0,0,0,.07-.71,2.26,2.26,0,0,0,0-.26l-5.08-.05h-.45l-.65-4.34,0-.12v0l0-.34-.1-.68-.37.08a5.56,5.56,0,0,0-4.67,4.76A5.24,5.24,0,0,0,95.54,15.41Z" transform="translate(52.31)"/><path class="cls-5" d="M102.12,14.68l-.87-6h0l.37-.07a5.52,5.52,0,0,1,3.66.74Z" transform="translate(52.31)"/><rect x="164.4" y="9.96" width="5.05" height="0.49"/><rect x="164.4" y="11.44" width="9.12" height="0.49"/><rect x="164.4" y="12.92" width="8.47" height="0.49"/><polygon points="169.97 10.45 171.53 10.45 171.53 9.96 169.98 9.96 169.97 10.45"/><rect x="164.4" y="14.3" width="5.05" height="0.49"/><rect x="164.4" y="15.78" width="9.12" height="0.49"/><rect x="164.4" y="17.26" width="8.47" height="0.49"/><polygon points="169.97 14.8 171.53 14.8 171.53 14.3 169.98 14.3 169.97 14.8"/><rect class="cls-5" x="183.23" y="17.93" width="3.24" height="2.98"/><rect class="cls-10" x="178.57" y="19.07" width="3.24" height="1.84"/><rect x="187.67" y="16.04" width="3.24" height="4.87"/><rect class="cls-10" x="192.11" y="14.19" width="3.24" height="6.72"/><path class="cls-10" d="M125.91,17.86a.17.17,0,0,1-.15,0,.2.2,0,0,1-.05-.3L128,14.6a.27.27,0,0,1,.28-.08l2.7,1.05,2.12-3.43a.23.23,0,0,1,.15-.1.21.21,0,0,1,.19,0L136.09,14l1.58-3.5a.2.2,0,0,1,.13-.12.25.25,0,0,1,.19,0l2.49,1.14L142.17,9a.25.25,0,0,1,.32-.07.2.2,0,0,1,.07.29l-1.79,2.73a.25.25,0,0,1-.31.09L138,10.87l-1.6,3.54a.22.22,0,0,1-.15.13.24.24,0,0,1-.2,0l-2.71-1.93L131.26,16a.26.26,0,0,1-.3.09l-2.71-1-2.17,2.78A.2.2,0,0,1,125.91,17.86Z" transform="translate(52.31)"/><path class="cls-10" d="M143,10.25a.24.24,0,0,1-.25-.16L142.42,9,141,9.39a.23.23,0,0,1-.29-.14.21.21,0,0,1,.14-.27l1.64-.52a.27.27,0,0,1,.18,0,.24.24,0,0,1,.12.14l.35,1.37a.23.23,0,0,1-.18.27Z" transform="translate(52.31)"/><path class="cls-5" d="M97.62,38.43h41s0-9.61-2.47-9.39-2.38,6.26-4.19,6.83-3.71-4.83-6.13-4.68c-1.5.1-3.89,3.85-5.62,3.89-2.13,0-3.61-2.61-5.57-2.37-1.09.13-3.18,3-9.85,2.46a7.86,7.86,0,0,0-5.44,1.47A7.73,7.73,0,0,0,97.62,38.43Z" transform="translate(52.31)"/><path class="cls-10" d="M122,28.42H98.12c-.44,0-.8-.26-.8-.59h0c0-.33.36-.59.8-.59H122c.45,0,.81.26.81.59h0C122.83,28.16,122.47,28.42,122,28.42Z" transform="translate(52.31)"/><path d="M114.45,30.23H98.12c-.44,0-.8-.27-.8-.6h0c0-.32.36-.59.8-.59h16.33c.45,0,.81.27.81.59h0C115.26,30,114.9,30.23,114.45,30.23Z" transform="translate(52.31)"/><path class="cls-10" d="M150,219.92a.74.74,0,0,0,.74.74l5.29,0,24.58.07a.74.74,0,0,0,.74-.74v-2.67a.74.74,0,0,0-.74-.74h-2.55l-22-.07h-5.35a.76.76,0,0,0-.27.05.73.73,0,0,0-.47.68Z" transform="translate(52.31)"/><path d="M150.72,220.79a.87.87,0,0,1-.87-.87v-2.68a.85.85,0,0,1,.55-.8.87.87,0,0,1,.32-.06l29.88.09a.87.87,0,0,1,.86.87V220a.87.87,0,0,1-.87.87Zm-.21-4.11a.61.61,0,0,0-.39.56v2.68a.61.61,0,0,0,.61.61l29.87.09a.61.61,0,0,0,.61-.61v-2.67a.61.61,0,0,0-.61-.61l-29.87-.09A.54.54,0,0,0,150.51,216.68Z" transform="translate(52.31)"/><path class="cls-10" d="M147.16,215.81a.74.74,0,0,0,.73.74h2.57l5.52,0,21.79.07a.67.67,0,0,0,.28-.06.73.73,0,0,0,.46-.68v-2.68a.73.73,0,0,0-.73-.74l-19.85-.06-10,0a.74.74,0,0,0-.74.74Z" transform="translate(52.31)"/><path d="M147.89,216.68a.87.87,0,0,1-.86-.87v-2.67a.9.9,0,0,1,.25-.62.92.92,0,0,1,.62-.25l29.87.09a.83.83,0,0,1,.61.26.85.85,0,0,1,.26.61v2.68a.86.86,0,0,1-.54.8.75.75,0,0,1-.33.07Zm-.41-4a.58.58,0,0,0-.18.43v2.67a.6.6,0,0,0,.6.61l29.88.1a.63.63,0,0,0,.61-.61v-2.68a.63.63,0,0,0-.17-.43.64.64,0,0,0-.43-.18l-29.87-.09h0A.6.6,0,0,0,147.48,212.71Z" transform="translate(52.31)"/><path class="cls-10" d="M149.14,211.66a.72.72,0,0,0,.73.74l8.07,0h0l21.8.06a.74.74,0,0,0,.75-.73v-2.68a.72.72,0,0,0-.5-.7.85.85,0,0,0-.23,0l-17.66-.05-10.28,0h-1.93a.75.75,0,0,0-.75.74Z" transform="translate(52.31)"/><path d="M149.87,212.53a.86.86,0,0,1-.61-.25.82.82,0,0,1-.25-.62V209a.88.88,0,0,1,.88-.86l29.87.09a1,1,0,0,1,.28,0,.87.87,0,0,1,.59.82v2.68a.87.87,0,0,1-.88.86Zm-.6-3.54v2.67a.6.6,0,0,0,.6.61l8,0,0,0,.05,0,21.77.06a.62.62,0,0,0,.62-.6v-2.68a.58.58,0,0,0-.41-.57.46.46,0,0,0-.19,0l-29.87-.09A.62.62,0,0,0,149.27,209Z" transform="translate(52.31)"/><path class="cls-10" d="M150,195.14a.75.75,0,0,0,.74.75H156l24.58.08a.74.74,0,0,0,.74-.74v-2.67a.75.75,0,0,0-.74-.75h-2.55l-22-.07-5.35,0a.76.76,0,0,0-.27.05.74.74,0,0,0-.47.69Z" transform="translate(52.31)"/><path d="M150.72,196a.89.89,0,0,1-.87-.88v-2.67a.87.87,0,0,1,.87-.87l29.88.09a.88.88,0,0,1,.86.88v2.67a.87.87,0,0,1-.87.87Zm-.21-4.11a.59.59,0,0,0-.39.56v2.67a.61.61,0,0,0,.61.61l29.87.1a.61.61,0,0,0,.61-.61v-2.67a.62.62,0,0,0-.61-.62l-29.87-.09A.54.54,0,0,0,150.51,191.91Z" transform="translate(52.31)"/><path class="cls-10" d="M147.16,191a.74.74,0,0,0,.73.74h2.57l5.52,0,21.79.07a.87.87,0,0,0,.28-.05.75.75,0,0,0,.46-.69v-2.67a.72.72,0,0,0-.73-.74l-19.85-.06-10,0a.73.73,0,0,0-.74.73Z" transform="translate(52.31)"/><path d="M147.89,191.91A.87.87,0,0,1,147,191v-2.68a.86.86,0,0,1,.25-.61.88.88,0,0,1,.62-.25l29.87.09a.87.87,0,0,1,.87.87v2.68a.87.87,0,0,1-.54.8.92.92,0,0,1-.33.06Zm-.41-4a.6.6,0,0,0-.18.43V191a.61.61,0,0,0,.6.61l29.88.09a.59.59,0,0,0,.23,0,.62.62,0,0,0,.38-.57v-2.67a.61.61,0,0,0-.17-.43.6.6,0,0,0-.43-.18l-29.87-.09h0A.59.59,0,0,0,147.48,187.93Z" transform="translate(52.31)"/><path class="cls-10" d="M149.14,186.88a.74.74,0,0,0,.73.75l8.07,0h0l21.8.07a.75.75,0,0,0,.75-.74v-2.67a.71.71,0,0,0-.5-.7.59.59,0,0,0-.23,0l-17.66-.06-10.28,0h-1.93a.75.75,0,0,0-.75.74Z" transform="translate(52.31)"/><path d="M149.87,187.76a.87.87,0,0,1-.61-.26.81.81,0,0,1-.25-.62v-2.67a.89.89,0,0,1,.88-.87l29.87.09a1,1,0,0,1,.28,0,.89.89,0,0,1,.59.83V187a.88.88,0,0,1-.88.87Zm-.6-3.55v2.68a.62.62,0,0,0,.6.61l8,0,0,0,.05,0,21.77.07a.62.62,0,0,0,.62-.61v-2.67a.6.6,0,0,0-.41-.58l-.19,0-29.87-.09A.62.62,0,0,0,149.27,184.21Z" transform="translate(52.31)"/><path class="cls-10" d="M151.32,207.56a.75.75,0,0,0,.5.7,1,1,0,0,0,.24,0l10,0,18,0h1.94a.74.74,0,0,0,.74-.74V205a.73.73,0,0,0-.73-.74l-4,0-18.11-.05h0l-7.75,0h-.16a.75.75,0,0,0-.58.72Z" transform="translate(52.31)"/><path d="M152.06,208.43a.88.88,0,0,1-.87-.87v-2.68a.87.87,0,0,1,.68-.84.63.63,0,0,1,.19,0l7.62,0h0l22.26.06a.88.88,0,0,1,.87.88v2.67a.88.88,0,0,1-.88.87Zm7.73-4.11,0,0-7.69,0h-.13a.61.61,0,0,0-.48.59v2.68a.61.61,0,0,0,.42.57.58.58,0,0,0,.19,0l29.87.1a.61.61,0,0,0,.61-.61V205a.6.6,0,0,0-.6-.61l-22.1-.07Z" transform="translate(52.31)"/><path class="cls-10" d="M147.16,203.41a.74.74,0,0,0,.73.74h4l7.87,0,18,.05a.44.44,0,0,0,.16,0,.74.74,0,0,0,.58-.71v-2.68a.71.71,0,0,0-.56-.71.47.47,0,0,0-.17,0l-17-.05-12.83,0-.19,0a.74.74,0,0,0-.55.72Z" transform="translate(52.31)"/><path d="M147.89,204.28a.87.87,0,0,1-.86-.87v-2.67a.87.87,0,0,1,.87-.87l29.87.09a.56.56,0,0,1,.2,0,.86.86,0,0,1,.67.84v2.68a.87.87,0,0,1-.68.84.62.62,0,0,1-.19,0Zm-.14-4.13a.6.6,0,0,0-.45.59v2.67a.6.6,0,0,0,.6.61l29.88.09a.3.3,0,0,0,.13,0,.61.61,0,0,0,.48-.58v-2.68a.59.59,0,0,0-.46-.59l-.14,0-29.87-.09Z" transform="translate(52.31)"/><path class="cls-10" d="M147.16,199.31a.72.72,0,0,0,.56.71.47.47,0,0,0,.17,0l12.76,0,17.12,0,.18,0a.76.76,0,0,0,.56-.72v-2.67a.72.72,0,0,0-.73-.74h-3.19l-10.22,0-16.46-.06h-.12a.74.74,0,0,0-.62.73Z" transform="translate(52.31)"/><path d="M147.89,200.18a.64.64,0,0,1-.2,0,.86.86,0,0,1-.66-.84v-2.68a.88.88,0,0,1,.73-.86h.14l29.87.1a.85.85,0,0,1,.87.87v2.67a.86.86,0,0,1-.65.84.78.78,0,0,1-.22,0Zm-.08-4.15a.62.62,0,0,0-.51.6v2.68a.61.61,0,0,0,.47.59l.13,0,29.88.09.15,0a.62.62,0,0,0,.46-.59v-2.67a.61.61,0,0,0-.17-.43.6.6,0,0,0-.43-.18l-29.87-.1Z" transform="translate(52.31)"/><path class="cls-13" d="M127,216.54a.7.7,0,0,1-.16-.1.89.89,0,0,1-.25-.62v-2.67a.87.87,0,0,1,.87-.87h1.24a.91.91,0,0,1-.25-.62V209a.87.87,0,0,1,.87-.87h3.52a.85.85,0,0,1-.24-.6v-2.68a.87.87,0,0,1,.26-.61.84.84,0,0,1,.61-.25h0l29.87.09a.87.87,0,0,1,.87.87v2.67a.87.87,0,0,1-.87.87h-3.52a.89.89,0,0,1,.24.6v2.68a.87.87,0,0,1-.87.87H158a.89.89,0,0,1,.25.62v2.67a.84.84,0,0,1-.4.71.57.57,0,0,1,.16.11.86.86,0,0,1,.25.61V220a.86.86,0,0,1-.25.61.89.89,0,0,1-.62.25h0l-29.87-.09a.87.87,0,0,1-.87-.87v-2.68A.87.87,0,0,1,127,216.54Z" transform="translate(52.31)"/><path class="cls-10" d="M123.74,220.67l29.88.09a.74.74,0,0,0,.74-.73v-2.68a.74.74,0,0,0-.74-.74l-29.87-.09a.74.74,0,0,0-.74.73v2.68A.74.74,0,0,0,123.74,220.67Z" transform="translate(52.31)"/><path d="M153.62,220.89l-29.88-.09a.86.86,0,0,1-.86-.87v-2.68a.87.87,0,0,1,.87-.86h0l29.87.09a.89.89,0,0,1,.87.87V220a.83.83,0,0,1-.26.61.86.86,0,0,1-.61.25Zm-30.47-3.64v2.68a.61.61,0,0,0,.6.61l29.88.09h0a.61.61,0,0,0,.61-.6v-2.68a.59.59,0,0,0-.17-.43.64.64,0,0,0-.43-.18l-29.87-.09h0A.6.6,0,0,0,123.15,217.25Z" transform="translate(52.31)"/><path class="cls-10" d="M129.77,208.28l29.87.09a.74.74,0,0,0,.74-.74V205a.74.74,0,0,0-.74-.74l-29.87-.09a.72.72,0,0,0-.74.73v2.68A.74.74,0,0,0,129.77,208.28Z" transform="translate(52.31)"/><path d="M159.64,208.5l-29.87-.09a.87.87,0,0,1-.87-.87v-2.68a.83.83,0,0,1,.26-.61.82.82,0,0,1,.61-.25h0l29.87.09a.87.87,0,0,1,.62.25.9.9,0,0,1,.25.62v2.67a.87.87,0,0,1-.87.87Zm-30.29-4.07a.64.64,0,0,0-.18.43v2.68a.64.64,0,0,0,.18.43.62.62,0,0,0,.43.18l29.87.09h0a.57.57,0,0,0,.43-.18.58.58,0,0,0,.18-.43V205a.58.58,0,0,0-.18-.43.57.57,0,0,0-.43-.18l-29.87-.09h0A.63.63,0,0,0,129.35,204.43Z" transform="translate(52.31)"/><rect class="cls-10" x="136.61" y="198.86" width="4.15" height="31.35" rx="0.74" transform="translate(-23.97 352.56) rotate(-89.82)"/><path d="M153.62,216.79l-29.88-.09a.87.87,0,0,1-.61-.26.89.89,0,0,1-.25-.62v-2.67a.87.87,0,0,1,.87-.87l29.87.09a.89.89,0,0,1,.87.88v2.67a.87.87,0,0,1-.87.87Zm-30.29-4.07a.58.58,0,0,0-.18.43v2.67a.57.57,0,0,0,.18.43.56.56,0,0,0,.42.18l29.88.1h0a.61.61,0,0,0,.61-.61v-2.67a.56.56,0,0,0-.17-.43.6.6,0,0,0-.43-.18l-29.87-.1h0A.6.6,0,0,0,123.33,212.72Z" transform="translate(52.31)"/><path class="cls-10" d="M125.61,212.41l29.88.09a.74.74,0,0,0,.74-.73v-2.68a.73.73,0,0,0-.73-.74l-29.88-.09a.75.75,0,0,0-.74.74v2.67A.72.72,0,0,0,125.61,212.41Z" transform="translate(52.31)"/><path d="M155.48,212.64l-29.87-.1a.87.87,0,0,1-.87-.87V209a.87.87,0,0,1,.87-.87h0l29.87.09a.89.89,0,0,1,.87.87v2.68a.87.87,0,0,1-.87.87ZM125,209v2.67a.6.6,0,0,0,.6.61l29.88.09h0a.6.6,0,0,0,.6-.6v-2.68a.62.62,0,0,0-.6-.61l-29.88-.09h0A.6.6,0,0,0,125,209Z" transform="translate(52.31)"/><path d="M185.73,218.93c4.55-3.29,6.41-10.21,4.15-17s-7.85-11.1-13.42-11l-.16-.47-3,1c-6.47,2.17-9.55,10.39-6.87,18.37s10.08,12.67,16.55,10.5l2.9-.89Z" transform="translate(52.31)"/><path class="cls-10" d="M192.86,201c2.67,8-.49,16.3-7,18.47s-13.8-2.64-16.47-10.61.4-16.2,6.87-18.37S190.18,193,192.86,201Z" transform="translate(52.31)"/><path class="cls-10" d="M190.77,201.67c2.19,6.55-.4,13.4-5.72,15.18s-11.33-2.17-13.53-8.72.33-13.3,5.65-15.08S188.57,195.13,190.77,201.67Z" transform="translate(52.31)"/><path d="M177.05,215.72a14.36,14.36,0,0,1-5.65-7.55c-2.21-6.6.36-13.44,5.73-15.24a9.35,9.35,0,0,1,8.08,1.2,14.72,14.72,0,0,1,5.64,17,9.47,9.47,0,0,1-5.76,5.88,7.87,7.87,0,0,1-1.65.37A9.56,9.56,0,0,1,177.05,215.72Zm13.6-14a14,14,0,0,0-5.58-7.37,9.14,9.14,0,0,0-7.86-1.17c-5.24,1.75-7.74,8.45-5.57,14.92a14.14,14.14,0,0,0,5.55,7.42,9,9,0,0,0,7.82,1.22,9.18,9.18,0,0,0,5.6-5.73,13.89,13.89,0,0,0,0-9.29Z" transform="translate(52.31)"/><path d="M186,204.56a2.53,2.53,0,0,0-1.51-.72,2.38,2.38,0,0,0,.66-1.23,3.26,3.26,0,0,0,0-1.55,3.09,3.09,0,0,0-.61-1.26,2.78,2.78,0,0,0-.92-.78,2.09,2.09,0,0,0-1-.24l-.44,0-.58-2.29-1,.25.57,2.24-.17,0-1.13.29-.56-2.25-1,.25.57,2.24-1.21.31-.23.06-1.09.27.21.85,1.09-.27,2.45,9.68-1.09.27.21.85,1.09-.27.23-.06,1.22-.31.52,2.08,1-.25-.52-2.08.6-.15.69-.18.52,2.09,1-.25-.54-2.12a4.36,4.36,0,0,0,.48-.16,2.29,2.29,0,0,0,1.06-.84,3,3,0,0,0,.47-1.37,4,4,0,0,0-.1-1.58A3.35,3.35,0,0,0,186,204.56Zm-3.76-3.77a1,1,0,0,1,.77.23,1.56,1.56,0,0,1,.45.8,1.47,1.47,0,0,1,0,1,1.12,1.12,0,0,1-.62.59,12.61,12.61,0,0,1-1.29.37l-1.17.29-.67-2.63,1-.26C181.57,200.93,182.08,200.81,182.27,200.79Zm2.74,6.76a1.09,1.09,0,0,1-.53.62,6.42,6.42,0,0,1-1.21.38l-1.65.42-.77-3.05,1.44-.36a5.32,5.32,0,0,1,1.63-.24,1.25,1.25,0,0,1,.69.38,2,2,0,0,1,.41.82A1.7,1.7,0,0,1,185,207.55Z" transform="translate(52.31)"/></g></g></svg>