<svg xmlns="http://www.w3.org/2000/svg" xmlns:xlink="http://www.w3.org/1999/xlink" viewBox="0 0 269.32 242.98"><defs><style>.cls-1{fill:none;}.cls-2{fill:#e6ebf0;}.cls-3{fill:#fff;}.cls-4{fill:#ff822e;}.cls-5{fill:#aab6c2;}.cls-6{clip-path:url(#clip-path);}.cls-7{fill:#cc61d2;}</style><clipPath id="clip-path"><path class="cls-1" d="M198.63,44.38c-3.56,0-6.76,8.19-9,21.27-6.34-1.32-17.69-1-20.59,17C165,108,126.2,91.26,128,113.63s27.54,41.62,39.9,35.37c8.63-4.37,16-7.5,19.67-9,2,22.42,6.21,37.9,11.11,37.9,6.81,0,12.32-29.89,12.32-66.77S205.44,44.38,198.63,44.38Z"/></clipPath></defs><g id="Слой_2" data-name="Слой 2"><g id="Layer_1" data-name="Layer 1"><path class="cls-2" d="M139,5.22C109.16,11.1,93.92,44.91,45.85,75S8.36,222.54,84.28,203.38c72.42-18.28,75.78-16.83,123.21-15.15C266.86,190.35,233.47-13.39,139,5.22Z"/><path class="cls-2" d="M58.05,54.78c14-11.15,25.68-30.61,19-49.35S56.76,21.58,45.74,33.2C29.79,50,28.73,78.11,58.05,54.78Z"/><rect x="23.36" y="205.48" width="207.14" height="1.44"/><path class="cls-3" d="M155.16,98a.69.69,0,0,0,.05-1.38A.69.69,0,1,0,155.16,98Z"/><path class="cls-3" d="M180.63,77.31a.6.6,0,1,0,.05-1.19A.6.6,0,0,0,180.63,77.31Z"/><path class="cls-3" d="M101.89,107.1a1.13,1.13,0,0,0,.08-2.26A1.13,1.13,0,1,0,101.89,107.1Z"/><path class="cls-3" d="M55.58,147a.63.63,0,0,0,.05-1.26A.63.63,0,0,0,55.58,147Z"/><path class="cls-3" d="M204.44,76.74a.67.67,0,1,0,.05-1.34A.67.67,0,0,0,204.44,76.74Z"/><path class="cls-3" d="M27,132.47a.69.69,0,1,0,0-1.37A.69.69,0,0,0,27,132.47Z"/><path class="cls-3" d="M91.28,126c.62-.55-.18-1.5-.8-1A.62.62,0,0,0,91.28,126Z"/><path class="cls-3" d="M2.11,90.88a.64.64,0,0,0,.05-1.27A.64.64,0,0,0,2.11,90.88Z"/><path class="cls-3" d="M75.45,71.25a.71.71,0,0,0,0-1.41A.71.71,0,0,0,75.45,71.25Z"/><path class="cls-3" d="M112.84,55.94s1.83-3.76,2.86-4.7,5-2.52,5-2.52-3.85-1.7-4.81-2.67-2.51-4.78-2.51-4.78S111.54,45,110.52,46s-5,2.52-5,2.52,3.86,1.7,4.81,2.67S112.84,55.94,112.84,55.94Z"/><path class="cls-3" d="M40.24,159.87s1.83-3.76,2.85-4.71,5-2.52,5-2.52S44.23,151,43.28,150s-2.51-4.78-2.51-4.78-1.83,3.76-2.85,4.7-5,2.52-5,2.52,3.86,1.7,4.81,2.67S40.24,159.87,40.24,159.87Z"/><path class="cls-3" d="M87,97.12a21.58,21.58,0,0,1,2.43-4A22.87,22.87,0,0,1,93.69,91a21.31,21.31,0,0,1-4.1-2.27,20.41,20.41,0,0,1-2.14-4.07,21.58,21.58,0,0,1-2.43,4,22.24,22.24,0,0,1-4.25,2.15,21.87,21.87,0,0,1,4.09,2.27A20.14,20.14,0,0,1,87,97.12Z"/><path class="cls-3" d="M32.86,117.44a7.62,7.62,0,0,1,.78-1.28,7.47,7.47,0,0,1,1.37-.69,6.66,6.66,0,0,1-1.31-.73,6.51,6.51,0,0,1-.69-1.3,7,7,0,0,1-.78,1.28,7.15,7.15,0,0,1-1.36.69,6.66,6.66,0,0,1,1.31.73A6.34,6.34,0,0,1,32.86,117.44Z"/><path class="cls-3" d="M83.25,71.72a.71.71,0,1,0,0-1.41A.71.71,0,0,0,83.25,71.72Z"/><path class="cls-3" d="M75.12,77.43a.69.69,0,0,0,0-1.38A.69.69,0,0,0,75.12,77.43Z"/><path class="cls-3" d="M97.52,83.79a.63.63,0,1,0,0-1.25A.63.63,0,1,0,97.52,83.79Z"/><path class="cls-3" d="M50.63,137.84a.69.69,0,0,0,0-1.37A.69.69,0,0,0,50.63,137.84Z"/><path class="cls-3" d="M152.4,63.32a2.62,2.62,0,0,0,.84.1A1.52,1.52,0,0,0,154.78,62a1.44,1.44,0,0,0-1.44-1.46,2.36,2.36,0,0,0-.84.08A1.49,1.49,0,0,0,151.39,62,1.42,1.42,0,0,0,152.4,63.32Z"/><path class="cls-3" d="M29.13,100.47a1.13,1.13,0,0,0,.09-2.26A1.13,1.13,0,0,0,29.13,100.47Z"/><path class="cls-3" d="M64.91,57.92A1.13,1.13,0,0,0,65,55.66,1.13,1.13,0,0,0,64.91,57.92Z"/><path class="cls-3" d="M78.8,131.68a1.46,1.46,0,1,0-1.88-2.24A1.46,1.46,0,1,0,78.8,131.68Z"/><path class="cls-3" d="M40,91.27a.57.57,0,1,0,0-1.13A.57.57,0,1,0,40,91.27Z"/><path class="cls-3" d="M19,135.19a.69.69,0,0,0,0-1.38A.69.69,0,0,0,19,135.19Z"/><path class="cls-3" d="M67.25,75.57a.62.62,0,1,0,0-1.24A.62.62,0,0,0,67.25,75.57Z"/><path class="cls-3" d="M3.94,113.4a.52.52,0,0,0,0-1A.52.52,0,0,0,3.94,113.4Z"/><path class="cls-3" d="M14.08,74.82a1.31,1.31,0,1,0,.1-2.62A1.31,1.31,0,1,0,14.08,74.82Z"/><path class="cls-3" d="M116.27,77a.63.63,0,0,0,0-1.26A.63.63,0,0,0,116.27,77Z"/><path class="cls-3" d="M32,95.38a.46.46,0,1,0,0-.91A.46.46,0,1,0,32,95.38Z"/><path class="cls-3" d="M61,86.15a.57.57,0,1,0,1.13,0A.57.57,0,1,0,61,86.15Z"/><path class="cls-3" d="M56.8,78.11a.46.46,0,0,0,.92,0A.46.46,0,0,0,56.8,78.11Z"/><path class="cls-3" d="M162,113.56a13,13,0,0,1,1.47-2.42,13.67,13.67,0,0,1,2.56-1.29,12.94,12.94,0,0,1-2.47-1.37,12.36,12.36,0,0,1-1.29-2.45,12.55,12.55,0,0,1-1.46,2.41,14,14,0,0,1-2.57,1.29,12.94,12.94,0,0,1,2.47,1.37A12.37,12.37,0,0,1,162,113.56Z"/><path class="cls-3" d="M128.86,120a5.92,5.92,0,0,1,.67-1.11,6.18,6.18,0,0,1,1.19-.6,5.8,5.8,0,0,1-1.14-.63,5.56,5.56,0,0,1-.6-1.13,5.92,5.92,0,0,1-.67,1.11,6.51,6.51,0,0,1-1.19.6,5.8,5.8,0,0,1,1.14.63A5.56,5.56,0,0,1,128.86,120Z"/><path class="cls-3" d="M118.11,142.25a6.67,6.67,0,0,1,.78-1.28,7.16,7.16,0,0,1,1.37-.69,7.6,7.6,0,0,1-1.32-.73,7.23,7.23,0,0,1-.68-1.31,7,7,0,0,1-.78,1.29,7.82,7.82,0,0,1-1.37.69,7.06,7.06,0,0,1,1.32.72A6.62,6.62,0,0,1,118.11,142.25Z"/><path class="cls-3" d="M54.58,101.68a7,7,0,0,1,.78-1.29,7.16,7.16,0,0,1,1.37-.69A6.67,6.67,0,0,1,55.41,99a6.34,6.34,0,0,1-.68-1.3A6.67,6.67,0,0,1,54,99a7.16,7.16,0,0,1-1.37.69,6.67,6.67,0,0,1,1.32.73A6.36,6.36,0,0,1,54.58,101.68Z"/><path class="cls-3" d="M.62,64.77a.65.65,0,0,0,.05-1.29A.65.65,0,0,0,.62,64.77Z"/><path class="cls-3" d="M146.36,95.08a1.44,1.44,0,1,0,.1-2.88A1.44,1.44,0,1,0,146.36,95.08Z"/><path class="cls-3" d="M184.38,92.67a1.45,1.45,0,0,0,.11-2.89A1.45,1.45,0,0,0,184.38,92.67Z"/><path class="cls-3" d="M122.44,107.82a.66.66,0,0,0,0-1.32A.66.66,0,0,0,122.44,107.82Z"/><path class="cls-3" d="M83.26,180.81a1.47,1.47,0,0,0-.07-.41.72.72,0,0,0-1.37,0A.76.76,0,1,0,83.26,180.81Z"/><path class="cls-3" d="M109.76,153.85a.36.36,0,0,0,0-.72A.36.36,0,0,0,109.76,153.85Z"/><path class="cls-3" d="M103.21,67.93a1.32,1.32,0,0,0,.1-2.63A1.32,1.32,0,0,0,103.21,67.93Z"/><path class="cls-3" d="M64.29,134.93a.64.64,0,0,0-.82-1A.64.64,0,0,0,64.29,134.93Z"/><path class="cls-3" d="M75.76,99.57a.7.7,0,0,0,.89-.62.66.66,0,0,0-.84-.65c-.35.11-.79.18-.81.62S75.42,99.46,75.76,99.57Z"/><path class="cls-3" d="M40.18,134.47a.71.71,0,0,0,0-1.41A.71.71,0,0,0,40.18,134.47Z"/><path class="cls-3" d="M10.56,84.74a.5.5,0,0,0,0-1A.5.5,0,1,0,10.56,84.74Z"/><path class="cls-3" d="M18,89.71a.4.4,0,1,0,0-.8A.4.4,0,0,0,18,89.71Z"/><path class="cls-3" d="M26.22,87.19a.59.59,0,1,0,0-1.18,1.14,1.14,0,0,0-.81.2.54.54,0,0,0,0,.76A1.07,1.07,0,0,0,26.22,87.19Z"/><path class="cls-3" d="M192,83.85a.64.64,0,0,0,.05-1.28A.64.64,0,0,0,192,83.85Z"/><path class="cls-3" d="M14.88,103.1a.36.36,0,1,0,0-.71A.36.36,0,1,0,14.88,103.1Z"/><path class="cls-3" d="M196,89.77a.46.46,0,0,0,0-.92A.46.46,0,0,0,196,89.77Z"/><path class="cls-3" d="M47.42,166.89a.6.6,0,0,0,0-1.2A.6.6,0,1,0,47.42,166.89Z"/><path class="cls-3" d="M133.27,128.4a7,7,0,0,1,.78-1.29,7.61,7.61,0,0,1,1.37-.68,7.25,7.25,0,0,1-1.32-.73,6.62,6.62,0,0,1-.68-1.31,7,7,0,0,1-.78,1.29,7.61,7.61,0,0,1-1.37.68,7.25,7.25,0,0,1,1.32.73A6.62,6.62,0,0,1,133.27,128.4Z"/><path class="cls-3" d="M116.47,100a7.4,7.4,0,0,1,.77-1.29,7.61,7.61,0,0,1,1.37-.68,7.24,7.24,0,0,1-1.31-.73,6.8,6.8,0,0,1-.69-1.31,7,7,0,0,1-.78,1.29,7.6,7.6,0,0,1-1.36.68,7.24,7.24,0,0,1,1.31.73A6.8,6.8,0,0,1,116.47,100Z"/><path class="cls-3" d="M84.7,61.14a15.87,15.87,0,0,1,1.74-2.86,16.27,16.27,0,0,1,3-1.53,15.4,15.4,0,0,1-2.93-1.62A14.47,14.47,0,0,1,85,52.22a15.53,15.53,0,0,1-1.74,2.86,16.27,16.27,0,0,1-3,1.53,15.4,15.4,0,0,1,2.93,1.62A14.47,14.47,0,0,1,84.7,61.14Z"/><path class="cls-3" d="M78.52,170.37a.61.61,0,0,0,0-1.21A.61.61,0,0,0,78.52,170.37Z"/><path class="cls-3" d="M111.89,128.08a1.47,1.47,0,0,0-.07-.41.72.72,0,0,0-1.37,0,1.16,1.16,0,0,0-.09.41C110.32,129,111.85,129,111.89,128.08Z"/><path class="cls-3" d="M34.44,70.89a.36.36,0,0,0,0-.72A.36.36,0,0,0,34.44,70.89Z"/><path class="cls-3" d="M11.42,125.78a.58.58,0,0,0,0-1.16A.58.58,0,0,0,11.42,125.78Z"/><path class="cls-3" d="M87.19,150.14a1.13,1.13,0,0,0,.08-2.26A1.13,1.13,0,1,0,87.19,150.14Z"/><path class="cls-3" d="M35.19,79.12a.63.63,0,0,0,.05-1.26A.63.63,0,0,0,35.19,79.12Z"/><path class="cls-3" d="M63.18,148.9a.67.67,0,0,0,0-1.34A.67.67,0,1,0,63.18,148.9Z"/><path class="cls-3" d="M108.27,136a.69.69,0,0,0,0-1.37A.69.69,0,1,0,108.27,136Z"/><path class="cls-3" d="M104.33,112.7a.62.62,0,0,0,0-1.24A.62.62,0,1,0,104.33,112.7Z"/><path class="cls-3" d="M95.37,65.46a.64.64,0,1,0,0-1.27A.64.64,0,0,0,95.37,65.46Z"/><path class="cls-3" d="M99.44,61.16a.71.71,0,0,0,0-1.41A.71.71,0,0,0,99.44,61.16Z"/><path class="cls-3" d="M146.27,81.44A12.72,12.72,0,0,1,147.74,79a13.68,13.68,0,0,1,2.57-1.29,12.94,12.94,0,0,1-2.47-1.37,12.37,12.37,0,0,1-1.29-2.46,13,13,0,0,1-1.47,2.42,13.67,13.67,0,0,1-2.56,1.29A12.94,12.94,0,0,1,145,79,12.76,12.76,0,0,1,146.27,81.44Z"/><path class="cls-3" d="M108.17,85.79a7,7,0,0,1,.78-1.28,7.16,7.16,0,0,1,1.37-.69,6.67,6.67,0,0,1-1.32-.73,6.34,6.34,0,0,1-.68-1.3,7.62,7.62,0,0,1-.78,1.28,7.16,7.16,0,0,1-1.37.69,6.66,6.66,0,0,1,1.31.73A6.51,6.51,0,0,1,108.17,85.79Z"/><path class="cls-3" d="M186.75,82.14a.63.63,0,1,0,0-1.26A.63.63,0,0,0,186.75,82.14Z"/><path class="cls-3" d="M85.79,74.62a7,7,0,0,1,.78-1.29,7.82,7.82,0,0,1,1.37-.69,7.06,7.06,0,0,1-1.32-.72,6.62,6.62,0,0,1-.68-1.31,7,7,0,0,1-.78,1.29,7.61,7.61,0,0,1-1.37.68,7.25,7.25,0,0,1,1.32.73A6.62,6.62,0,0,1,85.79,74.62Z"/><path class="cls-3" d="M138.38,105.48a.75.75,0,0,0,.06-1.5A.75.75,0,0,0,138.38,105.48Z"/><path class="cls-3" d="M34.75,138.48a.4.4,0,1,0,0-.8A.4.4,0,0,0,34.75,138.48Z"/><path class="cls-3" d="M103,165.78a.71.71,0,1,0,.06-1.41A.71.71,0,1,0,103,165.78Z"/><path class="cls-3" d="M60.37,160.77a.69.69,0,0,0,.05-1.38A.69.69,0,0,0,60.37,160.77Z"/><path class="cls-3" d="M158.34,83a.63.63,0,0,0,0-1.26A.63.63,0,0,0,158.34,83Z"/><path class="cls-3" d="M112.72,145.25a.69.69,0,0,0,0-1.37A.69.69,0,0,0,112.72,145.25Z"/><path class="cls-3" d="M39.64,73.36a1.13,1.13,0,1,0,.08-2.26A1.13,1.13,0,0,0,39.64,73.36Z"/><path class="cls-3" d="M93.9,108.65a1.47,1.47,0,0,0,.11-2.93A1.47,1.47,0,0,0,93.9,108.65Z"/><path class="cls-3" d="M139.7,86.83a.63.63,0,0,0,.05-1.26A.63.63,0,0,0,139.7,86.83Z"/><path class="cls-3" d="M96.14,149.23a.69.69,0,0,0,0-1.38A.69.69,0,0,0,96.14,149.23Z"/><path class="cls-3" d="M164.51,166.64a.62.62,0,0,0,.4,1.18A.62.62,0,0,0,164.51,166.64Z"/><path class="cls-3" d="M178.2,165.92a1.46,1.46,0,1,0,.93,2.77A1.46,1.46,0,1,0,178.2,165.92Z"/><path class="cls-3" d="M127.34,158.48a5.53,5.53,0,0,1-1,.79,6.33,6.33,0,0,1-1.32.13,5.51,5.51,0,0,1,.83,1,5.48,5.48,0,0,1,.14,1.27,6,6,0,0,1,1-.79,6.17,6.17,0,0,1,1.32-.12,5.9,5.9,0,0,1-.83-1A5.55,5.55,0,0,1,127.34,158.48Z"/><path class="cls-3" d="M145.48,141.7a6.81,6.81,0,0,1-1.2.91,7.25,7.25,0,0,1-1.52.15,6.64,6.64,0,0,1,1,1.15,6.35,6.35,0,0,1,.16,1.47,7.34,7.34,0,0,1,1.2-.91,7,7,0,0,1,1.52-.14,7.25,7.25,0,0,1-1-1.16A6.75,6.75,0,0,1,145.48,141.7Z"/><path class="cls-3" d="M192,118.56a1.1,1.1,0,0,0-.08.4.72.72,0,0,0,1.26.52C194,118.42,192.4,117.68,192,118.56Z"/><path class="cls-3" d="M157.49,134a.36.36,0,0,0-.29.66A.36.36,0,0,0,157.49,134Z"/><path class="cls-3" d="M126.3,149.05a6.64,6.64,0,0,1-1.19.91,7.33,7.33,0,0,1-1.53.15,7.07,7.07,0,0,1,1,1.15,7,7,0,0,1,.16,1.47,7.15,7.15,0,0,1,1.19-.91,7.16,7.16,0,0,1,1.53-.14,7.25,7.25,0,0,1-1-1.16A6.91,6.91,0,0,1,126.3,149.05Z"/><path class="cls-3" d="M192.61,130a.61.61,0,0,0-.49,1.12A.61.61,0,0,0,192.61,130Z"/><path class="cls-3" d="M146.09,157.17a1.37,1.37,0,0,0-.09.4.73.73,0,0,0,1.27.52,1.61,1.61,0,0,0,.24-.34C147.89,156.87,146.47,156.29,146.09,157.17Z"/><path class="cls-3" d="M177.15,145.67a1.13,1.13,0,0,0-.91,2.07A1.13,1.13,0,0,0,177.15,145.67Z"/><path class="cls-3" d="M152.36,151.1a.69.69,0,1,0-.55,1.26A.69.69,0,1,0,152.36,151.1Z"/><path class="cls-3" d="M168.19,125.34a.71.71,0,1,0-.56,1.3A.71.71,0,0,0,168.19,125.34Z"/><path class="cls-3" d="M151.59,140.89a.68.68,0,1,0-.54,1.25A.68.68,0,1,0,151.59,140.89Z"/><path class="cls-3" d="M168.48,143.25a.69.69,0,1,0-.55,1.26A.69.69,0,0,0,168.48,143.25Z"/><path class="cls-3" d="M64.7,114.09a.51.51,0,1,0,0-1A.51.51,0,0,0,64.7,114.09Z"/><path class="cls-3" d="M135.23,171.53c.62-.55-.18-1.5-.8-1S134.61,172.07,135.23,171.53Z"/><path class="cls-3" d="M96.36,185a21.58,21.58,0,0,1,2.43-4,22.24,22.24,0,0,1,4.25-2.15A21.3,21.3,0,0,1,99,176.54a20.68,20.68,0,0,1-2.14-4.07,21.58,21.58,0,0,1-2.43,4,22.86,22.86,0,0,1-4.25,2.15,21.3,21.3,0,0,1,4.09,2.27A20.41,20.41,0,0,1,96.36,185Z"/><path class="cls-3" d="M106.88,171.63a.63.63,0,0,0,0-1.26A.63.63,0,0,0,106.88,171.63Z"/><path class="cls-3" d="M122.75,177.21a1.46,1.46,0,1,0-1.88-2.24A1.46,1.46,0,0,0,122.75,177.21Z"/><path class="cls-3" d="M49.4,179.11a.57.57,0,0,0,0-1.14A.57.57,0,0,0,49.4,179.11Z"/><path class="cls-3" d="M70.35,174a.57.57,0,0,0,1.14,0A.57.57,0,0,0,70.35,174Z"/><path class="cls-3" d="M63.94,189.51a6.67,6.67,0,0,1,.78-1.28,7.16,7.16,0,0,1,1.37-.69,6.67,6.67,0,0,1-1.32-.73,6.52,6.52,0,0,1-.69-1.31,7.4,7.4,0,0,1-.77,1.29,7.16,7.16,0,0,1-1.37.69,6.66,6.66,0,0,1,1.31.73A6.51,6.51,0,0,1,63.94,189.51Z"/><path class="cls-3" d="M85.12,187.41a.7.7,0,0,0,.89-.62.68.68,0,0,0-.84-.66c-.35.11-.8.19-.81.63S84.78,187.29,85.12,187.41Z"/><path class="cls-3" d="M131.22,142.29a1.47,1.47,0,0,0,.11-2.93A1.47,1.47,0,1,0,131.22,142.29Z"/><path class="cls-3" d="M74.06,201.93a.51.51,0,0,0,0-1A.51.51,0,0,0,74.06,201.93Z"/><path class="cls-3" d="M139.11,53.08a.69.69,0,0,0,0-1.37A.69.69,0,1,0,139.11,53.08Z"/><path class="cls-3" d="M144.94,38.06a7,7,0,0,1,.78-1.29,7.15,7.15,0,0,1,1.36-.69,7.05,7.05,0,0,1-1.31-.72,6.8,6.8,0,0,1-.69-1.31,6.67,6.67,0,0,1-.78,1.28,7.15,7.15,0,0,1-1.36.69,6.66,6.66,0,0,1,1.31.73A6.8,6.8,0,0,1,144.94,38.06Z"/><path class="cls-3" d="M141.2,21.08a1.13,1.13,0,0,0,.09-2.26A1.13,1.13,0,0,0,141.2,21.08Z"/><path class="cls-3" d="M131.08,55.8a.69.69,0,0,0,0-1.37A.69.69,0,1,0,131.08,55.8Z"/><path class="cls-3" d="M116,34a.51.51,0,0,0,0-1A.51.51,0,1,0,116,34Z"/><path class="cls-3" d="M144,16a.46.46,0,0,0,0-.92A.46.46,0,0,0,144,16Z"/><path class="cls-3" d="M166.65,22.29a7,7,0,0,1,.78-1.29,7.61,7.61,0,0,1,1.37-.68,7.25,7.25,0,0,1-1.32-.73,6.62,6.62,0,0,1-.68-1.31,7,7,0,0,1-.78,1.29,7.61,7.61,0,0,1-1.37.68A7.25,7.25,0,0,1,166,21,6.62,6.62,0,0,1,166.65,22.29Z"/><path class="cls-3" d="M176.36,55.54a.63.63,0,1,0-.81-1A.63.63,0,1,0,176.36,55.54Z"/><path class="cls-3" d="M152.25,55.08a.71.71,0,0,0,.05-1.41A.71.71,0,0,0,152.25,55.08Z"/><path class="cls-3" d="M127,23.72a.36.36,0,0,0,0-.72A.36.36,0,0,0,127,23.72Z"/><path class="cls-3" d="M123.49,46.39a.58.58,0,0,0,0-1.16A.58.58,0,0,0,123.49,46.39Z"/><path class="cls-3" d="M176.78,34.71a.52.52,0,0,0,0-1A.52.52,0,0,0,176.78,34.71Z"/><path class="cls-4" d="M136.83,6.73a17.86,17.86,0,1,1-20.21,15.14A17.87,17.87,0,0,1,136.83,6.73Z"/><path d="M120.63,21.52c1.12.16,1.84,1.64,1.6,3.31s-1.34,2.89-2.47,2.72-1.85-1.64-1.61-3.31S119.5,21.36,120.63,21.52Z"/><path d="M143.47,20.78c3.41.49,5.7,4.19,5.12,8.25s-3.83,7-7.24,6.48-5.71-4.18-5.12-8.25S140.05,20.29,143.47,20.78Z"/><path class="cls-5" d="M138,36.33a2.25,2.25,0,1,1-2.15,1.93A2.05,2.05,0,0,1,138,36.33Z"/><path d="M147.93,17.49c.56.08.92.83.8,1.67s-.68,1.47-1.24,1.39-.92-.83-.8-1.68S147.36,17.41,147.93,17.49Z"/><path class="cls-5" d="M120.17,17.43c.57.08.92.84.8,1.68s-.67,1.46-1.24,1.38-.92-.83-.8-1.67S119.61,17.35,120.17,17.43Z"/><path class="cls-5" d="M128.51,37a1.2,1.2,0,1,1-1.35,1A1.2,1.2,0,0,1,128.51,37Z"/><path class="cls-5" d="M129.31,9.38a.57.57,0,1,1-.65.48A.58.58,0,0,1,129.31,9.38Z"/><path d="M120.84,30.52a.56.56,0,0,1,.48.64.57.57,0,0,1-.64.49.58.58,0,0,1-.49-.65A.57.57,0,0,1,120.84,30.52Z"/><path class="cls-5" d="M145.16,18.39a.58.58,0,0,1-.16,1.14.57.57,0,0,1-.48-.65A.57.57,0,0,1,145.16,18.39Z"/><path d="M140.49,36.11a.57.57,0,0,1,.48.65.57.57,0,0,1-1.13-.16A.57.57,0,0,1,140.49,36.11Z"/><path class="cls-3" d="M114.12,20.39c.71.9,1.5,1.8,2.36,2.71,0-.41.08-.82.14-1.23s.12-.77.2-1.15c-.44-.49-.85-1-1.24-1.48-3-3.8-4.1-6.95-3-8.66C113.24,9.53,114.75,9,116.9,9a21.4,21.4,0,0,1,4.8.64c.61.15,1.23.31,1.86.5a62.42,62.42,0,0,1,15.22,7.22,62.25,62.25,0,0,1,13,10.73c.42.48.82.95,1.2,1.42,3,3.82,4.14,7,3,8.73s-4.45,2.07-9.2.93c-.58-.14-1.18-.3-1.79-.48a16.6,16.6,0,0,1-2,1.3,34.35,34.35,0,0,0,5.9,1.45,19.77,19.77,0,0,0,2.75.21c2.87,0,4.89-.82,5.9-2.41,1.91-3-.37-8.08-5.48-13.5a65.59,65.59,0,0,0-12.32-9.95,66.6,66.6,0,0,0-14.21-7c-1.18-.39-2.34-.73-3.45-1-5.6-1.32-9.55-.7-11.12,1.75S110.55,15.87,114.12,20.39Z"/><path d="M151.68,41.85a18.28,18.28,0,0,1-2.77-.22A33.57,33.57,0,0,1,143,40.18l-.43-.15.4-.22a16.91,16.91,0,0,0,2-1.28l.08-.06.1,0c.65.19,1.24.35,1.78.48,4.66,1.12,7.93.81,9-.84s-.05-4.76-3-8.51c-.38-.47-.78-.95-1.19-1.41a61.68,61.68,0,0,0-12.94-10.69,61.77,61.77,0,0,0-15.18-7.2c-.64-.19-1.27-.36-1.85-.49a20.72,20.72,0,0,0-4.75-.64c-2.1,0-3.54.51-4.16,1.49-1,1.63.05,4.7,3,8.43q.6.75,1.23,1.47l.06.07,0,.1c-.07.38-.14.75-.2,1.14s-.1.81-.13,1.22l0,.45-.31-.33c-.87-.92-1.67-1.83-2.37-2.72h0c-3.63-4.6-4.74-8.52-3.14-11s5.64-3.18,11.34-1.83c1.1.26,2.27.59,3.47,1a66.78,66.78,0,0,1,14.25,7,65.47,65.47,0,0,1,12.36,10c5.41,5.74,7.41,10.75,5.5,13.75C156.69,41,154.65,41.85,151.68,41.85Zm-8.16-1.91a33.41,33.41,0,0,0,5.44,1.3,19,19,0,0,0,2.72.21c2.82,0,4.75-.78,5.73-2.32,1.78-2.79-.26-7.75-5.45-13.25A65,65,0,0,0,139.67,16a66,66,0,0,0-14.16-7c-1.19-.4-2.35-.73-3.44-1-5.51-1.31-9.38-.72-10.9,1.66s-.4,6.13,3.11,10.58c.62.77,1.3,1.57,2,2.37,0-.27.06-.53.1-.8s.11-.71.18-1.06c-.4-.46-.79-.94-1.17-1.41-3.06-3.87-4.16-7.11-3-8.9.69-1.09,2.24-1.67,4.49-1.67a21.5,21.5,0,0,1,4.84.65c.59.14,1.22.3,1.88.5a61.76,61.76,0,0,1,15.27,7.24,62.29,62.29,0,0,1,13,10.77c.41.46.81.94,1.2,1.43,3.1,3.88,4.21,7.15,3.06,9s-4.58,2.18-9.42,1c-.52-.13-1.07-.28-1.7-.46A18,18,0,0,1,143.52,39.94Z"/><path class="cls-5" d="M45.36,84A17.29,17.29,0,1,0,64.94,98.62,17.3,17.3,0,0,0,45.36,84Z"/><path d="M61.05,98.28c-1.09.16-1.79,1.59-1.55,3.21s1.3,2.79,2.39,2.64,1.79-1.6,1.56-3.21S62.14,98.13,61.05,98.28Z"/><path d="M38.94,97.57c-3.31.47-5.53,4.05-5,8s3.7,6.75,7,6.27,5.52-4,5-8S42.24,97.09,38.94,97.57Z"/><path d="M44.23,112.63a2.17,2.17,0,1,0,2.08,1.86A2,2,0,0,0,44.23,112.63Z"/><path d="M34.62,94.38c-.55.08-.89.8-.78,1.62s.66,1.42,1.2,1.34.9-.8.78-1.62S35.16,94.3,34.62,94.38Z"/><path d="M61.49,94.33c-.54.08-.89.8-.77,1.62s.65,1.42,1.2,1.34.89-.8.77-1.62S62,94.25,61.49,94.33Z"/><path d="M53.42,113.3a1.15,1.15,0,1,0,.32,2.28,1.15,1.15,0,1,0-.32-2.28Z"/><path d="M52.64,86.53a.55.55,0,1,0,.63.47A.54.54,0,0,0,52.64,86.53Z"/><path d="M60.85,107a.55.55,0,0,0-.47.63.55.55,0,1,0,1.09-.16A.55.55,0,0,0,60.85,107Z"/><path d="M37.29,95.26a.55.55,0,1,0,.63.47A.54.54,0,0,0,37.29,95.26Z"/><path d="M41.82,112.41a.56.56,0,1,0,.16,1.1.56.56,0,1,0-.16-1.1Z"/><path class="cls-3" d="M198.63,178.18c-7,0-12.58-29.44-12.58-67s5.53-67,12.58-67,12.58,29.44,12.58,67S205.69,178.18,198.63,178.18Z"/><path d="M198.63,44.38c6.81,0,12.32,29.89,12.32,66.77s-5.51,66.77-12.32,66.77S186.31,148,186.31,111.15s5.52-66.77,12.32-66.77Zm0-.52c-8,0-12.84,34.21-12.84,67.29s4.8,67.29,12.84,67.29,12.84-34.21,12.84-67.29-4.8-67.29-12.84-67.29Z"/><g class="cls-6"><path class="cls-3" d="M228.23,229.23c.4-.78,6.32-1.4,6.45-1.07.4,1,1.51,5.08,1.07,5.74s-5.22,2.8-5.55,1.78S227.84,230,228.23,229.23Z"/><path d="M230.76,236.21h-.21a.67.67,0,0,1-.6-.44c-.06-.2-.22-.61-.42-1.13-1.23-3.13-1.83-4.94-1.54-5.52.46-.89,5.22-1.36,6.33-1.3.27,0,.53.05.61.26.26.68,1.6,5.13,1,6C235.55,234.66,232.18,236.21,230.76,236.21Zm-2.3-6.86c-.24.48,1.06,3.83,1.55,5.09.21.54.38,1,.44,1.16,0,0,.1.07.17.08,1.16.17,4.6-1.48,4.91-1.93s-.52-3.95-1.06-5.4C233.64,228.17,228.77,228.84,228.46,229.35Z"/><path d="M235.9,232.56s3.47,3.3,2.17,6.71c0,0-13.87,3.51-18.23,3.71,0,0-1.16-5.14,2.37-6.32a69.13,69.13,0,0,1,7.63-1.94S233.85,236,235.9,232.56Z"/><path class="cls-3" d="M260,222.78c.4-.79,5.49-1.26,5.62-.92.4,1,1.51,5.07,1.06,5.73s-4.45,3.23-4.78,2.22S259.63,223.53,260,222.78Z"/><path d="M262.32,230.3h-.14a.6.6,0,0,1-.51-.4c0-.15-.14-.41-.26-.76-1.46-4.19-1.9-5.94-1.63-6.47h0c.46-.89,4.47-1.22,5.44-1.17.35,0,.59.07.66.27.27.68,1.61,5.13,1,6C266.53,228.31,263.55,230.3,262.32,230.3Zm-2.3-7.52.23.12c-.18.36.38,2.39,1.66,6.06l.26.77s0,0,.09,0h.09c1,0,3.83-1.89,4.14-2.34s-.53-4-1.06-5.4c-.76-.2-4.92.35-5.18.86Z"/><path d="M224.65,178.14c1,8.36,5,24.84,7.34,32.94.16.54,4,19.67,4,19.67l-7.58,2.32c-6.78-11.72-20.57-38.27-23.12-50.78s-5.71-33.59-3.13-44.42c2.45-10.3,22.35-.82,24.85,1.07,1.15.88,1.32,10.76.16,17.57C225.86,164.4,224.11,173.64,224.65,178.14Z"/><path d="M232.53,210.91c-2.13-8.15-6.86-24.41-7.88-32.77-.54-4.5,2.22-18.36,3.58-26.25-1.21-2.1-1.26-7.13-3.37-8-1.75-.71-6.39,7.32-6.65,9.48-.22,1.7,1.18,3.51,1.62,5.09a15.22,15.22,0,0,1-.22,8.74c-1.36,4.21-3.38,7.73-3.7,12.25-.63,8.8,3,17.1,6.62,24.9,2.29,4.91,4.67,9.84,6.07,15.1.79,3,2.59,9.64,2.76,12.73l4.68-1.43A181.72,181.72,0,0,0,232.53,210.91Z"/><path d="M266.8,224.48l-6.73,2.14c-6-11.12-19.71-29.43-23.65-41.57-6.12-18.87-13-39-14.13-44.07-.18-.82-.28-1.25-.28-1.25,3.56-6.72,11.1-10.7,14.58-11.85,1.37-.46,2.46-.39,3.06.26a55.41,55.41,0,0,1,4.84,6.06c8.54,12.5,5.38,21.75,9.11,39.51.2,1,.43,2.08.67,3.12,1.68,7.31,1.55,16.77,5.22,24C266.71,215.06,266.8,224.48,266.8,224.48Z"/><path class="cls-3" d="M155.11,132.64c7.73,5.69,10.7,7.88,16.14,5.36a25.86,25.86,0,0,0,10.86-9c.23-.34.46-.69.66-1,.34-.58.64-1.13.93-1.69.37-.78.7-1.53,1-2.26a3,3,0,0,1,.13-.36c1.19-3.25,1.55-5.17,1.18-7.62a18.68,18.68,0,0,0-1-4.13s-1.51-19.68-5.18-16.43S172.86,107.08,171,115a.29.29,0,0,1,0,.09c-.12.44-.2.85-.3,1.26-.06.25-.14.51-.19.75-.93,4-1.64,7-2.14,7.5-.88.87-8.62.56-12.76-1.27h0l-1.49-.67c-2.92-1.29-5.5-2.32-6.15-1.85,0,0-4.76.9-3.63,2.09A85.17,85.17,0,0,0,155.11,132.64Z"/><path d="M167.16,139.29c-3.46,0-6.65-2.35-12.2-6.43h0a86,86,0,0,1-10.86-9.75.75.75,0,0,1-.21-.77c.32-1,3.23-1.62,3.94-1.76.67-.4,2.37.1,6.34,1.86l1.5.67.06,0c4.19,1.85,11.74,2,12.41,1.3.47-.49,1.28-4,2.08-7.38,0-.14.06-.29.1-.44l.16-.65c.07-.3.14-.61.23-.93l0-.08c2.23-9.37,5.55-16.73,8.89-19.69a1.31,1.31,0,0,1,1.41-.34c2.89,1.17,4.06,15.12,4.2,16.91a19.39,19.39,0,0,1,1,4.15c.36,2.4.06,4.35-1.2,7.75l0,.12a2,2,0,0,0-.08.22c-.28.74-.61,1.49-1,2.3-.3.58-.61,1.13-.95,1.71-.2.34-.43.69-.67,1a26.18,26.18,0,0,1-11,9.12A9.91,9.91,0,0,1,167.16,139.29Zm-11.89-6.86h0c7.7,5.66,10.58,7.77,15.87,5.32a25.71,25.71,0,0,0,10.75-8.93c.23-.33.45-.67.65-1,.33-.57.64-1.11.93-1.67.38-.8.7-1.53,1-2.23a2,2,0,0,1,.09-.25l0-.11c1.23-3.35,1.52-5.17,1.17-7.49a18.49,18.49,0,0,0-1-4.07l0-.08c-.33-4.28-1.67-15.6-3.88-16.5a.81.81,0,0,0-.87.25c-3.25,2.88-6.51,10.14-8.72,19.41H171l.25.06c-.09.35-.16.64-.23.94l-.16.66c0,.15-.07.29-.1.43-1,4.36-1.67,7.06-2.21,7.62-1,1-8.82.67-13-1.22l-.07,0-1.44-.63c-1.44-.64-5.26-2.33-5.88-1.88l-.11,0c-1.38.26-3.41.87-3.59,1.42,0,0,0,.1.1.24A85.74,85.74,0,0,0,155.27,132.43Z"/><path class="cls-4" d="M184.58,127.05c.86-1.88,2.32-4.11,3.58-6.26.47-.82.92-1.63,1.31-2.38a11.26,11.26,0,0,0,1.09-2.93,3.14,3.14,0,0,0,.05-1.13,50.46,50.46,0,0,0-1.68-5.58c-2.45-7-6.9-16.21-9.77-14.1-4.93,3.62-7.63,12.83-10.13,20.2C170.94,120.8,176.15,126.11,184.58,127.05Z"/><path d="M260.71,200.08a193.44,193.44,0,0,1-6.44-23.25c-.24-1-.47-2.09-.67-3.12-3.73-17.76-.66-27.44-9.2-39.94-.56-2.73-7.29-2.74-7-1.07a34.09,34.09,0,0,0,1.73,5.86c1.27,3.34,2.7,6.6,2.93,10.26.34,5.66-.38,11.23.4,16.92,1.43,10.45,5.72,19.44,11.17,28.32A77.62,77.62,0,0,1,262,211.31,136,136,0,0,1,265.26,225l1.54-.47S267.44,218.44,260.71,200.08Z"/><path d="M175.59,100.11s.47,5,5.1,10.64c1.21,1.48,5.31,5.27,8.17,8.8a23.54,23.54,0,0,0,1.7-4.07l-7.12-7Z"/><path class="cls-4" d="M188.25,115.9a74.67,74.67,0,0,1,6.63,6.48c4.21,5.27,2.77,17.08,5.42,21.19,1.23.7,15.26,1.11,24.48-2.08,12-4.15,19.47-12.2,18.91-14-.51-1.62-13.51-20-20-27.57-7.18-8.36-15.57-15.9-19.35-17.63a6.78,6.78,0,0,0-.81-.29,8.94,8.94,0,0,0-4.11.13c-9.13,1.93-20.95,10.93-24.42,17.57C175.58,104.56,182.31,110.43,188.25,115.9Z"/><path class="cls-3" d="M179.94,88.29l1.43,3.7s-.14,2.5.87,2.25c3.43-.84,3.65-5.74,3.65-5.74l-1.66-4.3Z"/><path d="M182.1,94.52a.7.7,0,0,1-.45-.17c-.58-.48-.56-1.91-.54-2.31l-1.48-3.82,4.7-4.48,1.82,4.72v.05c0,.21-.27,5.11-3.85,6Zm-1.86-6.17,1.4,3.6V92c0,.65.05,1.69.35,1.94a.23.23,0,0,0,.2,0c3-.74,3.41-4.93,3.44-5.45l-1.5-3.88Z"/><path d="M199.49,92.1s2,6.63,7.51,8.88a24.63,24.63,0,0,0,9.12,2.12l3.11,5.82s-5.5.27-12.4-4.69A21.3,21.3,0,0,1,199.49,92.1Z"/><path class="cls-3" d="M174.69,78.45a27.73,27.73,0,0,0,.6,7.59c.64,2.65,6.45,4.88,8.83-.12s-.75-10-.75-10Z"/><path d="M179.79,89.16a5.25,5.25,0,0,1-.56,0c-2-.2-3.83-1.54-4.2-3a28.2,28.2,0,0,1-.6-7.67l0-.18,9-2.68.11.17c0,.05,3.19,5.21.77,10.29A5,5,0,0,1,179.79,89.16Zm-4.85-10.51a27.76,27.76,0,0,0,.6,7.33c.32,1.29,2,2.45,3.74,2.63a4.38,4.38,0,0,0,4.61-2.81c2.06-4.31-.14-8.7-.64-9.61Z"/><path d="M185.88,79.55a3.61,3.61,0,0,0,0-.37,2.78,2.78,0,0,0-1.55-2.45.73.73,0,0,0-1,.28h0c-1.1.34-.6,1.64-.47,2.41.22,1.29,0,3,.88,4.12a1.66,1.66,0,0,0,2.34.35c.92-.7.44-1.62.48-2.55a2,2,0,0,0-.28-1.43A2.6,2.6,0,0,0,185.88,79.55Z"/><path d="M175.07,76.32c-1.1-.22-2.36-.18-2.8,1.05-.57,1.59,1,2.54,2.27,3a.63.63,0,0,0,.85-.58c1.4.18,3.13-.26,4.4-.15,1.88.16,4.58,1.35,4.75-1.57C184.84,73.11,177.2,72.88,175.07,76.32Z"/><path d="M266.86,226.25s3.47,3.3,2.16,6.71c0,0-13.86,3.51-18.22,3.71,0,0-1.16-5.13,2.37-6.31s8.14-2.32,8.14-2.32A4.34,4.34,0,0,0,266.86,226.25Z"/><path class="cls-5" d="M141.09,132.88c-2.88-1.4,2.06-11.62,2.5-14.1s-3.94-1.78-6.13-3.11c-3.63-2.18-5.09-5-.71-6.37a1.8,1.8,0,0,1,.19,0c4.38-1.23,11.13,2.77,12.07,8C149.88,122.08,143.61,134.11,141.09,132.88Z"/><path d="M141.62,132.93c0-.12-4.58.76.92-13.13.75-1.9-3.22-2.64-5.23-3.74-3.81-2.08-4.94-5.34-.56-6.76a1.8,1.8,0,0,1,.19,0c-.73.63-1.91,1.68-1.37,2.73,1.15,2.25,5.5,2.67,6.8,3.52s3.6,1.48,1.51,6.39C141,128.57,140.81,129.92,141.62,132.93Z"/><path d="M138.31,109.52l-.15.53c-.09.3.54.74,1.4,1s1.63.21,1.71-.09l.16-.53Z"/><path class="cls-4" d="M141.43,110.42c-.09.29-.86.33-1.72.08s-1.48-.68-1.4-1,.85-.33,1.71-.09S141.51,110.12,141.43,110.42Z"/><path d="M137.6,111.74l-.17.6c-.1.33.61.83,1.58,1.1s1.82.24,1.92-.09l.17-.6Z"/><path class="cls-4" d="M141.1,112.75c-.09.33-.95.38-1.92.1s-1.68-.78-1.58-1.11,1-.37,1.92-.09S141.2,112.42,141.1,112.75Z"/><path class="cls-3" d="M147.22,113.12a5.79,5.79,0,0,1,2.4.41,2,2,0,0,1,.94,1.27c.37,1.16,2.16,4.71,1.19,6.89-1.33.92-2.52,1.66-2.9.54-.12-.38-.22-5.37-.33-5.76-.38-1.34-.94-1-1.68-1.51a1.27,1.27,0,0,1-.59-1.16C146.34,113.21,146.79,113.12,147.22,113.12Z"/><path d="M149.54,123a.87.87,0,0,1-.28,0,.89.89,0,0,1-.57-.63,28.84,28.84,0,0,1-.19-3.12c-.05-1.17-.1-2.49-.14-2.65-.25-.86-.54-1-1-1.12a3,3,0,0,1-.64-.3,1.42,1.42,0,0,1-.67-1.33,1,1,0,0,1,1.14-.82,5.77,5.77,0,0,1,2.48.43,2.14,2.14,0,0,1,1,1.37c.06.2.17.49.3.83.64,1.62,1.7,4.33.88,6.18l0,0,0,0A5.13,5.13,0,0,1,149.54,123Zm-2.35-9.67c-.5,0-.71.15-.77.52a1.06,1.06,0,0,0,.52,1,2.31,2.31,0,0,0,.56.26c.46.17.89.32,1.19,1.36.05.19.09,1.16.15,2.72,0,1.2.12,2.85.18,3a.58.58,0,0,0,.34.42c.51.17,1.55-.54,2.26-1,.72-1.72-.29-4.31-.9-5.87-.14-.34-.25-.63-.32-.85a1.84,1.84,0,0,0-.86-1.17,5.45,5.45,0,0,0-2.32-.38h0Z"/><path class="cls-3" d="M140.8,122.94a.22.22,0,0,1,.16-.13,1.19,1.19,0,0,1-.66-.66c-.08-.38.23-.67.47-.9l0,0c-.68-.26-1.29-.68-1.28-1.34s.51-.85,1.12-.92a3.23,3.23,0,0,1-.65-.4c-.76-.59-.25-1.48.46-1.75a5,5,0,0,1,2.31.23,3.44,3.44,0,0,1,1.49.65c.62.65-.24,1.18-.85,1.44.68.07,1.31.32,1.15,1.16a1.43,1.43,0,0,1-.92,1.1,2.18,2.18,0,0,1,.85.46c.59.56-.09,1.18-.6,1.4a2.17,2.17,0,0,1-.75.18.36.36,0,0,1,.1.14c.21.45-.36.88-.7,1A1.32,1.32,0,0,1,140.8,122.94Z"/><path d="M142.05,124.86a1.52,1.52,0,0,1-1.06-.43,1.44,1.44,0,0,1-.35-1.55h0l0,0a1.07,1.07,0,0,1-.52-.64,1,1,0,0,1,.35-.91c-.75-.34-1.14-.82-1.13-1.39a1,1,0,0,1,.8-1l-.27-.19a1,1,0,0,1-.43-1,1.46,1.46,0,0,1,.94-1.07,5.28,5.28,0,0,1,2.42.22l.17.05a3,3,0,0,1,1.39.65.78.78,0,0,1,.25.71,1.33,1.33,0,0,1-.69.78,1.14,1.14,0,0,1,.64.41,1,1,0,0,1,.15.85,1.61,1.61,0,0,1-.68,1,1.93,1.93,0,0,1,.56.36.76.76,0,0,1,.27.71,1.55,1.55,0,0,1-.92,1,1.91,1.91,0,0,1-.53.16.67.67,0,0,1,0,.46,1.48,1.48,0,0,1-.8.72A1.52,1.52,0,0,1,142.05,124.86ZM141,123a1.1,1.1,0,0,0,.27,1.18,1.17,1.17,0,0,0,1.85-.27.34.34,0,0,0,0-.26l-.07-.09-.28-.27.39,0a2.12,2.12,0,0,0,.69-.16,1.22,1.22,0,0,0,.72-.72.43.43,0,0,0-.16-.4,1.91,1.91,0,0,0-.79-.42l-.45-.14.44-.18a1.26,1.26,0,0,0,.81-1,.75.75,0,0,0-.08-.59,1.28,1.28,0,0,0-.92-.37l-.65-.07.6-.26c.56-.23.9-.51,1-.76a.46.46,0,0,0-.17-.4,2.79,2.79,0,0,0-1.23-.56l-.18-.05a4.94,4.94,0,0,0-2.2-.23,1.1,1.1,0,0,0-.72.8.68.68,0,0,0,.3.66,3.74,3.74,0,0,0,.63.37l.53.26-.59.07c-.86.1-1,.48-1,.75,0,.6.63,1,1.17,1.18l.32.12-.3.19c-.28.26-.48.47-.42.73s.35.43.57.54l.33.18L141,123A.14.14,0,0,0,141,123Z"/><path class="cls-3" d="M148.44,122.09a14.38,14.38,0,0,0,.61-2.67c0-1,1.5.14,1.64.47s.92,1.62.92,1.62a1.23,1.23,0,0,0,.73.69c.63.28-.64,1.66-1.48,1.8s-2.19.37-2.31-.24A9.64,9.64,0,0,1,148.44,122.09Z"/><path class="cls-3" d="M202.39,121.22l3.06,4.47s1,0,2.6,0c4.75-.12,15-.85,21.08-5,5.49-3.72,6-12.26,3-19.53v0a22,22,0,0,0-5.58-8.07,15.94,15.94,0,0,0-2.43-1.83c-.28-.17-.56-.33-.86-.49h0l-.11-.06a83.61,83.61,0,0,0-17.86-7.8,4.94,4.94,0,0,0-6.5,4.71,16.39,16.39,0,0,0,2.43,8.3,15.87,15.87,0,0,0,8.29,6.63c1.25.46,2.69,1,4.09,1.58l.53.21c3.55,1.49,6.12,7.32,6.5,8.3.45,1.17-.41,2.28-2,3.29C213.86,119,202.39,121.22,202.39,121.22Z"/><path d="M206.76,126c-.83,0-1.31,0-1.32,0h-.13l-3.37-4.9.4-.07c.11,0,11.48-2.22,16.2-5.27,1.61-1,2.24-2,1.87-3,0-.07-2.63-6.6-6.35-8.16l-.4-.16-.12,0c-1.25-.51-2.62-1-4.09-1.57A16.2,16.2,0,0,1,201,96a16.73,16.73,0,0,1-2.46-8.43,5,5,0,0,1,2.07-4.18,5.31,5.31,0,0,1,4.77-.78,83.44,83.44,0,0,1,17.9,7.82l.14.08h0c.32.17.58.33.85.48a16.55,16.55,0,0,1,2.48,1.86,22.27,22.27,0,0,1,5.64,8.17c2.75,6.69,3,15.75-3.13,19.87s-15.86,4.89-21.22,5Zm-1.17-.54c.32,0,1.2,0,2.45,0,5.31-.14,15.08-1,20.94-4.93,5.58-3.78,5.71-12.53,3-19.22a21.77,21.77,0,0,0-5.51-8,16,16,0,0,0-2.4-1.8l-.84-.48-.16-.09a82.89,82.89,0,0,0-17.78-7.76,4.76,4.76,0,0,0-4.3.71,4.49,4.49,0,0,0-1.86,3.74,16.27,16.27,0,0,0,2.39,8.17,15.67,15.67,0,0,0,8.16,6.53c1.47.53,2.85,1.06,4.1,1.58l.12,0,.42.17c4,1.67,6.61,8.38,6.63,8.45.47,1.2-.23,2.41-2.07,3.6-4.36,2.82-13.91,4.84-16,5.26Z"/><path class="cls-4" d="M214.94,106.39c-1.45-.61-11.9-5.43-15.45-11.57-1.62-2.78-2.25-9.45,1.11-11.74,5.39-3.66,16.62,1.88,24.59,6.26C224.87,96,220.9,102,214.94,106.39Z"/><path class="cls-3" d="M200.87,117.86c1.47.4,4.21,1.9,5,3.22.42.69-2.09.72-2.5,0a4.67,4.67,0,0,0-2.83-2A.63.63,0,0,1,200.87,117.86Z"/><path d="M204.89,121.86a2.1,2.1,0,0,1-1.73-.63,4.46,4.46,0,0,0-2.68-1.93.8.8,0,0,1-.59-.57.93.93,0,0,1,.24-.9.82.82,0,0,1,.81-.2h0c1.49.4,4.31,1.93,5.14,3.32a.48.48,0,0,1,0,.49c-.2.35-.81.41-1.16.42Zm-4.19-3.78a.32.32,0,0,0-.23.09.49.49,0,0,0-.12.43.33.33,0,0,0,.26.23,5,5,0,0,1,3,2.15,1.7,1.7,0,0,0,1.24.39,1.47,1.47,0,0,0,.86-.16c-.76-1.25-3.43-2.73-4.87-3.11A.23.23,0,0,0,200.7,118.08Z"/><path class="cls-5" d="M206.18,133c-2.83,1-6.53-9-7.92-10.95s-3.79,1.5-6.13,2.12c-3.85,1-6.69.21-4.78-3.7a.83.83,0,0,1,.09-.16c2-3.78,9.17-5.73,13.32-3C204.63,120,208.67,132.14,206.18,133Z"/><path d="M206.57,132.71c-.1-.06-2.49,3.61-8.3-9.23-.8-1.76-3.91.44-6,1.09-3.91,1.22-6.86-.15-5-4.06a.83.83,0,0,1,.09-.16c-.05.91-.12,2.4.95,2.72,2.29.7,5.42-2,6.85-2.3s3.36-1.47,5.32,3.16C203.23,130.25,204,131.29,206.57,132.71Z"/><path d="M188.52,119.6l.26.45c.15.26.86.12,1.59-.3s1.21-1,1.06-1.22l-.26-.45Z"/><path class="cls-4" d="M191.17,118.08c.15.25-.33.79-1.06,1.21s-1.45.56-1.59.31.33-.8,1.06-1.22S191,117.83,191.17,118.08Z"/><path d="M189.56,121.54l.29.51c.16.28,1,.13,1.79-.35s1.36-1.08,1.2-1.36l-.3-.51Z"/><path class="cls-4" d="M192.54,119.83c.16.28-.37.89-1.2,1.36s-1.62.63-1.78.35.37-.89,1.2-1.37S192.38,119.54,192.54,119.83Z"/><path class="cls-3" d="M197.65,123.4a3.24,3.24,0,0,1,1.07-1,4.8,4.8,0,0,1,1.95-.9l.21,0a18.81,18.81,0,0,1,5.93-.57c.8,0,.81,1.3,0,1.25h-.31a2.3,2.3,0,0,1,.39,1.4.59.59,0,0,1,.44.74,3.66,3.66,0,0,1-.47,1,4.86,4.86,0,0,1-1.39,1.47,10.81,10.81,0,0,1-1.56.89c-.49.25-1,.46-1.44.65a1.22,1.22,0,0,1-.92.38c-.35,0-1-.2-1-.64a.24.24,0,0,1,0-.15,2.16,2.16,0,0,1-.72.08c-.52,0-1.33-.35-1-1a1.87,1.87,0,0,1,.58-.65,1.4,1.4,0,0,1-1.18-.65c-.43-.66,0-1.06.6-1.34C198.26,124.33,197.33,124.15,197.65,123.4Z"/><path d="M201.57,129h0a1.51,1.51,0,0,1-1-.39.6.6,0,0,1-.18-.34,1.79,1.79,0,0,1-.46,0,1.55,1.55,0,0,1-1.22-.59.78.78,0,0,1,0-.75,2,2,0,0,1,.27-.4,1.66,1.66,0,0,1-.86-.67,1,1,0,0,1-.17-.84,1,1,0,0,1,.3-.48,1.16,1.16,0,0,1-.76-.45.79.79,0,0,1,0-.75h0a2.7,2.7,0,0,1,1-1l.13-.09a5.16,5.16,0,0,1,2.09-1l.2,0a19.16,19.16,0,0,1,6-.56.87.87,0,0,1,.82,1,.77.77,0,0,1-.73.77,2.6,2.6,0,0,1,.21,1,.89.89,0,0,1,.36.33.81.81,0,0,1,.07.65,4,4,0,0,1-.49,1.06,5.23,5.23,0,0,1-1.46,1.54,12.44,12.44,0,0,1-1.6.91c-.51.26-1,.48-1.4.64A1.47,1.47,0,0,1,201.57,129Zm-.49-1.41-.25.49a.2.2,0,0,0,0,.2,1.16,1.16,0,0,0,.67.24,1,1,0,0,0,.75-.31l.08,0c.39-.16.9-.38,1.42-.65a10.23,10.23,0,0,0,1.53-.87,4.41,4.41,0,0,0,1.32-1.4,3,3,0,0,0,.44-.93.38.38,0,0,0,0-.28.4.4,0,0,0-.24-.17l-.18,0v-.19a2,2,0,0,0-.35-1.24l-.3-.41.64,0h.22a.3.3,0,0,0,.31-.32.4.4,0,0,0-.37-.45,18.87,18.87,0,0,0-5.86.57h-.1l-.19,0a4.73,4.73,0,0,0-1.79.86l-.14.1a2.43,2.43,0,0,0-.84.81h0a.3.3,0,0,0,0,.3,1.49,1.49,0,0,0,1,.32l1,0-.86.42a1.09,1.09,0,0,0-.63.54.6.6,0,0,0,.12.45,1.18,1.18,0,0,0,1,.54l.69,0-.55.41a1.46,1.46,0,0,0-.51.56c-.08.16-.05.24,0,.29a1.15,1.15,0,0,0,.83.36,1.76,1.76,0,0,0,.63-.08Z"/><path class="cls-3" d="M203.52,120.68a.47.47,0,0,1,0,.59c-.26.26.78,3.19,1.43,3.33a3.79,3.79,0,0,1,1.41.93l2-.16c1.12-.09.52-2.38.52-2.57s-.52-2.27-.52-2.27-1.21.12-2.3.15S204.08,120,203.52,120.68Z"/><path class="cls-5" d="M181.6,84.11a2.93,2.93,0,0,1,2.83-.79l.49-1.85-3.21-1.38Z"/><path d="M180.68,79.7l-7.65.66a2.29,2.29,0,0,0,.4,4.57l7.65-.66a1.28,1.28,0,0,0,1.16-1.38l-.18-2A1.27,1.27,0,0,0,180.68,79.7Z"/><path class="cls-5" d="M172.88,80.15h5.37a2,2,0,0,1,2,2v.68a2,2,0,0,1-2,2h-5.37a2,2,0,0,1-2-2V82.1a2,2,0,0,1,2-2Z" transform="translate(-6.44 15.42) rotate(-4.94)"/><path class="cls-4" d="M177.33,80.4l-4.14.36a.3.3,0,1,0,.05.6l4.14-.35a.32.32,0,0,0,.28-.33A.3.3,0,0,0,177.33,80.4Z"/><path d="M185.6,81.23l0-.41a2.56,2.56,0,0,0-1.16-.31c-.9,0-1.56,1.33-1.46,2.84s.9,2.7,1.8,2.65c.09,0,1.3-.49,1.3-.49l-.07-.67a4.22,4.22,0,0,0-.36-3.61Z"/><path class="cls-5" d="M185.55,80.82c-.9.06-1.57,1.16-1.48,2.46s.87,2.32,1.78,2.26,1.57-1.16,1.49-2.46S186.46,80.76,185.55,80.82Z"/><path class="cls-4" d="M185.86,81.91c-.38,0-.67.49-.63,1s.37,1,.75,1,.67-.49.64-1S186.24,81.89,185.86,81.91Z"/><path class="cls-4" d="M186.36,81.81l-1.1.07a.29.29,0,0,0-.26.31.28.28,0,0,0,.3.26l1.1-.06a.29.29,0,0,0,0-.58Z"/></g><path d="M130,84.88H112.91V67.79H130Zm-16.69-.4H129.6V68.19H113.31Z"/><rect x="115.58" y="66.85" width="0.4" height="7.41" transform="translate(-15.27 105.33) rotate(-46.22)"/><polygon points="135.01 73.26 129.66 68.14 129.94 67.85 135.29 72.97 135.01 73.26"/><polygon points="135.01 89.95 129.66 84.83 129.94 84.54 135.29 89.66 135.01 89.95"/><rect x="115.58" y="83.54" width="0.4" height="7.41" transform="translate(-27.32 110.48) rotate(-46.22)"/><rect class="cls-3" x="118.71" y="73.37" width="16.19" height="16.19"/><path d="M134.65,73.62V89.31H119V73.62Zm.5-.5H118.46V89.81h16.69V73.12Z"/><path d="M54.19,174.68H38.47V159H54.19Zm-15.35-.37h15v-15h-15Z"/><rect x="49.71" y="160.69" width="4.99" height="0.37" transform="translate(-96.85 80.94) rotate(-43.82)"/><rect x="34.36" y="160.69" width="4.99" height="0.37" transform="translate(-101.13 70.34) rotate(-43.83)"/><rect x="34.36" y="176.04" width="4.99" height="0.37" transform="translate(-111.77 74.61) rotate(-43.83)"/><rect x="49.71" y="176.04" width="4.99" height="0.37" transform="translate(-107.47 85.22) rotate(-43.82)"/><rect class="cls-4" x="35.06" y="162.6" width="15.35" height="15.35" transform="translate(85.47 340.56) rotate(180)"/><path d="M50.66,178.2H34.81V162.35H50.66Zm-15.35-.5H50.16V162.85H35.31Z"/><path d="M105,136.35c-1.42,0-2.51,2-3.35,6.25a75.52,75.52,0,0,0-1.16,14.06.6.6,0,0,0,1.19,0,74.93,74.93,0,0,1,1.13-13.83c1-5.24,2.18-5.3,2.19-5.3s1.15.06,2.19,5.3a74.84,74.84,0,0,1,1.14,13.83,74.84,74.84,0,0,1-1.14,13.83c-1,5.24-2.18,5.3-2.19,5.3-.25,0-.85-.53-1.49-2.51a37.72,37.72,0,0,1-1.32-6.88l1.9-.23-2.81-2.34-2.17,2.95,1.91-.24c.47,4.17,1.59,10.43,4,10.43,1.42,0,2.51-2,3.35-6.25a75.6,75.6,0,0,0,1.16-14.06,75.52,75.52,0,0,0-1.16-14.06C107.48,138.39,106.39,136.35,105,136.35Z"/><path d="M107,152.17h0a.59.59,0,0,0,0,1.18,68.61,68.61,0,0,1,12.5,1.25c3.69.81,4.67,1.7,4.67,2.06,0,0-.06,1.15-5.3,2.19A74.93,74.93,0,0,1,105,160a74.93,74.93,0,0,1-13.83-1.13c-5.24-1-5.3-2.18-5.3-2.19,0-.64,2.58-2.15,10.45-2.92l.07,1.9,2.57-2.6-2.75-2.42.07,1.93a44,44,0,0,0-7.86,1.37c-2.51.75-3.73,1.64-3.73,2.74,0,1.42,2,2.51,6.25,3.35A75.6,75.6,0,0,0,105,161.17,75.52,75.52,0,0,0,119,160c4.21-.84,6.25-1.93,6.25-3.35C125.28,153.4,113.76,152.31,107,152.17Z"/><path class="cls-7" d="M104.14,138.37c-.42,0-.84,0-1.26.1C103.3,138.42,103.72,138.38,104.14,138.37Z"/><path class="cls-5" d="M105,138.34c-.27,0-.53,0-.8,0a6.92,6.92,0,0,0-.49,1.09l-.14,0c.47,0,.95-.07,1.43-.07A17.28,17.28,0,0,1,122,154.1v0c.41.14.79.28,1.13.43A18.34,18.34,0,0,0,105,138.34Z"/><path class="cls-5" d="M86.66,156.66c0,.27,0,.53,0,.8a6.92,6.92,0,0,0,1.09.49c0,.05,0-.81,0-1.29A17.29,17.29,0,0,1,102.4,139.6h0a11.76,11.76,0,0,1,.43-1.13A18.34,18.34,0,0,0,86.66,156.66Z"/><path class="cls-5" d="M122.17,155.37c0-.05,0,.81,0,1.29a17.26,17.26,0,0,1-14.68,17.05h0c-.14.42-.28.79-.43,1.13a18.34,18.34,0,0,0,16.14-18.18c0-.27,0-.54,0-.8A8.7,8.7,0,0,0,122.17,155.37Z"/><path class="cls-7" d="M105.8,175c.42,0,.84,0,1.26-.1C106.64,174.9,106.22,174.93,105.8,175Z"/><path class="cls-5" d="M87.92,159.24v0c-.42-.14-.79-.28-1.13-.43A18.34,18.34,0,0,0,105,175c.27,0,.53,0,.8,0a7.37,7.37,0,0,0,.49-1.09l.14,0c-.47,0-1,.07-1.43.07A17.27,17.27,0,0,1,87.92,159.24Z"/></g></g></svg>