<svg xmlns="http://www.w3.org/2000/svg" xmlns:xlink="http://www.w3.org/1999/xlink" viewBox="0 0 242.98 335.08"><defs><style>.cls-1{fill:none;}.cls-2{fill:#e6ebf0;}.cls-3{fill:#fff;}.cls-4{fill:#cc61d2;}.cls-5{fill:#aab6c2;}.cls-6{fill:#98a3ad;}.cls-7{opacity:0.7;}.cls-8{clip-path:url(#clip-path);}.cls-9{fill:#ff822e;}</style><clipPath id="clip-path"><rect class="cls-1" x="30.29" y="84.12" width="172.4" height="122.1"/></clipPath></defs><g id="Слой_2" data-name="Слой 2"><g id="Layer_1" data-name="Layer 1"><path class="cls-2" d="M16,108.89c-9.75,18.6-2.59,36.22,1.4,46.07,8.24,20.32,35.86,46.36,102.08,50.91,85.28,5.85,98.22-68.28,95.81-100.21s-6.11-73.83-76.09-97.13S96.61,66.14,42.76,89.88C33.2,94.09,20.84,99.56,16,108.89Z"/><path class="cls-2" d="M16,108.89c-9.75,18.6-2.59,36.22,1.4,46.07,8.24,20.32,35.86,46.36,102.08,50.91,85.28,5.85,98.22-68.28,95.81-100.21s-6.11-73.83-76.09-97.13S96.61,66.14,42.76,89.88C33.2,94.09,20.84,99.56,16,108.89Z"/><path class="cls-2" d="M21,75.17a5.62,5.62,0,0,0,4.63,3.41c8,.79,19.54-2.6,31.47-17.6,13.34-16.77,28-34.07,13.64-32.73s-38,14.93-46.57,29.16C18.92,66.15,19.66,72,21,75.17Z"/><path class="cls-2" d="M16,108.89c-9.75,18.6-2.59,36.22,1.4,46.07,8.24,20.32,35.86,46.36,102.08,50.91,85.28,5.85,98.22-68.28,95.81-100.21s-6.11-73.83-76.09-97.13S96.61,66.14,42.76,89.88C33.2,94.09,20.84,99.56,16,108.89Z"/><rect x="18.38" y="206.22" width="189.8" height="1.44"/><path class="cls-3" d="M59.21,98.2a.82.82,0,1,1-.06-1.64A.82.82,0,0,1,59.21,98.2Z"/><path class="cls-3" d="M29,73.7A.7.7,0,1,1,29,72.3.7.7,0,0,1,29,73.7Z"/><path class="cls-3" d="M122.3,109a1.34,1.34,0,0,1-.1-2.67A1.34,1.34,0,1,1,122.3,109Z"/><path class="cls-3" d="M177.15,156.24a.75.75,0,1,1-.06-1.49A.75.75,0,1,1,177.15,156.24Z"/><path class="cls-3" d="M.82,73a.8.8,0,0,1,0-1.59A.8.8,0,1,1,.82,73Z"/><path class="cls-3" d="M211,139a.82.82,0,0,1-.06-1.63A.82.82,0,1,1,211,139Z"/><path class="cls-3" d="M134.87,131.38c-.74-.65.21-1.78.94-1.13A.73.73,0,0,1,134.87,131.38Z"/><path class="cls-3" d="M240.48,89.78a.75.75,0,0,1,0-1.5A.75.75,0,0,1,240.48,89.78Z"/><path class="cls-3" d="M189.17,56.07a.84.84,0,1,1-.06-1.67A.84.84,0,0,1,189.17,56.07Z"/><path class="cls-3" d="M141.56,48.4s-2.17-4.46-3.38-5.57-5.92-3-5.92-3,4.57-2,5.7-3.16,3-5.66,3-5.66,2.17,4.46,3.38,5.57,5.92,3,5.92,3-4.57,2-5.7,3.15S141.56,48.4,141.56,48.4Z"/><path class="cls-3" d="M195.32,171.49s-2.17-4.45-3.38-5.57-5.92-3-5.92-3,4.57-2,5.7-3.16,3-5.66,3-5.66,2.17,4.45,3.38,5.57,5.92,3,5.92,3-4.57,2-5.7,3.16S195.32,171.49,195.32,171.49Z"/><path class="cls-3" d="M157.15,79.19s-1.85-3.8-2.88-4.75-5-2.54-5-2.54,3.89-1.71,4.85-2.69,2.53-4.82,2.53-4.82,1.85,3.79,2.88,4.74,5,2.54,5,2.54-3.89,1.72-4.85,2.69S157.15,79.19,157.15,79.19Z"/><path class="cls-3" d="M204.05,121.25a8.37,8.37,0,0,0-.92-1.53,8.79,8.79,0,0,0-1.62-.81,8.43,8.43,0,0,0,1.56-.86,7.81,7.81,0,0,0,.81-1.55,8.37,8.37,0,0,0,.92,1.52,9.34,9.34,0,0,0,1.62.82,8.15,8.15,0,0,0-1.56.86A8.1,8.1,0,0,0,204.05,121.25Z"/><path class="cls-3" d="M179.93,56.63a.84.84,0,0,1-.07-1.68A.84.84,0,0,1,179.93,56.63Z"/><path class="cls-3" d="M189.56,63.39a.82.82,0,0,1-.06-1.63A.82.82,0,1,1,189.56,63.39Z"/><path class="cls-3" d="M127.47,81.39a.75.75,0,0,1,0-1.49A.75.75,0,0,1,127.47,81.39Z"/><path class="cls-3" d="M183,145.4a.81.81,0,1,1,0-1.62A.81.81,0,1,1,183,145.4Z"/><path class="cls-3" d="M62.47,57.13a2.78,2.78,0,0,1-1,.12,1.8,1.8,0,0,1-1.82-1.67,1.7,1.7,0,0,1,1.7-1.73,2.79,2.79,0,0,1,1,.09,1.78,1.78,0,0,1,1.32,1.58A1.68,1.68,0,0,1,62.47,57.13Z"/><path class="cls-3" d="M208.47,101.14a1.34,1.34,0,0,1-.09-2.68A1.34,1.34,0,0,1,208.47,101.14Z"/><path class="cls-3" d="M201.65,40.27a1.34,1.34,0,1,1-.1-2.67A1.34,1.34,0,0,1,201.65,40.27Z"/><path class="cls-3" d="M149.64,138.11a1.74,1.74,0,0,1,2.23-2.66A1.74,1.74,0,0,1,149.64,138.11Z"/><path class="cls-3" d="M195.56,90.24a.67.67,0,1,1-.05-1.34A.67.67,0,0,1,195.56,90.24Z"/><path class="cls-3" d="M220.47,142.26a.82.82,0,1,1-.06-1.63A.82.82,0,1,1,220.47,142.26Z"/><path class="cls-3" d="M198.88,61.19a.74.74,0,1,1-.06-1.47A.74.74,0,0,1,198.88,61.19Z"/><path class="cls-3" d="M238.32,116.45a.61.61,0,0,1,0-1.21A.61.61,0,0,1,238.32,116.45Z"/><path class="cls-3" d="M226.3,70.76a1.56,1.56,0,0,1-.11-3.11A1.56,1.56,0,0,1,226.3,70.76Z"/><path class="cls-3" d="M105.26,73.28a.75.75,0,1,1-.05-1.49A.75.75,0,1,1,105.26,73.28Z"/><path class="cls-3" d="M205.12,95.11a.54.54,0,1,1,0-1.08A.54.54,0,1,1,205.12,95.11Z"/><path class="cls-3" d="M170.73,84.18a.67.67,0,1,1-1.34,0A.67.67,0,1,1,170.73,84.18Z"/><path class="cls-3" d="M175.7,74.66a.54.54,0,0,1-1.08,0A.54.54,0,0,1,175.7,74.66Z"/><path class="cls-3" d="M51.07,116.64a15.34,15.34,0,0,0-1.73-2.86,16.58,16.58,0,0,0-3-1.53,15.39,15.39,0,0,0,2.92-1.62,14.64,14.64,0,0,0,1.53-2.91,15.34,15.34,0,0,0,1.73,2.86,16.58,16.58,0,0,0,3,1.53,15.39,15.39,0,0,0-2.92,1.62A14.64,14.64,0,0,0,51.07,116.64Z"/><path class="cls-3" d="M90.35,124.27a7.12,7.12,0,0,0-.8-1.32,7.4,7.4,0,0,0-1.4-.7,7.36,7.36,0,0,0,1.35-.75,6.47,6.47,0,0,0,.7-1.34,7.73,7.73,0,0,0,.8,1.32,7.71,7.71,0,0,0,1.41.7,7,7,0,0,0-1.35.75A6.63,6.63,0,0,0,90.35,124.27Z"/><path class="cls-3" d="M103.08,150.63a8,8,0,0,0-.92-1.52,8.66,8.66,0,0,0-1.62-.82,8.43,8.43,0,0,0,1.56-.86,8.4,8.4,0,0,0,.81-1.55,8,8,0,0,0,.92,1.52,8.36,8.36,0,0,0,1.62.82,8.43,8.43,0,0,0-1.56.86A7.55,7.55,0,0,0,103.08,150.63Z"/><path class="cls-3" d="M178.33,102.57a8,8,0,0,0-.92-1.52,8.36,8.36,0,0,0-1.62-.82,8.43,8.43,0,0,0,1.56-.86,7.81,7.81,0,0,0,.81-1.55,8,8,0,0,0,.92,1.52,8.36,8.36,0,0,0,1.62.82,8.43,8.43,0,0,0-1.56.86A8.4,8.4,0,0,0,178.33,102.57Z"/><path class="cls-3" d="M242.25,58.85a.76.76,0,1,1-.06-1.52A.76.76,0,1,1,242.25,58.85Z"/><path class="cls-3" d="M69.63,94.76c-2.29,0-2.41-3.39-.13-3.42S71.91,94.73,69.63,94.76Z"/><path class="cls-3" d="M24.59,91.9c-2.28,0-2.41-3.39-.13-3.42A1.71,1.71,0,0,1,24.59,91.9Z"/><path class="cls-3" d="M98,109.84a.78.78,0,0,1-.06-1.56A.78.78,0,0,1,98,109.84Z"/><path class="cls-3" d="M144.37,196.3a1.34,1.34,0,0,1,.08-.48.85.85,0,0,1,1.62,0A.89.89,0,1,1,144.37,196.3Z"/><path class="cls-3" d="M113,164.36a.43.43,0,1,1,0-.85A.43.43,0,1,1,113,164.36Z"/><path class="cls-3" d="M120.73,62.59a1.55,1.55,0,1,1-.12-3.1A1.55,1.55,0,1,1,120.73,62.59Z"/><path class="cls-3" d="M166.84,142a.75.75,0,0,1,1-1.15A.75.75,0,0,1,166.84,142Z"/><path class="cls-3" d="M153.24,100.08a.84.84,0,0,1-1.05-.74.79.79,0,0,1,1-.77c.41.13.94.22,1,.74S153.64,99.94,153.24,100.08Z"/><path class="cls-3" d="M195.39,141.41a.84.84,0,0,1-.06-1.67A.84.84,0,1,1,195.39,141.41Z"/><path class="cls-3" d="M230.48,82.5a.59.59,0,1,1,0-1.18A.59.59,0,1,1,230.48,82.5Z"/><path class="cls-3" d="M221.65,88.4a.48.48,0,0,1,0-1A.48.48,0,1,1,221.65,88.4Z"/><path class="cls-3" d="M211.93,85.42a.71.71,0,0,1-.05-1.41,1.35,1.35,0,0,1,1,.24.62.62,0,0,1,0,.89A1.35,1.35,0,0,1,211.93,85.42Z"/><path class="cls-3" d="M15.6,81.45a.76.76,0,0,1-.06-1.51A.76.76,0,0,1,15.6,81.45Z"/><path class="cls-3" d="M225.35,104.26a.43.43,0,0,1,0-.85A.43.43,0,1,1,225.35,104.26Z"/><path class="cls-3" d="M10.78,88.46a.54.54,0,1,1,0-1.08A.54.54,0,0,1,10.78,88.46Z"/><path class="cls-3" d="M186.81,179.81a.71.71,0,1,1-.05-1.42A.71.71,0,1,1,186.81,179.81Z"/><path class="cls-3" d="M85.12,134.22a8,8,0,0,0-.92-1.52,8.36,8.36,0,0,0-1.62-.82,8.43,8.43,0,0,0,1.56-.86,7.55,7.55,0,0,0,.81-1.55,8.22,8.22,0,0,0,.93,1.52,8.35,8.35,0,0,0,1.61.82,8.11,8.11,0,0,0-1.55.86A8,8,0,0,0,85.12,134.22Z"/><path class="cls-3" d="M102.84,92.82a8.37,8.37,0,0,0-.92-1.52,8.79,8.79,0,0,0-1.62-.81,8.43,8.43,0,0,0,1.56-.86,7.81,7.81,0,0,0,.81-1.55,8,8,0,0,0,.92,1.52,8.79,8.79,0,0,0,1.62.81,8,8,0,0,0-1.56.87A8.09,8.09,0,0,0,102.84,92.82Z"/><path class="cls-3" d="M178.21,44.1a18.21,18.21,0,0,0-2.06-3.39,19,19,0,0,0-3.6-1.82A18.29,18.29,0,0,0,176,37a17.27,17.27,0,0,0,1.8-3.44,18.79,18.79,0,0,0,2.06,3.39,19.73,19.73,0,0,0,3.6,1.81A18.29,18.29,0,0,0,180,40.65,17.55,17.55,0,0,0,178.21,44.1Z"/><path class="cls-3" d="M150,183.94a.72.72,0,1,1-.05-1.43A.72.72,0,1,1,150,183.94Z"/><path class="cls-3" d="M110.45,133.85a1.63,1.63,0,0,1,.09-.49.85.85,0,0,1,1.61,0,1.54,1.54,0,0,1,.12.48C112.31,135,110.49,135,110.45,133.85Z"/><path class="cls-3" d="M202.18,66.11a.43.43,0,0,1,0-.86A.43.43,0,0,1,202.18,66.11Z"/><path class="cls-3" d="M229.46,131.11a.69.69,0,1,1-.05-1.37A.69.69,0,0,1,229.46,131.11Z"/><path class="cls-3" d="M139.71,160a1.34,1.34,0,1,1-.09-2.67A1.34,1.34,0,0,1,139.71,160Z"/><path class="cls-3" d="M201.3,75.85a.75.75,0,1,1-.06-1.49A.75.75,0,1,1,201.3,75.85Z"/><path class="cls-3" d="M168.15,158.51a.8.8,0,0,1-.06-1.59A.8.8,0,0,1,168.15,158.51Z"/><path class="cls-3" d="M114.74,143.25a.82.82,0,0,1-.06-1.63A.82.82,0,1,1,114.74,143.25Z"/><path class="cls-3" d="M119.41,115.62a.74.74,0,0,1,0-1.47A.74.74,0,0,1,119.41,115.62Z"/><path class="cls-3" d="M130,59.67a.75.75,0,0,1,0-1.5A.75.75,0,1,1,130,59.67Z"/><path class="cls-3" d="M125.2,54.58a.84.84,0,1,1-.06-1.67A.84.84,0,1,1,125.2,54.58Z"/><path class="cls-3" d="M81.57,80.89A15.34,15.34,0,0,0,79.84,78a16.78,16.78,0,0,0-3-1.54,15.39,15.39,0,0,0,2.92-1.62A14.64,14.64,0,0,0,81.25,72,15.34,15.34,0,0,0,83,74.82a16.13,16.13,0,0,0,3,1.54A15.39,15.39,0,0,0,83.1,78,14.64,14.64,0,0,0,81.57,80.89Z"/><path class="cls-3" d="M111.83,81.8a8.37,8.37,0,0,0-.92-1.52,8.79,8.79,0,0,0-1.62-.81,8,8,0,0,0,1.56-.87,7.53,7.53,0,0,0,.81-1.54,8.37,8.37,0,0,0,.92,1.52,9.12,9.12,0,0,0,1.62.81,7.74,7.74,0,0,0-1.55.87A7.7,7.7,0,0,0,111.83,81.8Z"/><path class="cls-3" d="M21.78,79.43a.75.75,0,1,1-.05-1.49A.75.75,0,1,1,21.78,79.43Z"/><path class="cls-3" d="M176.92,60.06a8,8,0,0,0-.92-1.52,8.66,8.66,0,0,0-1.62-.82,8.43,8.43,0,0,0,1.56-.86,8.4,8.4,0,0,0,.81-1.55,8,8,0,0,0,.92,1.52,8.36,8.36,0,0,0,1.62.82,8.43,8.43,0,0,0-1.56.86A7.81,7.81,0,0,0,176.92,60.06Z"/><path class="cls-3" d="M79.07,107.07a.89.89,0,0,1-.06-1.78A.89.89,0,0,1,79.07,107.07Z"/><path class="cls-3" d="M201.83,146.16a.47.47,0,1,1,0-.94A.47.47,0,0,1,201.83,146.16Z"/><path class="cls-3" d="M121,178.5a.84.84,0,1,1-.06-1.67A.84.84,0,0,1,121,178.5Z"/><path class="cls-3" d="M171.48,172.56a.82.82,0,1,1-.06-1.63A.82.82,0,0,1,171.48,172.56Z"/><path class="cls-3" d="M55.43,80.43a.74.74,0,1,1,0-1.48A.74.74,0,1,1,55.43,80.43Z"/><path class="cls-3" d="M109.47,154.18a.81.81,0,0,1-.06-1.62A.81.81,0,0,1,109.47,154.18Z"/><path class="cls-3" d="M196,69a1.34,1.34,0,0,1-.1-2.67A1.34,1.34,0,0,1,196,69Z"/><path class="cls-3" d="M131.76,110.83c-2.31,0-2.44-3.43-.13-3.47A1.74,1.74,0,1,1,131.76,110.83Z"/><path class="cls-3" d="M77.51,85a.75.75,0,1,1-.05-1.49A.75.75,0,1,1,77.51,85Z"/><path class="cls-3" d="M129.11,158.89a.82.82,0,0,1-.06-1.63A.82.82,0,1,1,129.11,158.89Z"/><path class="cls-3" d="M48.13,179.52a.74.74,0,0,1-.47,1.4A.74.74,0,1,1,48.13,179.52Z"/><path class="cls-3" d="M31.91,178.66c2.18.78,1.07,4.07-1.1,3.28A1.73,1.73,0,1,1,31.91,178.66Z"/><path class="cls-3" d="M92.15,169.86a7.29,7.29,0,0,0,1.23.93,7.58,7.58,0,0,0,1.56.15,6.8,6.8,0,0,0-1,1.19,6.57,6.57,0,0,0-.16,1.5,7.29,7.29,0,0,0-1.23-.93,7.58,7.58,0,0,0-1.56-.15,7.21,7.21,0,0,0,1-1.19A6.57,6.57,0,0,0,92.15,169.86Z"/><path class="cls-3" d="M70.67,150a8.11,8.11,0,0,0,1.42,1.08,8.83,8.83,0,0,0,1.8.17,7.87,7.87,0,0,0-1.13,1.37,7.9,7.9,0,0,0-.19,1.74,8.11,8.11,0,0,0-1.42-1.08,8.15,8.15,0,0,0-1.8-.17,8.28,8.28,0,0,0,1.13-1.37A8,8,0,0,0,70.67,150Z"/><path class="cls-3" d="M15.54,122.56a1.64,1.64,0,0,1,.1.49.85.85,0,0,1-1.49.61C13.15,122.4,15.09,121.53,15.54,122.56Z"/><path class="cls-3" d="M56.44,140.81a.43.43,0,1,1,.34.78A.43.43,0,0,1,56.44,140.81Z"/><path class="cls-3" d="M93.38,158.69a8.18,8.18,0,0,0,1.42,1.07,8.15,8.15,0,0,0,1.8.17,8.28,8.28,0,0,0-1.13,1.37,8,8,0,0,0-.19,1.74A8.64,8.64,0,0,0,93.86,162a8.65,8.65,0,0,0-1.8-.16,8,8,0,0,0,1.13-1.38A7.82,7.82,0,0,0,93.38,158.69Z"/><path class="cls-3" d="M14.85,136.12a.72.72,0,0,1,.57,1.32A.72.72,0,1,1,14.85,136.12Z"/><path class="cls-3" d="M69.94,168.3a1.3,1.3,0,0,1,.11.48.86.86,0,0,1-1.5.61,1.65,1.65,0,0,1-.28-.41C67.81,168,69.49,167.26,69.94,168.3Z"/><path class="cls-3" d="M33.16,154.68a1.34,1.34,0,1,1,1.07,2.45A1.34,1.34,0,0,1,33.16,154.68Z"/><path class="cls-3" d="M62.52,161.11a.81.81,0,1,1,.64,1.49A.81.81,0,1,1,62.52,161.11Z"/><path class="cls-3" d="M43.77,130.6a.84.84,0,0,1,.67,1.54A.84.84,0,1,1,43.77,130.6Z"/><path class="cls-3" d="M63.43,149a.81.81,0,0,1,.64,1.49A.81.81,0,0,1,63.43,149Z"/><path class="cls-3" d="M43.42,151.81a.81.81,0,1,1,.65,1.49A.81.81,0,0,1,43.42,151.81Z"/><path class="cls-3" d="M166.34,117.28a.61.61,0,1,1,0-1.21A.61.61,0,0,1,166.34,117.28Z"/><path class="cls-3" d="M78.22,45a.82.82,0,1,1-.06-1.63A.82.82,0,0,1,78.22,45Z"/><path class="cls-3" d="M71.31,27.21a8.37,8.37,0,0,0-.92-1.52,9.12,9.12,0,0,0-1.62-.81A8,8,0,0,0,70.33,24a8.09,8.09,0,0,0,.81-1.54A8.37,8.37,0,0,0,72.06,24a8.79,8.79,0,0,0,1.62.81,8,8,0,0,0-1.56.87A7.53,7.53,0,0,0,71.31,27.21Z"/><path class="cls-3" d="M75.73,7.11a1.34,1.34,0,0,1-.1-2.68A1.34,1.34,0,0,1,75.73,7.11Z"/><path class="cls-3" d="M87.73,48.23a.82.82,0,1,1-.06-1.63A.82.82,0,0,1,87.73,48.23Z"/><path class="cls-3" d="M105.57,22.42a.61.61,0,0,1,0-1.21A.61.61,0,1,1,105.57,22.42Z"/><path class="cls-3" d="M72.38,1.08a.54.54,0,0,1,0-1.08A.54.54,0,0,1,72.38,1.08Z"/><path class="cls-3" d="M45.59,8.54A8.56,8.56,0,0,0,44.66,7a8.78,8.78,0,0,0-1.61-.81,8.43,8.43,0,0,0,1.55-.86,8,8,0,0,0,.82-1.55,8,8,0,0,0,.92,1.52A8.36,8.36,0,0,0,48,6.13,7.87,7.87,0,0,0,46.4,7,7.55,7.55,0,0,0,45.59,8.54Z"/><path class="cls-3" d="M34.09,47.93a.75.75,0,0,1,1-1.15A.75.75,0,0,1,34.09,47.93Z"/><path class="cls-3" d="M62.65,47.38a.84.84,0,1,1-.06-1.67A.84.84,0,0,1,62.65,47.38Z"/><path class="cls-3" d="M92.61,10.23a.43.43,0,1,1,0-.85A.43.43,0,1,1,92.61,10.23Z"/><path class="cls-3" d="M96.71,37.08a.69.69,0,0,1,0-1.37A.69.69,0,1,1,96.71,37.08Z"/><path class="cls-3" d="M33.6,23.24A.61.61,0,0,1,33.55,22,.61.61,0,0,1,33.6,23.24Z"/><path d="M116.49,8.63c-1.57,0-2.79,2.27-3.71,6.94a83.92,83.92,0,0,0-1.29,15.59.66.66,0,1,0,1.31,0,83,83,0,0,1,1.26-15.34C115.22,10,116.48,10,116.49,10s1.27.06,2.43,5.87a83,83,0,0,1,1.26,15.34,83,83,0,0,1-1.26,15.34c-1.16,5.81-2.42,5.88-2.43,5.88-.28,0-.94-.59-1.65-2.78A41.44,41.44,0,0,1,113.37,42l2.11-.25-3.12-2.6L110,42.38l2.11-.26c.53,4.62,1.77,11.57,4.42,11.57,1.57,0,2.79-2.27,3.72-6.94a84.79,84.79,0,0,0,1.28-15.59,84.87,84.87,0,0,0-1.28-15.59C119.28,10.9,118.06,8.63,116.49,8.63Z"/><path d="M118.69,26.18h0a.66.66,0,0,0,0,1.32,75,75,0,0,1,13.86,1.38c4.09.89,5.18,1.88,5.18,2.28,0,0-.07,1.27-5.88,2.43a83,83,0,0,1-15.34,1.26,83,83,0,0,1-15.34-1.26c-5.81-1.16-5.87-2.42-5.87-2.43,0-.71,2.86-2.39,11.58-3.24l.08,2.11,2.85-2.89-3.05-2.67.07,2.14a48.65,48.65,0,0,0-8.7,1.51c-2.79.83-4.15,1.82-4.15,3,0,1.57,2.27,2.79,6.94,3.72a84.87,84.87,0,0,0,15.59,1.28,84.87,84.87,0,0,0,15.59-1.28c4.67-.93,6.94-2.15,6.94-3.72C139,27.55,126.24,26.33,118.69,26.18Z"/><path class="cls-4" d="M115.57,10.87c-.47,0-.93.06-1.4.11C114.64,10.93,115.1,10.89,115.57,10.87Z"/><path class="cls-5" d="M116.49,10.85l-.88,0a8.17,8.17,0,0,0-.55,1.22h-.16c.53,0,1.06-.07,1.59-.07a19.16,19.16,0,0,1,18.92,16.3s0,0,0,0a12.84,12.84,0,0,1,1.26.48A20.34,20.34,0,0,0,116.49,10.85Z"/><path class="cls-5" d="M96.18,31.16c0,.3,0,.59,0,.88a8.17,8.17,0,0,0,1.22.55c0,.06-.06-.89-.06-1.43a19.15,19.15,0,0,1,16.28-18.91h0c.15-.46.31-.88.47-1.25A20.33,20.33,0,0,0,96.18,31.16Z"/><path class="cls-5" d="M135.57,29.73c0-.05.05.9.05,1.43a19.17,19.17,0,0,1-16.27,18.92h0c-.15.47-.31.88-.47,1.26a20.34,20.34,0,0,0,17.9-20.17c0-.3,0-.59,0-.89A9.8,9.8,0,0,0,135.57,29.73Z"/><path class="cls-4" d="M117.41,51.45c.47,0,.94-.06,1.4-.11C118.35,51.39,117.88,51.43,117.41,51.45Z"/><path class="cls-5" d="M97.58,34v0c-.46-.15-.88-.31-1.25-.47a20.33,20.33,0,0,0,20.16,17.9l.88,0a8,8,0,0,0,.55-1.21l.16,0c-.53,0-1,.07-1.59.07A19.14,19.14,0,0,1,97.58,34Z"/><path class="cls-5" d="M181,47.51a22.23,22.23,0,1,0,25.17,18.85A22.24,22.24,0,0,0,181,47.51Z"/><path class="cls-6" d="M201.19,65.92c-1.4.2-2.29,2-2,4.12s1.68,3.59,3.08,3.39,2.3-2.05,2-4.12S202.6,65.71,201.19,65.92Z"/><path class="cls-6" d="M172.77,65c-4.25.61-7.11,5.21-6.38,10.27s4.76,8.67,9,8.06,7.1-5.21,6.38-10.27S177,64.39,172.77,65Z"/><path class="cls-6" d="M179.57,84.35a2.79,2.79,0,1,0,2.68,2.4A2.57,2.57,0,0,0,179.57,84.35Z"/><path class="cls-6" d="M167.22,60.9c-.7.1-1.15,1-1,2.08s.84,1.83,1.54,1.73,1.15-1,1-2.09S167.92,60.8,167.22,60.9Z"/><path class="cls-6" d="M201.76,60.83c-.7.1-1.15,1-1,2.09s.85,1.82,1.55,1.72,1.14-1,1-2.09S202.46,60.73,201.76,60.83Z"/><path class="cls-6" d="M191.38,85.21a1.49,1.49,0,1,0,1.68,1.26A1.49,1.49,0,0,0,191.38,85.21Z"/><path class="cls-6" d="M190.39,50.8a.73.73,0,0,0-.61.81.71.71,0,0,0,.81.6.7.7,0,0,0,.6-.8A.72.72,0,0,0,190.39,50.8Z"/><path class="cls-6" d="M200.93,77.11a.71.71,0,0,0-.6.81.7.7,0,0,0,.8.6.71.71,0,0,0,.61-.8A.73.73,0,0,0,200.93,77.11Z"/><path class="cls-6" d="M170.65,62a.72.72,0,0,0-.6.81.71.71,0,0,0,.81.6.7.7,0,0,0,.6-.8A.73.73,0,0,0,170.65,62Z"/><path class="cls-6" d="M176.48,84.08a.71.71,0,0,0-.61.8.73.73,0,0,0,.81.61.71.71,0,0,0,.6-.81A.7.7,0,0,0,176.48,84.08Z"/><g class="cls-7"><path class="cls-3" d="M199.89,85.24a22.22,22.22,0,1,1,0-31.43A22.45,22.45,0,0,1,199.89,85.24Zm-31.43,0a23,23,0,0,0,31.43,0,23,23,0,0,0,0-31.43,23,23,0,0,0-31.43,0A23,23,0,0,0,168.46,85.22Z"/><path class="cls-3" d="M201.83,83a32.32,32.32,0,0,1-35.34-.06l-.11-.15a33.09,33.09,0,0,0,35.56.06Z"/><path class="cls-3" d="M203.5,80.4a47.37,47.37,0,0,1-38.7-.12l-.1-.18a48.54,48.54,0,0,0,38.89.13A1.4,1.4,0,0,1,203.5,80.4Z"/><path class="cls-3" d="M204.81,77.6a72.88,72.88,0,0,1-41.34-.23c0-.07,0-.11-.07-.19a75,75,0,0,0,41.48.24Z"/><path class="cls-3" d="M205.73,74.62a128.48,128.48,0,0,1-43.17-.38c0-.08,0-.12,0-.2a134.12,134.12,0,0,0,43.25.39C205.75,74.5,205.75,74.54,205.73,74.62Z"/><path class="cls-3" d="M206.23,71.5A382,382,0,0,1,162.11,71a1.41,1.41,0,0,1,0-.21,430.41,430.41,0,0,0,44.14.55C206.24,71.38,206.23,71.42,206.23,71.5Z"/><path class="cls-3" d="M206.27,68.27a433.27,433.27,0,0,0-44.14-.54,1.36,1.36,0,0,1,0-.2,381.86,381.86,0,0,1,44.11.54A1.34,1.34,0,0,1,206.27,68.27Z"/><path class="cls-3" d="M205.85,65a134.12,134.12,0,0,0-43.25-.39c0-.08,0-.11,0-.19a128.48,128.48,0,0,1,43.17.38C205.83,64.87,205.83,64.91,205.85,65Z"/><path class="cls-3" d="M205,61.84a75.09,75.09,0,0,0-41.48-.23l.07-.18a72.8,72.8,0,0,1,41.34.23Z"/><path class="cls-3" d="M203.67,58.92a48.54,48.54,0,0,0-38.89-.12,1.4,1.4,0,0,1,.09-.17,47.33,47.33,0,0,1,38.7.12Z"/><path class="cls-3" d="M202,56.26a33.07,33.07,0,0,0-35.56-.06l.11-.15a32.34,32.34,0,0,1,35.34.05Z"/><path class="cls-3" d="M197.6,87.21l-.16.11a33.09,33.09,0,0,0,.06-35.57l.15.12A32.34,32.34,0,0,1,197.6,87.21Z"/><path class="cls-3" d="M195,88.9l-.18.1a48.52,48.52,0,0,0,.13-38.9l.17.1A47.33,47.33,0,0,1,195,88.9Z"/><path class="cls-3" d="M192,90.23l-.18.07a75.09,75.09,0,0,0,.23-41.48l.18.07A72.88,72.88,0,0,1,192,90.23Z"/><path class="cls-3" d="M188.91,91.14l-.2,0a134.12,134.12,0,0,0,.39-43.25l.19,0A128.48,128.48,0,0,1,188.91,91.14Z"/><path class="cls-3" d="M185.63,91.59h-.2A433.31,433.31,0,0,0,186,47.46h.2A382,382,0,0,1,185.63,91.59Z"/><path class="cls-3" d="M182.4,91.57l-.2,0a381.86,381.86,0,0,1,.54-44.11l.2,0A433.47,433.47,0,0,0,182.4,91.57Z"/><path class="cls-3" d="M179.27,91.1l-.19,0a128.48,128.48,0,0,1,.38-43.17l.2,0A134.12,134.12,0,0,0,179.27,91.1Z"/><path class="cls-3" d="M176.28,90.21l-.18-.07a72.88,72.88,0,0,1,.23-41.34l.19-.07A75,75,0,0,0,176.28,90.21Z"/><path class="cls-3" d="M173.47,88.92l-.17-.09a47.35,47.35,0,0,1,.12-38.71l.18-.09A48.5,48.5,0,0,0,173.47,88.92Z"/><path class="cls-3" d="M170.87,87.27l-.15-.11a32.34,32.34,0,0,1,.05-35.34l.16-.11A33.09,33.09,0,0,0,170.87,87.27Z"/></g><g class="cls-8"><path class="cls-5" d="M84.24,164.23a8.62,8.62,0,0,0,4.56-2.43,41.92,41.92,0,0,1,.82,9c-1.37,3.39-5.66,9.94-5.31,9.85a17.76,17.76,0,0,0,4.06-1.72,32.16,32.16,0,0,1-2.31,5.83c-2,3.86-5.14,7.22-5.8,11.62a.3.3,0,0,1-.13.21c0,.24-.22.47-.46.31-8-5.34-11-15.06-13.53-23.84l-.36-1.24A27.78,27.78,0,0,0,73,175.68c.36.13-5.57-6.5-8.44-9.53a20.36,20.36,0,0,1,.09-6.56c.86-4.6,2.92-9.11,5-13.29.08-.17.18-.34.26-.51a21.11,21.11,0,0,0,3.89,4.85c.27.25-1.43-5.35-2.32-7.89.53-.95,1.06-1.9,1.62-2.83.73-1.24,1.54-3.27,3.23-3.31s6.42,5.86,7.21,7.66c.34.76.66,1.55,1,2.34.14.34.27.69.39,1a99.35,99.35,0,0,1,3,9.75c-.09.2-.17.4-.27.59C86.51,160,83.91,164.28,84.24,164.23Z"/><path d="M77.4,162c3.3-1.1,5.53-3.7,7.64-6.34.31-.4-.26-.94-.58-.55-2,2.48-4,5-7.12,6.07-.15-5.19-.19-10.37-.06-15.56,0-.51-.78-.49-.79,0-.17,6.87-.07,13.74.25,20.6A34,34,0,0,1,70.68,158c-.24-.44-.91,0-.67.42a34.94,34.94,0,0,0,6.47,8.71.36.36,0,0,0,.31.1q.12,2.25.27,4.5a21.57,21.57,0,0,1-4.35-5.26c-.25-.44-.93,0-.67.41A22.14,22.14,0,0,0,77,172.7a.48.48,0,0,0,.18.08q.51,7.4,1.39,14.75a.51.51,0,0,0,0,.18c.2,1.8.45,3.58.73,5.36l.51,3.5a.31.31,0,0,0,.16.24,172.56,172.56,0,0,0,9.76,31.8l.73-.31c-4.7-11.67-8.56-23.63-10.49-36.09q-.27-2-.51-4a.36.36,0,0,0,.34-.1,13.07,13.07,0,0,0,2.92-4.25c.2-.47-.49-.85-.69-.38a12.6,12.6,0,0,1-2.67,3.94Q77.77,174.78,77.36,162Z"/><path class="cls-5" d="M54.3,189.21a8.54,8.54,0,0,1-4.51,1.18,30,30,0,0,0,4.31,5.89c2.8,1.25,9.35,2.69,9.06,2.83a17.64,17.64,0,0,1-3.77,1.33,25.4,25.4,0,0,0,4.77,2.16c3.47,1.17,7.51,1.35,10.36,3.61a.22.22,0,0,0,.2,0,.29.29,0,0,0,.49-.08c2.71-7.86-.49-15.41-3.46-22.16-.14-.32-.28-.64-.43-1a25.42,25.42,0,0,1-2.94,6.5c-.19.28.36-7.14.73-10.62a15,15,0,0,0-3.62-3.89c-3.09-2.26-7-3.77-10.67-5.1l-.46-.16a16.64,16.64,0,0,1-.09,5.17c-.06.31-1.9-4-2.66-6.08-.88-.26-1.77-.53-2.66-.76-1.18-.32-2.85-1.07-4.06-.11s-1.3,7.24-.88,8.78c.18.65.38,1.31.59,2,.09.29.19.57.29.85a72.25,72.25,0,0,0,3.22,7.57l.5.2C50.44,188,54.56,189.05,54.3,189.21Z"/><path d="M85.39,231A123.2,123.2,0,0,0,75,206.26a.24.24,0,0,0,0-.24c-.5-.8-1-1.6-1.53-2.39-.77-1.23-1.56-2.45-2.4-3.65l-.1-.1q-3.37-4.92-7-9.66a.34.34,0,0,0,.07-.16,17.2,17.2,0,0,0,.29-6.34c-.06-.41-.75-.27-.7.14a16.71,16.71,0,0,1-.18,5.68c-.75-.95-1.5-1.91-2.26-2.85a.32.32,0,0,0,.16-.24,26.81,26.81,0,0,0-.19-9c-.08-.4-.77-.26-.69.14a26.17,26.17,0,0,1,.24,8.48c-3.5-4.31-7.15-8.49-11-12.52-.29-.3-.85.15-.56.45q4.34,4.56,8.38,9.37c-2.74,1.13-5.54.84-8.26.5a.33.33,0,0,0-.11.66c2.91.36,5.87.63,8.78-.63,0,0,0,0,0,0q6.63,7.91,12.44,16.4a10.56,10.56,0,0,1-4-.82c-.39-.16-.67.47-.28.63a11.34,11.34,0,0,0,4.36.86.41.41,0,0,0,.29-.13c.6.88,1.19,1.77,1.78,2.67a116.89,116.89,0,0,1,12.23,27.75Z"/><path d="M51.06,180.07a18.2,18.2,0,0,1-6.46-1.32c.09.29.19.57.29.85A19.27,19.27,0,0,0,51,180.73C51.4,180.73,51.51,180.08,51.06,180.07Z"/><path class="cls-5" d="M117.73,174.52c.44,2.81-5.8,5.29-7.73,6.4-4.26,2.48-8.4,5-11.14,9.19a152,152,0,0,0-8.37,15.94.82.82,0,0,1-.75.48,13,13,0,0,1-1.3-1.88C86.76,202,84,196.94,84,193.83a18.83,18.83,0,0,1,1-6.41,5.45,5.45,0,0,0,1.74,2.34c.19.14-.15-3.91-.23-5.77.23-.42.48-.82.74-1.22a19.39,19.39,0,0,1,2-2.62c.16-.18.31-.36.48-.52a23.94,23.94,0,0,1,1.93-1.83l.55-.46a24.12,24.12,0,0,1,2-1.45,15,15,0,0,0,1.89,3.78,27.18,27.18,0,0,0-.33-4.75c.65-.38,1.33-.73,2-1.06a11.46,11.46,0,0,0,1.34,2.42c.13.18.69-2.3.86-3.38a28.64,28.64,0,0,1,6.85-1.75l.59-.06c.63-.07,1.26-.1,1.88-.12,2.29,0,7.79.47,8.42,3.47C117.72,174.46,117.72,174.49,117.73,174.52Z"/><path d="M94.08,186.2c-4.56,6.38-4.54,16.65-4.4,19.55a13,13,0,0,0-.49,3.88,83.31,83.31,0,0,0,2,13.77c.3,1.48.62,2.95,1,4.42l.74-.28c-.21-.92-.41-1.85-.61-2.78-.83-4-1.53-8.07-2.05-12.13a18.31,18.31,0,0,1,0-6.31,1,1,0,0,0,.21-.27,152,152,0,0,1,8.37-15.94c2.73-4.24,6.88-6.71,11.14-9.19,1.93-1.11,8.17-3.59,7.72-6.4C109.27,177,99.33,178.85,94.08,186.2Z"/><path d="M93.39,183.58a18.06,18.06,0,0,1-1.2-6.24l-.55.46a18.53,18.53,0,0,0,1.21,6C93,184.14,93.51,183.92,93.39,183.58Z"/><path d="M91.47,185.06a23.93,23.93,0,0,1-1.76-5.43c-.17.16-.32.34-.48.52a24.73,24.73,0,0,0,1.71,5.13C91.1,185.62,91.63,185.39,91.47,185.06Z"/><path class="cls-5" d="M173.32,167.76a8.57,8.57,0,0,0,5.16-.27,41.82,41.82,0,0,1-3.09,8.51c-2.68,2.49-9.36,6.59-9,6.65a17.11,17.11,0,0,0,4.4.17,32.06,32.06,0,0,1-4.57,4.3c-3.42,2.65-7.72,4.34-10.19,8a.29.29,0,0,1-.21.13.31.31,0,0,1-.55.08c-5-8.24-3.52-18.29-2.1-27.32.07-.43.13-.85.21-1.28a27.81,27.81,0,0,0,4.88,6.55c.28.27-2.27-8.25-3.58-12.21a20.42,20.42,0,0,1,2.87-5.9c2.73-3.8,6.52-7,10.14-9.92l.46-.35a20.76,20.76,0,0,0,1.46,6c.13.34,1-5.45,1.25-8.12.89-.64,1.77-1.27,2.67-1.88,1.19-.81,2.79-2.3,4.34-1.62s3.31,8,3.26,10c0,.84-.07,1.68-.13,2.53,0,.36-.05.73-.08,1.1a99.48,99.48,0,0,1-1.48,10.08,4.93,4.93,0,0,1-.49.42C177.16,164.92,173,167.67,173.32,167.76Z"/><path d="M168.06,162.84c3.46.41,6.58-1,9.62-2.48.45-.23.16-1-.29-.74-2.85,1.4-5.78,2.78-9,2.45,2.07-4.75,4.24-9.46,6.56-14.1.23-.45-.49-.78-.72-.32q-4.6,9.22-8.53,18.75a33.78,33.78,0,0,1-2-10.05c0-.5-.8-.41-.78.09a34.29,34.29,0,0,0,2.16,10.64.34.34,0,0,0,.23.22c-.57,1.39-1.12,2.79-1.67,4.18a21.2,21.2,0,0,1-1.7-6.6.39.39,0,0,0-.78.08,21.67,21.67,0,0,0,2,7.36.36.36,0,0,0,.12.15q-2.67,6.9-5,13.94a.38.38,0,0,0-.09.15q-.87,2.58-1.62,5.17c-.34,1.13-.69,2.25-1,3.38a.29.29,0,0,0,0,.29,172.09,172.09,0,0,0-4.7,32.93l.79,0c.71-12.56,2.31-25,5.86-37.12.4-1.27.81-2.54,1.22-3.8a.38.38,0,0,0,.35.05,13.2,13.2,0,0,0,4.46-2.61c.38-.33-.08-1-.46-.64a12.47,12.47,0,0,1-4.1,2.44q4-12.12,9.07-23.85Z"/><path class="cls-5" d="M135.59,177.63a8.65,8.65,0,0,1-4.58-.85,29.66,29.66,0,0,0,1.39,7.16c2,2.32,7.33,6.41,7,6.42a17.52,17.52,0,0,1-4-.41,25.65,25.65,0,0,0,3.4,4c2.64,2.53,6.22,4.41,7.84,7.67a.19.19,0,0,0,.16.13.29.29,0,0,0,.48.14c5.79-6,6.1-14.15,6.29-21.53,0-.35,0-.69,0-1a25.33,25.33,0,0,1-5.43,4.62c-.29.18,3.37-6.3,5.18-9.3a14.88,14.88,0,0,0-1.61-5.06c-1.84-3.36-4.72-6.38-7.49-9.16l-.35-.33a16.45,16.45,0,0,1-2.29,4.64c-.18.25,0-4.47.19-6.63-.69-.62-1.38-1.24-2.09-1.83-.93-.79-2.12-2.18-3.62-1.83s-4.27,6-4.54,7.57c-.12.67-.21,1.35-.29,2-.05.3-.08.6-.11.89a73,73,0,0,0-.3,8.22c.12.14.24.27.37.4C132.61,174.89,135.9,177.59,135.59,177.63Z"/><path d="M145.94,228.69a123.14,123.14,0,0,0,1.12-26.83.26.26,0,0,0,.08-.23c-.12-.94-.24-1.88-.37-2.82-.17-1.44-.37-2.88-.62-4.32a.21.21,0,0,0-.05-.13q-1-5.9-2.24-11.73a.45.45,0,0,0,.13-.11,17.36,17.36,0,0,0,3-5.62c.12-.4-.57-.57-.69-.17a16.74,16.74,0,0,1-2.59,5.06c-.26-1.18-.54-2.36-.82-3.54a.34.34,0,0,0,.25-.15,27.15,27.15,0,0,0,3.65-8.21c.1-.4-.59-.57-.69-.17a26.4,26.4,0,0,1-3.39,7.77q-2-8.07-4.62-16c-.13-.39-.83-.22-.7.17,1.33,4,2.52,8,3.6,12.06-3-.15-5.37-1.61-7.69-3.07-.37-.24-.75.31-.38.55,2.48,1.56,5.05,3.07,8.21,3.17h0q2.64,10,4.28,20.13a11,11,0,0,1-3.28-2.44c-.28-.32-.8.13-.52.45a11.36,11.36,0,0,0,3.58,2.62.36.36,0,0,0,.32,0c.17,1.06.32,2.12.48,3.18a117.06,117.06,0,0,1-.75,30.31Z"/><path d="M136.55,168a17.84,17.84,0,0,1-5.28-3.94c-.05.3-.08.6-.11.89a19.23,19.23,0,0,0,5,3.6C136.58,168.72,137,168.17,136.55,168Z"/><path class="cls-5" d="M199.24,191.31c-.79,2.74-7.5,2.32-9.71,2.51-4.91.43-9.71.9-14,3.58a151.05,151.05,0,0,0-14.36,10.86.83.83,0,0,1-.89.12,13.11,13.11,0,0,1-.37-2.26c-.37-3.16-.71-8.85.54-11.7a18.39,18.39,0,0,1,3.65-5.36,5.46,5.46,0,0,0,.58,2.85c.11.21,1.53-3.61,2.24-5.32.39-.28.79-.54,1.19-.79a20.41,20.41,0,0,1,2.94-1.52c.21-.09.43-.19.65-.27.82-.31,1.67-.59,2.52-.83l.7-.18c.79-.19,1.6-.35,2.42-.47a14.64,14.64,0,0,0,.1,4.23,26.3,26.3,0,0,0,1.72-4.43c.76-.08,1.52-.1,2.29-.11a12.26,12.26,0,0,0,.18,2.77c.05.22,1.61-1.79,2.23-2.69a27.89,27.89,0,0,1,6.93,1.33l.57.19c.59.21,1.18.44,1.74.7,2.09.94,6.86,3.73,6.15,6.71A.19.19,0,0,1,199.24,191.31Z"/><path d="M172.88,191.83c-6.85,3.83-11.2,13.14-12.31,15.81a13.23,13.23,0,0,0-2.09,3.3,82.55,82.55,0,0,0-4,13.33c-.36,1.46-.7,2.93-1,4.4l.79.07c.2-.93.41-1.86.63-2.78,1-4,2-8,3.31-11.85a17.9,17.9,0,0,1,2.72-5.69,1.1,1.1,0,0,0,.3-.16,151.05,151.05,0,0,1,14.36-10.86c4.27-2.68,9.08-3.15,14-3.58,2.21-.19,8.92.22,9.71-2.51C190.52,190,180.75,187.41,172.88,191.83Z"/><path d="M173.36,189.15a18.17,18.17,0,0,1,1.57-6.15l-.7.18a18.87,18.87,0,0,0-1.45,5.95A.29.29,0,0,0,173.36,189.15Z"/><path d="M171,189.68a24.06,24.06,0,0,1,.71-5.67c-.22.08-.44.18-.65.27a24.89,24.89,0,0,0-.64,5.38C170.42,190,171,190.05,171,189.68Z"/><path class="cls-3" d="M138.65,152.19c.28.14,10.59,7.51,19.46,13.43,7,4.65,28.87-23.69,30.07-25.36-1.39-1.84-6-5.19-6-5.19.39.46-14.93,16.53-19.33,12.88-4.89-4.06-15-16.76-16.3-16.67C134.27,132.31,135.23,150.52,138.65,152.19Z"/><path d="M159.93,166.39a3.51,3.51,0,0,1-2-.55c-6.29-4.2-13.23-9.07-17-11.69-1.37-1-2.36-1.66-2.48-1.73-1.95-1-2.94-6.38-2-11.17,1.14-6.06,4.79-9.79,10-10.23h0c.73,0,2.68,2.08,7.2,7.11a116.94,116.94,0,0,0,9.25,9.62,3.1,3.1,0,0,0,2.93.24c5.84-1.7,15.24-11.63,15.95-12.86l-1.29-1.53,1.73,1.25c.19.14,4.68,3.4,6.07,5.26l.12.15-.12.16C188.19,140.7,168.78,166.39,159.93,166.39Zm-13.37-34.84c-6.82.57-8.91,6.39-9.56,9.8-.93,4.94.21,9.84,1.77,10.61h0c.09,0,.56.37,2.54,1.76,3.72,2.62,10.66,7.49,16.95,11.68s26.33-20.66,29.59-25.13a39.31,39.31,0,0,0-5.58-4.8,22.85,22.85,0,0,1-2.92,3.3c-2.11,2.12-12.83,12.57-16.68,9.38a114.8,114.8,0,0,1-9.31-9.67C150.46,135.26,147.17,131.6,146.56,131.55Z"/><path class="cls-9" d="M128.37,140.74a18.2,18.2,0,0,0,6.08,11.32c.64.57,5.1,4.94,6.06,6.16,6.42-2.89,11.89-12.77,11.57-23.88-5.26-6.1-12.72-9.5-19.65-11.12-.94-.24-1.84-.42-2.75-.58a44.73,44.73,0,0,0-6.47-.67C115.81,121.72,128.07,136.94,128.37,140.74Z"/><path d="M133.57,151.23c.63.57,3.62,3.53,4.22,4.1,2.92-2.83,7.85-9.75,7.66-13.09-.32-6-5.74-11.75-6.1-12.18C138.41,129.82,139,142.63,133.57,151.23Z"/><path class="cls-5" d="M202.53,144.42c1.95-4.48-13.91-11.5-16.88-13.94s2.82-6,4.07-9.69c2.06-6.13,1-10.81-5.49-8.13l-.26.13C177.64,115.7,173.74,127,177.8,134,181.59,140.55,200.81,148.35,202.53,144.42Z"/><path d="M202,145c-.09-.17,6.09-3.65-14.06-14.38-2.77-1.48,1.12-6.28,2.37-9.53,2.39-6.2.48-11.12-6-8.44l-.26.13c1.47,0,3.88.07,4.29,1.83.89,3.76-3.75,8.55-4.43,10.83s-2.73,5.29,4.56,8.94C198.32,139.36,199.92,140.7,202,145Z"/><path d="M182.64,114.46l.71.47c.39.26.09,1.4-.66,2.54s-1.69,1.85-2.08,1.59l-.71-.47Z"/><path class="cls-9" d="M179.9,118.59c.39.26,1.32-.45,2.08-1.59s1.05-2.28.66-2.54-1.33.46-2.08,1.6S179.51,118.33,179.9,118.59Z"/><path d="M185.67,116.35l.79.52c.44.29.11,1.57-.75,2.85s-1.89,2.09-2.33,1.8l-.79-.53Z"/><path class="cls-9" d="M182.59,121c.43.29,1.48-.51,2.33-1.79s1.19-2.56.75-2.85-1.48.51-2.34,1.79S182.15,120.7,182.59,121Z"/><path class="cls-3" d="M177.62,127.31a1.87,1.87,0,0,1,.46,1.93c-.39,1.28-1.33,1.49-.45,3.43.25.55,5.08,6.47,5.31,7,.67,1.68-5.12.62-4.49,2-3.28-1.58-4.14-7.23-4.86-8.94a3,3,0,0,1-.15-2.41,8.64,8.64,0,0,1,2.39-2.85C176.33,127.05,176.94,126.7,177.62,127.31Z"/><path d="M179,142.24l-.66-.32c-2.67-1.29-3.76-5-4.48-7.49-.19-.66-.36-1.22-.51-1.59a3.3,3.3,0,0,1-.16-2.61,8.84,8.84,0,0,1,2.47-2.95,1.5,1.5,0,0,1,2.14-.17h0a2.16,2.16,0,0,1,.53,2.21,4.18,4.18,0,0,1-.45,1,2,2,0,0,0,0,2.27c.1.24,1.35,1.83,2.45,3.23a43.21,43.21,0,0,1,2.86,3.82.75.75,0,0,1,0,.72c-.34.56-1.45.66-2.62.76-.69.06-1.73.16-1.86.38,0,0,0,.07,0,.1Zm-2.13-15a1.43,1.43,0,0,0-.87.44,8.21,8.21,0,0,0-2.32,2.75,2.8,2.8,0,0,0,.15,2.21,14.57,14.57,0,0,1,.53,1.64c.66,2.26,1.64,5.62,3.84,7a.05.05,0,0,1,0,0c.25-.44,1-.53,2.27-.64.85-.07,2-.18,2.21-.51,0,0,.06-.1,0-.26s-1.66-2.24-2.79-3.69c-1.48-1.88-2.39-3.05-2.52-3.33a2.47,2.47,0,0,1,0-2.75,4.6,4.6,0,0,0,.4-.86,1.63,1.63,0,0,0-.38-1.67h0A.87.87,0,0,0,176.87,127.24Z"/><path class="cls-3" d="M192.64,136.21c-.54.19-1.62.24-1.83-.49a.58.58,0,0,1,0-.26,3.6,3.6,0,0,1-1,.54c-.81.24-2.21.19-2.08-1a3.14,3.14,0,0,1,.53-1.37,2.27,2.27,0,0,1-2.17-.38c-1-.82-.52-1.73.2-2.5-1,.31-2.49.54-2.41-.84a5.18,5.18,0,0,1,1.08-2.22,7.9,7.9,0,0,1,2.47-2.56c1.09-.39,2.58.15,2.27,1.59a5,5,0,0,1-.37,1.11c.79-.53,1.61-.75,2.23,0s.36,1.85-.17,2.82h.07c.5,0,1.15.05,1.43.59a1.8,1.8,0,0,1-.11,1.41.37.37,0,0,1,.31,0A2,2,0,0,1,192.64,136.21Z"/><path d="M191.9,136.59a1.66,1.66,0,0,1-.81-.17,1,1,0,0,1-.49-.52,3.17,3.17,0,0,1-.78.35,2.35,2.35,0,0,1-2-.22,1.14,1.14,0,0,1-.39-1.09,2.92,2.92,0,0,1,.28-1,2.49,2.49,0,0,1-1.82-.55,1.61,1.61,0,0,1-.67-1.14,1.84,1.84,0,0,1,.34-1.12,2,2,0,0,1-1.57-.22,1.17,1.17,0,0,1-.41-1.07,4.64,4.64,0,0,1,1-2.13l.15-.23c.42-.63,1.7-2.34,2.6-2.66a2.22,2.22,0,0,1,2.16.33,1.56,1.56,0,0,1,.46,1.56,3.24,3.24,0,0,1-.13.49,1.55,1.55,0,0,1,1.93.36,2.45,2.45,0,0,1,.05,2.74,1.53,1.53,0,0,1,1.31.7,1.72,1.72,0,0,1,0,1.28l.07,0a2.18,2.18,0,0,1,1.12,2.15,2.29,2.29,0,0,1-1.54,2h0A2.68,2.68,0,0,1,191.9,136.59Zm-.79-1.7-.06.6a.42.42,0,0,0,0,.16.49.49,0,0,0,.27.31,1.76,1.76,0,0,0,1.22,0h0a1.78,1.78,0,0,0,1.2-1.53,1.69,1.69,0,0,0-.86-1.64.16.16,0,0,0-.09,0l-.55.2.21-.54a1.61,1.61,0,0,0,.13-1.19c-.19-.36-.63-.42-1.18-.44l-.53.08.21-.46c.42-.77.8-1.83.2-2.53-.27-.31-.77-.65-1.88.09l-.76.5.37-.83a5,5,0,0,0,.36-1.05,1.06,1.06,0,0,0-.3-1.07,1.68,1.68,0,0,0-1.63-.22,7.57,7.57,0,0,0-2.34,2.45L185,128a4.35,4.35,0,0,0-.88,1.86.68.68,0,0,0,.21.63c.3.24,1,.22,1.86-.06l1-.3-.69.73a2,2,0,0,0-.7,1.34,1.1,1.1,0,0,0,.48.77,2,2,0,0,0,1.92.34l.7-.22-.4.61a2.9,2.9,0,0,0-.49,1.26.68.68,0,0,0,.2.64,1.9,1.9,0,0,0,1.55.12,3.16,3.16,0,0,0,1-.5Z"/><path class="cls-3" d="M176.75,141.21s.88-.58.56-1.12,1.25-2.91,2.19-2.5,1.2-.08,3.54,1.38,3.23,2.24,0,3.87-6.08,2.75-6.64,1.87S176.75,141.21,176.75,141.21Z"/><path d="M86.21,130.94c3,6.74,14.66,9.74,20.07,4.11,3.38-3.5,9-9,5.17-17.44-2.69-5.93,1.89-14.31,1.37-14.3-14.42.16-16.46,20.4-16.91,22-1.21,4.4-6.24,4.09-8.38,4.26C86.75,129.41,85.81,130.06,86.21,130.94Z"/><path class="cls-3" d="M91.44,325.47,99,327.42s3.1-7.94,5.89-14.65,22.4-40.64,22.4-40.64c5.51-14.5-11.33-34.5-11.33-34.5L98.12,248.4s7.31,11.15,7,11.77c-.41,1-.87,2.09-1.37,3.27a61.77,61.77,0,0,0-5.14,19.79c-.45,5.18-3.35,21.46-5.35,32.21C92.24,321.27,91.44,325.47,91.44,325.47Z"/><path d="M99.13,327.73l-8-2.06.05-.25s.8-4.2,1.87-10c1.45-7.78,4.86-26.49,5.35-32.18a61.72,61.72,0,0,1,5.16-19.87c.5-1.18,1-2.26,1.37-3.27-.06-.65-4.34-7.42-7-11.53l-.14-.22,18.22-11,.15.17c.17.2,16.88,20.29,11.38,34.76-.21.38-19.66,34-22.41,40.66s-5.86,14.56-5.89,14.64Zm-7.39-2.45,7.07,1.83c.52-1.32,3.3-8.42,5.8-14.44C107.37,306,126.84,272.34,127,272c5.1-13.45-9.56-32-11.17-34L98.49,248.48c3.33,5.1,7.17,11.18,6.93,11.79-.42,1-.87,2.1-1.37,3.27a61.08,61.08,0,0,0-5.12,19.71c-.5,5.71-3.92,24.45-5.36,32.24C92.65,320.5,91.92,324.31,91.74,325.28Z"/><path class="cls-3" d="M150.69,243.72s-7.55,20.49-8.64,25.78a13.7,13.7,0,0,1-.63,2.11,1.46,1.46,0,0,0-.08.27c-1.48,4.49-2.91,19.19-8.68,51.51,0,.31-.11.62-.17.9a82.79,82.79,0,0,1-2.59,10.35l8.15.17s2.14-6.73,4.57-13.57,20.2-41.77,20.2-41.77c4.7-14.77-3-46.12-3-46.12Z"/><path d="M138.24,335.08H138l-8.51-.17.12-.34a83.89,83.89,0,0,0,2.58-10.32c.06-.25.11-.52.16-.78l0-.12c2.92-16.37,4.69-28,6-36.51,1.22-8,1.95-12.8,2.69-15a1.18,1.18,0,0,1,.09-.3,13.6,13.6,0,0,0,.61-2.05c1.08-5.26,8.58-25.62,8.65-25.82l.05-.09,9.45-10.74.12.49c.08.31,7.68,31.59,3,46.26-.2.39-17.81,35-20.21,41.78s-4.54,13.49-4.56,13.56Zm-8-.69,7.6.16c.36-1.14,2.33-7.26,4.51-13.4,2.4-6.78,20-41.45,20.21-41.8,4.3-13.49-2-41.4-2.91-45.44l-8.75,9.94c-.4,1.09-7.56,20.61-8.62,25.7a13.06,13.06,0,0,1-.64,2.15.86.86,0,0,0-.06.23c-.74,2.22-1.47,7-2.68,15-1.3,8.5-3.08,20.15-6,36.52l0,.12c-.05.28-.1.55-.16.8A89.55,89.55,0,0,1,130.26,334.39Z"/><path d="M113.46,212.77c.91,1.35,1.89,2.76,2.89,4.21,1.46,2.09,3.3,5.16,5.34,8.78,7.12,12.65,16.5,31.84,19,38.4.17.41.3.8.4,1.11h.75c3.18.05,6.12.12,8.88,0,9.32-.19,16.6-1.89,23.63-10.51-4.67-18.7-25.24-66.12-35.68-79.29-9.93-12.52-29.94,19.37-32.16,23.55C105.68,200.67,108.93,206.07,113.46,212.77Z"/><path d="M121.69,225.76c7.12,12.65,16.5,31.84,19,38.4a10.16,10.16,0,0,0,1.15,1.12c3.18.05,6.12.12,8.88,0-2.36-8.26-4.44-16.7-7.43-24.72-1.22-3.32-3-6.28-4.48-9.47-2.11-4.61-2.74-9.66-3.71-14.6a128.69,128.69,0,0,0-3-13.38c-.55-1.77-1.25-3.73-2.84-4.87-4.12-3-8,.95-10.39,4.29a1,1,0,0,0-.5.7l0,0a.89.89,0,0,0,.19,1.23C119.79,211.58,120.14,218.76,121.69,225.76Z"/><path d="M99.58,262.74a23.09,23.09,0,0,0,10.65,7.41c7.81,2.57,16.63.54,24.64-3.68-3.66-29.72-11.3-65.41-13-73.08-.27-1.22-2.84-4.8-2.84-4.8-9.15-6.93-19.26-9.73-24.76-9.07-2.17.24-3.61,1-4,2.29a83.56,83.56,0,0,0-2.76,11.39c-.06.35-.1.7-.14,1a71.71,71.71,0,0,0,.74,24.35C90.61,232.21,95.75,246.32,99.58,262.74Z"/><path class="cls-9" d="M85.11,185.15a38.07,38.07,0,0,0,10.75,4.62c22.48,6,53.93-5.56,53.93-5.56A83.3,83.3,0,0,1,138,165.59c-.46-1-.89-2-1.31-3-2.11-4.93-1.39-8,.25-10.74,2.22-3.73,6.17-6.65,6.78-12.49,1.05-10.08-20-19.89-20-19.89-32.17-4-25.73,15.46-23.62,31,.2,1.42.36,2.79.44,4.12,0,.28,0,.59,0,.87s0,.76,0,1.14C100.29,171.75,85.11,185.15,85.11,185.15Z"/><path d="M85.11,185.15a38.07,38.07,0,0,0,10.75,4.62c1.86-2.42,3.14-7.26,4.17-9.45,1.93-4.17,3.82-8.35,4.36-12.95.59-5.23-.3-10.45,1.68-15.47a5.28,5.28,0,0,1,.36-.44c.85-1-.76-2.25-1.61-1.26-1.47,1.69-2.86,3.48-4.18,5.28,0,.39,0,.76,0,1.14C100.29,171.75,85.11,185.15,85.11,185.15Z"/><path d="M108.67,147.55c-1.73,2.71-5.15,7.17-8,9.06,0-.67,0-1.34,0-2-.08-1.33-1.17-9.19-1.37-10.61,1-1.58,2-.94,4.31-2.87,6.23-5.18,8-14.85,8-14.85C112.51,133.16,111.21,143.51,108.67,147.55Z"/><path class="cls-3" d="M127.43,115.34l-.36,5.71s1.36,2.91-.19,3.12c-3.42.47-8-5.11-8-5.11l.48-7.66Z"/><path d="M126.46,124.46c-3.44,0-7.57-5-7.75-5.23l-.06-.08.51-8.16,8.54,4.19-.36,5.82c.17.38.85,2,.38,2.9a1,1,0,0,1-.81.53A3.4,3.4,0,0,1,126.46,124.46ZM119.18,119c.57.67,4.63,5.36,7.66,4.94a.54.54,0,0,0,.42-.26c.32-.6-.2-2-.42-2.49l0-.06.35-5.61-7.52-3.68Z"/><path class="cls-3" d="M127.06,96.82a45.21,45.21,0,0,1,6.1,10.93c1.34,3.89-4.92,10.66-12,6.23s-7.2-13.38-7.2-13.38Z"/><path d="M125.88,115.69a9.29,9.29,0,0,1-4.89-1.48c-7.14-4.46-7.32-13.52-7.32-13.61v-.2l13.49-3.88.11.14a45.84,45.84,0,0,1,6.14,11c.67,2-.39,4.52-2.58,6.26A7.83,7.83,0,0,1,125.88,115.69ZM114.2,100.8c.07,1.33.75,9,7.07,13,3.14,1.95,6.59,1.86,9.23-.25,2-1.58,3-4,2.41-5.68a44.63,44.63,0,0,0-6-10.71Z"/><path d="M129.9,96c-.43-.24-1-.07-1.43-.25-1.38-.53-1-1-1.81-1.64a5.14,5.14,0,0,0-2.32-1,13.44,13.44,0,0,0-7.24,1c-.65.31-5.7,3.48-6,7a13.67,13.67,0,0,0,3.37,10.16c1.92,1.94,5,3.22,5.93,0,.67-2.5.06-4.58-.61-7a10.92,10.92,0,0,1-.47-2.33,6.05,6.05,0,0,1,4-3.66c.55.36.2,1,.83,1C127.68,99,132.15,97.33,129.9,96Z"/><path class="cls-3" d="M120.46,104.82s-2.62-.63-2.71,1.39,1.89,2.81,2.75,2.27S121.19,105.51,120.46,104.82Z"/><path d="M119.86,108.91a2.28,2.28,0,0,1-1.13-.32,2.52,2.52,0,0,1-1.24-2.39,1.67,1.67,0,0,1,.63-1.33,3.29,3.29,0,0,1,2.41-.3h.07l.05,0a3.65,3.65,0,0,1,.67,2.65,1.88,1.88,0,0,1-.68,1.42A1.45,1.45,0,0,1,119.86,108.91Zm-.27-3.92a1.93,1.93,0,0,0-1.15.3,1.17,1.17,0,0,0-.43.93,2,2,0,0,0,1,1.91,1.05,1.05,0,0,0,1.8-.91,3.24,3.24,0,0,0-.46-2.16A4.57,4.57,0,0,0,119.59,105Z"/><path class="cls-3" d="M62.49,112.77s-6.27-.39-6.59-.9c0,0-1.64,34.75,7.05,36.52,7.31,1.48,11.63,2.49,27.4-3.07a.76.76,0,0,0,.2-.06c12.52-4.39-2.73-20.44-4.83-19.44a17.82,17.82,0,0,1-2.86,1c-5.75,1.53-6.68,2.8-11.72,3.91C68.75,131.24,62.07,113,62.49,112.77Z"/><path d="M71.71,149.83a40.54,40.54,0,0,1-8.5-1.12l-.32-.07c-8.8-1.79-7.32-35.35-7.25-36.78l0-.84.44.72a34.37,34.37,0,0,0,6.38.77l.92.06-.68.36c.26,1.41,5.16,15,7.82,17.29a.75.75,0,0,0,.52.24,31.47,31.47,0,0,0,5.72-1.86,43.65,43.65,0,0,1,6-2,17.76,17.76,0,0,0,2.82-1c.46-.22,1.23.07,2.3.86,3,2.21,8.49,8.75,7.71,13.88-.36,2.4-2,4.15-5,5.18l-.16-.22.1.24a.69.69,0,0,1-.17.05C81.26,148.8,76,149.83,71.71,149.83ZM56.15,112.27c-.15,3.8-1,34.26,6.85,35.86l.31.06c7.16,1.46,11.48,2.34,27-3.12l0,0h0l.12-.05c2.73-1,4.29-2.56,4.62-4.76.74-4.91-4.61-11.23-7.5-13.37-1.08-.8-1.61-.89-1.76-.82a18.08,18.08,0,0,1-2.92,1,43.78,43.78,0,0,0-5.92,2A31.89,31.89,0,0,1,71.2,131c-2.14.51-6.29-10.17-7.51-13.44A28.33,28.33,0,0,1,62.24,113,33.92,33.92,0,0,1,56.15,112.27Z"/><path class="cls-9" d="M81.27,125c1.94-.93,16-6.28,25.43-4.3,4.29.9,9.84,5.94,8.31,11.26-3.46,12-13.24,12.53-24.91,16.62C83.69,142.19,80.27,134.94,81.27,125Z"/><path class="cls-5" d="M39.84,111c.19-4.88,17.52-4.26,21.26-5.17s.08-6.6.58-10.49c.82-6.41,3.8-10.17,8.49-4.91a2.68,2.68,0,0,1,.17.23c4.43,5.38,3,17.28-3.71,21.79C60.36,116.68,39.67,115.3,39.84,111Z"/><path d="M40.08,111.79c.16-.1-3.88-5.94,18.94-6.79,3.13-.12,1.73-6.13,2-9.61.57-6.62,4.44-10.21,9.13-5a2.68,2.68,0,0,1,.17.23c-1.32-.62-3.52-1.63-4.65-.23-2.45,3-.36,9.33-.75,11.68s.14,5.95-8,6C45.83,108.3,43.8,108.8,40.08,111.79Z"/><path d="M70.81,92.76l-.84.11c-.47.07-.7,1.22-.51,2.57s.7,2.4,1.17,2.34l.84-.11Z"/><path class="cls-9" d="M71.47,97.67c-.46.06-1-1-1.17-2.34s0-2.51.51-2.57,1,1,1.17,2.34S71.94,97.61,71.47,97.67Z"/><path d="M67.26,93.13l-.94.12c-.52.07-.78,1.37-.57,2.89s.79,2.71,1.31,2.64l1-.13Z"/><path class="cls-9" d="M68,98.65c-.53.07-1.11-1.1-1.32-2.63s0-2.82.57-2.89,1.11,1.11,1.32,2.63S68.53,98.58,68,98.65Z"/><path class="cls-3" d="M71.25,107.44a8.76,8.76,0,0,1,.91,3.61,3,3,0,0,1-1.2,2.1c-1.39,1.22-4.63,5.94-8.27,5.92,1.16-.94-4.52-2.52-3.18-3.74.45-.41,7.38-3.62,7.85-4,1.64-1.35.89-2,1.09-3.27a1.91,1.91,0,0,1,1.26-1.55C70.59,106.26,71,106.83,71.25,107.44Z"/><path d="M62.7,119.33H62l.57-.46s.06-.06.06-.08c0-.26-.91-.8-1.51-1.16-1-.6-2-1.17-2-1.83a.75.75,0,0,1,.29-.66A40,40,0,0,1,63.58,113c1.6-.79,3.42-1.67,3.62-1.84,1-.87,1-1.34,1-2.05a4.39,4.39,0,0,1,0-1.07,2.15,2.15,0,0,1,1.44-1.75,1.51,1.51,0,0,1,1.85,1.09,8.78,8.78,0,0,1,.93,3.73,3.29,3.29,0,0,1-1.29,2.28,16,16,0,0,0-1.14,1.2C68.26,116.46,65.66,119.33,62.7,119.33Zm7.4-12.62a1.27,1.27,0,0,0-.32,0,1.64,1.64,0,0,0-1.07,1.34,4.34,4.34,0,0,0,0,1,2.47,2.47,0,0,1-1.17,2.49c-.23.19-1.57.85-3.72,1.9-1.65.8-3.91,1.9-4.12,2.1s-.12.19-.12.22c0,.39,1,1,1.77,1.43,1.07.64,1.73,1.06,1.77,1.57v0c2.56-.25,4.91-2.85,6.49-4.59A17.22,17.22,0,0,1,70.79,113,2.8,2.8,0,0,0,71.9,111a8.28,8.28,0,0,0-.89-3.49h0C70.76,107,70.49,106.71,70.1,106.71Z"/><path class="cls-3" d="M53.57,104.5a.37.37,0,0,1,.28.13,1.72,1.72,0,0,1,.52-1.31c.48-.36,1.08-.1,1.54.09l.05,0c-.05-1.1.17-2.21,1.08-2.61s1.51.19,2,1a5.41,5.41,0,0,1,.15-1.16c.36-1.43,1.93-1.26,2.74-.44A8,8,0,0,1,63,103.63a5.47,5.47,0,0,1,0,2.48c-.53,1.28-1.8.4-2.54-.3.32,1,.36,2-.91,2.33a2.22,2.22,0,0,1-2.12-.61,3.18,3.18,0,0,1-.12,1.48c-.42,1.16-1.7.59-2.33,0a3.39,3.39,0,0,1-.7-.94.55.55,0,0,1-.14.23c-.51.57-1.46,0-1.85-.36A2,2,0,0,1,53.57,104.5Z"/><path d="M56.46,109.94a2.64,2.64,0,0,1-1.62-.72,3.44,3.44,0,0,1-.55-.65,1,1,0,0,1-.67.25,2.43,2.43,0,0,1-1.49-.68,2.31,2.31,0,0,1-.53-2.46,2.19,2.19,0,0,1,1.95-1.44h.08a1.71,1.71,0,0,1,.58-1.13,1.48,1.48,0,0,1,1.48-.06,2.49,2.49,0,0,1,1.25-2.45,1.55,1.55,0,0,1,1.89.52c0-.17.06-.34.1-.49A1.57,1.57,0,0,1,60,99.42a2.26,2.26,0,0,1,2.08.65c.67.68,1.08,2.78,1.18,3.53l0,.28a4.59,4.59,0,0,1,0,2.33,1.22,1.22,0,0,1-.84.79,2.07,2.07,0,0,1-1.51-.49,1.84,1.84,0,0,1-.18,1.15,1.59,1.59,0,0,1-1.1.73,2.41,2.41,0,0,1-1.88-.3,3.19,3.19,0,0,1-.17,1,1.18,1.18,0,0,1-.83.81A1.53,1.53,0,0,1,56.46,109.94Zm-2.2-2.51.28.53a2.91,2.91,0,0,0,.65.87,1.9,1.9,0,0,0,1.44.57.64.64,0,0,0,.46-.48,2.93,2.93,0,0,0,.11-1.36l-.08-.72.52.5a2,2,0,0,0,1.88.54,1,1,0,0,0,.76-.48,1.92,1.92,0,0,0,0-1.51l-.3-1,.73.69c.67.63,1.27.95,1.65.87a.69.69,0,0,0,.46-.48,4.32,4.32,0,0,0,0-2.06l0-.28a7.63,7.63,0,0,0-1-3.23,1.74,1.74,0,0,0-1.57-.52,1,1,0,0,0-.73.83,5.23,5.23,0,0,0-.15,1.11l0,.91L58.8,102c-.67-1.15-1.26-1.06-1.65-.89-.84.36-1,1.48-.93,2.35l0,.52-.43-.29c-.55-.24-1-.38-1.3-.14a1.59,1.59,0,0,0-.41,1.13l0,.58-.41-.42s-.07-.06-.08-.06a1.69,1.69,0,0,0-1.49,1.11,1.79,1.79,0,0,0,.41,1.9,1.82,1.82,0,0,0,1.09.53h0a.5.5,0,0,0,.37-.17.29.29,0,0,0,.08-.13Z"/><path class="cls-5" d="M123.26,106.45a4,4,0,0,0-4,.63l-1.66-2,3.21-3.53Z"/><path d="M121.91,100.48l9.85-3.5a3.12,3.12,0,0,1,2.09,5.88l-9.85,3.5a1.73,1.73,0,0,1-2.22-1.06l-.93-2.6A1.73,1.73,0,0,1,121.91,100.48Z"/><rect class="cls-5" x="123.48" y="97.87" width="12.63" height="6.24" rx="2.66" transform="translate(-26.32 49.28) rotate(-19.56)"/><path class="cls-9" d="M126.45,99.45l5.34-1.9a.43.43,0,0,1,.53.25.42.42,0,0,1-.25.53l-5.34,1.9a.43.43,0,0,1-.53-.25A.42.42,0,0,1,126.45,99.45Z"/><path d="M116.68,105.15l-.18-.54a3.71,3.71,0,0,1,1.26-1c1.15-.44,2.69.77,3.43,2.7s.4,3.86-.75,4.3c-.1,0-1.88.13-1.88.13l-.29-.87a5.38,5.38,0,0,1-1.25-2A5.33,5.33,0,0,1,116.68,105.15Z"/><path class="cls-5" d="M116.5,104.61c1.15-.44,2.6.55,3.24,2.21s.21,3.37-.94,3.81-2.6-.55-3.23-2.21S115.35,105.05,116.5,104.61Z"/><path class="cls-9" d="M116.74,106.14c.49-.19,1.1.23,1.37.94s.1,1.42-.39,1.61-1.11-.23-1.38-.94S116.25,106.32,116.74,106.14Z"/><path class="cls-9" d="M116.07,106.3l1.39-.53a.39.39,0,1,1,.28.72l-1.4.54a.4.4,0,0,1-.5-.23A.38.38,0,0,1,116.07,106.3Z"/><path class="cls-3" d="M58.79,114.74l4.39-.81,1.61,2.77a3.51,3.51,0,0,0,0,3.51c1,2-.75,5.7-2.83,2.91a52.21,52.21,0,0,1-4-6.05C57.5,116.16,58.79,114.74,58.79,114.74Z"/></g><path class="cls-5" d="M8.14,119.62S6.29,109.25,28.6,105.27v38.64L11,145.19Z"/><path d="M26.37,110.69v2c-2.83.84-11.51,3.81-15.95,10l-1.57-1.13C14,114.36,24.05,111.32,26.37,110.69Z"/><path d="M26.37,115.85v2c-2.83.83-11.51,3.81-15.95,10l-1.57-1.12C14,119.52,24.05,116.48,26.37,115.85Z"/><path d="M26.37,121v2c-2.83.84-11.51,3.81-15.95,10l-1.57-1.13C14,124.67,24.05,121.63,26.37,121Z"/><path class="cls-3" d="M64.13,173.48c-2.7-.08-48-1.63-55.89-14.86l0-38.58c1.47,2.13,11.08,12.77,55.87,13Z"/><path d="M8.38,120.44c2.06,2.79,12.35,12.49,55.63,12.77v40.14c-3.7-.11-47.76-1.78-55.63-14.73V120.44Zm-.24-.82v39.06c8.24,13.78,56.11,14.92,56.11,14.92V133c-50.14-.28-56.11-13.35-56.11-13.35Z"/><path class="cls-5" d="M221.7,163.91s1.7-9.52-18.77-13.17v26.59l16.17,1.18Z"/><path d="M221.14,165.82l-1.46,1.05c-4.38-6.1-13.15-8.82-15.2-9.38v-1.85C205.17,155.8,215.86,158.48,221.14,165.82Z"/><path d="M221.14,170.6l-1.46,1c-4.38-6.09-13.15-8.81-15.2-9.38v-1.85C205.17,160.58,215.86,163.26,221.14,170.6Z"/><path d="M221.14,175.38l-1.46,1c-4.36-6.08-13.15-8.81-15.2-9.38v-1.85C205.17,165.36,215.86,168,221.14,175.38Z"/><path class="cls-3" d="M170.32,176.28c40.92-.25,49.85-9.93,51.26-11.95v26.56c-7.23,12.06-48.68,13.49-51.26,13.57Z"/><path d="M221.46,164.73v26.1c-7.21,11.85-47.48,13.39-51,13.51V176.4c39.48-.25,49-9,51-11.67Zm.24-.82s-5.47,12-51.49,12.26v28.41s43.93-1,51.49-13.69v-27Z"/></g></g></svg>